<?xml version="1.0" encoding="UTF-8" standalone="no"?>
<svg
   clip-rule="evenodd"
   fill-rule="evenodd"
   height="50mm"
   image-rendering="optimizeQuality"
   shape-rendering="geometricPrecision"
   text-rendering="geometricPrecision"
   viewBox="0 0 50 50"
   width="50mm"
   version="1.1"
   id="svg11"
   sodipodi:docname="bB.svg"
   inkscape:version="1.1 (ce6663b3b7, 2021-05-25)"
   xmlns:inkscape="http://www.inkscape.org/namespaces/inkscape"
   xmlns:sodipodi="http://sodipodi.sourceforge.net/DTD/sodipodi-0.dtd"
   xmlns:xlink="http://www.w3.org/1999/xlink"
   xmlns="http://www.w3.org/2000/svg"
   xmlns:svg="http://www.w3.org/2000/svg">
  <defs
     id="defs15">
    <linearGradient
       inkscape:collect="always"
       xlink:href="#linearGradient2192"
       id="linearGradient2387"
       gradientUnits="userSpaceOnUse"
       x1="21.094196"
       y1="37.100735"
       x2="77.66906"
       y2="37.469288" />
    <linearGradient
       inkscape:collect="always"
       id="linearGradient2192">
      <stop
         style="stop-color:#ffffff;stop-opacity:1;"
         offset="0"
         id="stop2194" />
      <stop
         style="stop-color:#ffffff;stop-opacity:0;"
         offset="1"
         id="stop2196" />
    </linearGradient>
  </defs>
  <sodipodi:namedview
     id="namedview13"
     pagecolor="#ffffff"
     bordercolor="#666666"
     borderopacity="1.0"
     inkscape:pageshadow="2"
     inkscape:pageopacity="0.0"
     inkscape:pagecheckerboard="0"
     inkscape:document-units="mm"
     showgrid="false"
     inkscape:zoom="2.8151667"
     inkscape:cx="189.50921"
     inkscape:cy="28.59511"
     inkscape:window-width="1294"
     inkscape:window-height="704"
     inkscape:window-x="72"
     inkscape:window-y="27"
     inkscape:window-maximized="1"
     inkscape:current-layer="svg11" />
  <linearGradient
     id="a"
     gradientUnits="userSpaceOnUse"
     x1="21.094"
     x2="77.669"
     y1="37.101"
     y2="37.469">
    <stop
       offset="0"
       stop-color="#fff"
       id="stop2" />
    <stop
       offset="1"
       stop-color="#fff"
       stop-opacity="0"
       id="stop4" />
  </linearGradient>
  <path
     d="M24.086 23.705v2.108c0 .61.304.914.914.914s.914-.304.914-.914v-2.134h2.236c.575 0 .872-.296.872-.897 0-.593-.297-.889-.872-.889h-2.236v-2.235c0-.61-.304-.915-.914-.915s-.914.305-.914.915v2.235H21.9c-.584 0-.872.296-.872.889 0 .601.288.897.872.897zm7.51 13.741l-1.042-2.531c-1.685-.364-3.539-.542-5.554-.542-1.998 0-3.835.178-5.503.542l-1.042 2.506c2.05-.517 4.234-.77 6.545-.77 2.286 0 4.479.262 6.596.795zm-2.083-5.114l-.72-1.735v-.67a27.03 27.03 0 0 0-3.793-.27 27.35 27.35 0 0 0-3.768.27l-.025.67-.669 1.735A25.85 25.85 0 0 1 25 31.96c1.592 0 3.09.127 4.513.372zm-.864 9.381c-.66-.5-1.33-1.287-1.99-2.362h-.787c0 .813.186 1.6.567 2.362zm-5.114 0c.381-.812.576-1.6.576-2.362h-.796c-.643 1.059-1.312 1.846-2.015 2.362z"
     fill="url(#a)"
     id="path9" />
  <g
     id="b~"
     inkscape:label="#b~"
     transform="matrix(0.33183094,0,0,0.33183094,-80.202425,-177.76426)">
    <g
       style="fill-rule:evenodd"
       id="b-3"
       transform="matrix(3.0135828,0,0,3.0135828,241.69544,541.08957)">
      <path
         d="m 25,42.1622 c -0.2286,0.9398 -0.5165,1.5917 -0.8467,1.9558 -0.3302,0.364 -0.762,0.745 -1.3123,1.143 -0.5927,0.4148 -1.2954,0.762 -2.1082,1.0498 -0.8128,0.2879 -1.7103,0.3641 -2.7009,0.2117 l -6.968,-0.9652 c -0.2879,-0.0339 -0.5334,-0.0339 -0.762,0 -0.2202,0.0339 -0.4318,0.0508 -0.635,0.0508 -0.3472,0 -0.7874,0.0762 -1.3208,0.2371 -0.5419,0.1524 -0.9568,0.381 -1.2531,0.6773 L 4.6885,42.577 c 0.2963,-0.3302 0.5588,-0.5588 0.7874,-0.6942 0.237,-0.127 0.508,-0.271 0.8212,-0.4149 0.9568,-0.4487 1.9812,-0.7197 3.0734,-0.8213 0.4657,-0.0338 0.9229,-0.0423 1.3632,-0.0254 0.4487,0.017 0.9144,0 1.397,-0.0508 0.889,0.1524 1.7864,0.2879 2.6839,0.4064 0.9059,0.127 1.8119,0.254 2.7178,0.3895 0.9906,0 1.6595,-0.1016 2.0066,-0.2963 0.1863,-0.1016 0.4741,-0.2879 0.8721,-0.5504 0.3979,-0.2624 0.7958,-0.6519 1.1938,-1.1684 -0.8806,-0.0931 -1.7696,-0.2624 -2.684,-0.508 -0.9059,-0.237 -1.7102,-0.491 -2.4045,-0.7535 l 2.5823,-6.4008 c -1.2954,-0.7451 -2.1928,-1.3377 -2.7093,-1.7949 -0.508,-0.4572 -0.9144,-0.9822 -1.2107,-1.5748 -0.4318,-0.762 -0.7112,-1.4986 -0.8298,-2.2098 -0.127,-0.7112 -0.1778,-1.3462 -0.1608,-1.9135 0.0169,-0.9906 0.2455,-2.0828 0.7027,-3.2851 0.4572,-1.1938 1.3123,-2.269 2.5654,-3.2088 1.0414,-0.7959 2.0659,-1.6172 3.0565,-2.4554 0.9906,-0.8466 1.9727,-1.8288 2.9464,-2.9548 -1.2192,-0.6266 -1.8288,-1.6256 -1.8288,-2.9972 0,-0.9314 0.3217,-1.7188 0.9736,-2.3876 0.652,-0.6604 1.4563,-0.9906 2.3961,-0.9906 0.9229,0 1.7187,0.3302 2.3791,0.9906 0.6604,0.6688 0.9906,1.4562 0.9906,2.3876 0,1.3546 -0.6096,2.3537 -1.8288,2.9972 0.9568,1.126 1.9304,2.1082 2.9126,2.9548 0.9821,0.8382 2.015,1.6595 3.0903,2.4554 1.2361,0.9398 2.0828,2.015 2.5231,3.2088 0.4487,1.2023 0.6942,2.2945 0.7196,3.2851 0,0.5673 -0.0508,1.2023 -0.1693,1.9135 -0.1185,0.7112 -0.381,1.4478 -0.7959,2.2098 -0.3302,0.5926 -0.745,1.1176 -1.253,1.5748 -0.4996,0.4572 -1.3886,1.0498 -2.667,1.7949 l 2.5823,6.4008 c -0.7281,0.2625 -1.5494,0.5165 -2.4553,0.7535 -0.9144,0.2456 -1.7865,0.4149 -2.6332,0.508 0.381,0.5165 0.7705,0.906 1.1684,1.1684 0.398,0.2625 0.6943,0.4488 0.8975,0.5504 0.3471,0.1947 1.016,0.2963 2.0066,0.2963 0.889,-0.1355 1.7865,-0.2625 2.6924,-0.3895 0.8975,-0.1185 1.8034,-0.254 2.7178,-0.4064 0.4403,0.0508 0.889,0.0678 1.3462,0.0508 0.4572,-0.0169 0.9229,-0.0084 1.4055,0.0254 1.0583,0.1016 2.0828,0.3726 3.0734,0.8213 0.2963,0.1439 0.5672,0.2879 0.8043,0.4149 0.2455,0.1354 0.508,0.364 0.8043,0.6942 l -2.4299,3.9455 c -0.2963,-0.2963 -0.7112,-0.5249 -1.2531,-0.6773 -0.5334,-0.1609 -0.9652,-0.2371 -1.2954,-0.2371 -0.2201,0 -0.4402,-0.0169 -0.6604,-0.0508 -0.2201,-0.0339 -0.4741,-0.0339 -0.7535,0 l -6.9511,0.9652 c -0.9906,0.1524 -1.9135,0.0847 -2.7602,-0.1947 -0.8551,-0.2794 -1.5578,-0.652 -2.0997,-1.1176 C 26.5663,44.7614 26.1261,44.3804 25.8043,44.0587 25.4826,43.737 25.2117,43.102 25,42.1622 Z"
         id="path6-1"
         style="fill:#1f1a17"
         inkscape:connector-curvature="0" />
      <path
         d="m 24.0856,23.7048 v 2.1082 c 0,0.6096 0.3048,0.9144 0.9144,0.9144 v 0 c 0.6096,0 0.9144,-0.3048 0.9144,-0.9144 v -2.1336 h 2.2352 c 0.5757,0 0.8721,-0.2963 0.8721,-0.8974 v 0 c 0,-0.5927 -0.2964,-0.889 -0.8721,-0.889 h -2.2352 v -2.2352 c 0,-0.6096 -0.3048,-0.9144 -0.9144,-0.9144 v 0 c -0.6096,0 -0.9144,0.3048 -0.9144,0.9144 v 2.2352 h -2.1844 c -0.5842,0 -0.8721,0.2963 -0.8721,0.889 v 0 c 0,0.6011 0.2879,0.8974 0.8721,0.8974 z m 7.5099,13.7414 -1.0414,-2.5315 C 28.8693,34.5506 27.0151,34.3728 25,34.3728 c -1.9981,0 -3.8354,0.1778 -5.5033,0.5419 l -1.0414,2.5061 c 2.0489,-0.5164 4.2333,-0.7704 6.5447,-0.7704 2.286,0 4.4789,0.2624 6.5955,0.7958 z M 29.5127,32.3324 28.7931,30.5967 V 29.9278 C 27.54,29.75 26.27,29.6569 25,29.6569 c -1.2361,0 -2.4977,0.0931 -3.7677,0.2709 l -0.0254,0.6689 -0.6688,1.7357 c 1.4054,-0.2456 2.8871,-0.3726 4.4619,-0.3726 1.5917,0 3.0903,0.127 4.5127,0.3726 z m -0.8636,9.381 c -0.6604,-0.4995 -1.3292,-1.2869 -1.9896,-2.3622 h -0.7874 c 0,0.8128 0.1862,1.6002 0.5672,2.3622 z m -5.1138,0 c 0.381,-0.8128 0.5757,-1.6002 0.5757,-2.3622 h -0.7959 c -0.6434,1.0584 -1.3123,1.8458 -2.015,2.3622 z"
         id="path8-94"
         style="fill:url(#linearGradient2387);fill-opacity:1"
         inkscape:connector-curvature="0" />
    </g>
    <path
       inkscape:connector-curvature="0"
       style="fill:none;stroke:#000000;stroke-width:9.60122;stroke-linecap:round;stroke-linejoin:miter;stroke-miterlimit:4;stroke-dasharray:none;stroke-opacity:1"
       d="m 284.74837,556.2746 30.86105,-11.31573 30.86106,11.31573"
       id="path3926-0-7" />
  </g>
</svg>
