<?xml version="1.0" encoding="UTF-8" standalone="no"?>
<svg
   clip-rule="evenodd"
   fill-rule="evenodd"
   height="50mm"
   image-rendering="optimizeQuality"
   shape-rendering="geometricPrecision"
   text-rendering="geometricPrecision"
   viewBox="0 0 50 50"
   width="50mm"
   version="1.1"
   id="svg11"
   sodipodi:docname="bN.svg"
   inkscape:version="1.1 (ce6663b3b7, 2021-05-25)"
   xmlns:inkscape="http://www.inkscape.org/namespaces/inkscape"
   xmlns:sodipodi="http://sodipodi.sourceforge.net/DTD/sodipodi-0.dtd"
   xmlns="http://www.w3.org/2000/svg"
   xmlns:svg="http://www.w3.org/2000/svg">
  <defs
     id="defs15" />
  <sodipodi:namedview
     id="namedview13"
     pagecolor="#ffffff"
     bordercolor="#666666"
     borderopacity="1.0"
     inkscape:pageshadow="2"
     inkscape:pageopacity="0.0"
     inkscape:pagecheckerboard="0"
     inkscape:document-units="mm"
     showgrid="false"
     inkscape:zoom="1.4075833"
     inkscape:cx="118.28785"
     inkscape:cy="103.36866"
     inkscape:window-width="1294"
     inkscape:window-height="704"
     inkscape:window-x="72"
     inkscape:window-y="27"
     inkscape:window-maximized="1"
     inkscape:current-layer="svg11" />
  <linearGradient
     id="a"
     gradientUnits="userSpaceOnUse"
     x1="21.253"
     x2="77.641"
     y1="37.592"
     y2="37.469">
    <stop
       offset="0"
       stop-color="#fff"
       id="stop2" />
    <stop
       offset="1"
       stop-color="#fff"
       stop-opacity="0"
       id="stop4" />
  </linearGradient>
  <g
     id="g61"
     transform="matrix(0.84714232,0,0,0.84714232,2.7505512,7.8696107)">
    <g
       id="g30">
      <path
         d="m 26.178,9.395 c 2.6,0.17 5.004,0.838 7.222,2.015 2.21,1.169 4.098,2.676 5.656,4.513 1.092,1.287 2.117,2.845 3.082,4.665 a 28.684,28.684 0 0 1 2.32,5.774 36.511,36.511 0 0 1 1.253,7.46 c 0.177,2.599 0.262,5.012 0.262,7.23 v 5.402 H 15.468 c -0.153,0 -0.22,-0.407 -0.212,-1.21 0.009,-0.814 0.06,-1.466 0.16,-1.965 0.06,-0.398 0.221,-0.957 0.467,-1.685 0.254,-0.728 0.66,-1.609 1.244,-2.65 0.263,-0.534 0.89,-1.304 1.88,-2.32 0.999,-1.016 2.133,-2.201 3.429,-3.539 0.745,-0.762 1.32,-1.719 1.744,-2.879 0.423,-1.151 0.601,-2.201 0.533,-3.15 a 8.37,8.37 0 0 1 -2.006,1.22 c -3.505,1.253 -6.045,3.073 -7.612,5.452 -0.118,0.153 -0.49,0.822 -1.117,2.015 -0.33,0.627 -0.618,1.059 -0.847,1.287 -0.313,0.314 -0.77,0.491 -1.363,0.525 -0.923,0.043 -1.643,-0.398 -2.16,-1.346 C 8.915,36.412 8.296,36.497 7.746,36.463 6.823,36.116 6.154,35.743 5.74,35.346 4.893,34.499 4.351,33.661 4.089,32.814 A 9.43,9.43 0 0 1 3.708,30.088 c 0,-1.389 0.855,-3.226 2.582,-5.512 2.015,-2.625 3.09,-4.631 3.217,-6.003 0,-0.593 0.06,-1.261 0.178,-2.007 a 4.198,4.198 0 0 1 0.618,-1.49 c 0.22,-0.33 0.364,-0.558 0.432,-0.677 0.076,-0.127 0.212,-0.313 0.415,-0.559 0.144,-0.203 0.27,-0.355 0.372,-0.457 0.093,-0.11 0.22,-0.254 0.373,-0.44 0.178,-0.212 0.406,-0.457 0.694,-0.745 a 18.06,18.06 0 0 1 -1.067,-7.46 c 3.285,1.169 6.054,3.015 8.28,5.53 0.551,-1.872 1.626,-3.387 3.226,-4.539 1.321,0.923 2.371,2.15 3.15,3.666 z"
         fill="#1f1a17"
         id="path7" />
      <path
         d="m 15.688,17.786 0.542,-0.28 c 0.5,-0.194 0.652,-0.559 0.474,-1.092 -0.195,-0.491 -0.576,-0.66 -1.143,-0.491 -1.947,0.711 -3.294,2.015 -4.039,3.92 -0.118,0.542 0.076,0.914 0.593,1.118 0.516,0.16 0.864,-0.017 1.041,-0.55 0.136,-0.28 0.229,-0.466 0.297,-0.543 0.186,0.144 0.423,0.246 0.72,0.297 1.007,0.16 1.6,-0.28 1.76,-1.338 A 1.498,1.498 0 0 0 15.688,17.786 Z M 11.573,34.55 c 0.06,-0.153 0.17,-0.373 0.322,-0.67 0.28,-0.693 0.415,-1.108 0.415,-1.244 -0.026,-0.457 -0.271,-0.694 -0.72,-0.694 -0.33,0 -0.711,0.474 -1.16,1.414 a 0.97,0.97 0 0 1 -0.296,0.347 c -0.449,0.466 -0.381,0.855 0.194,1.168 0.534,0.314 0.94,0.212 1.245,-0.321 z m 14.63,-9.204 c 1.16,-1.524 1.728,-3.217 1.71,-5.08 -0.067,-0.55 -0.38,-0.82 -0.94,-0.82 -0.761,0 -1.057,0.279 -0.897,0.837 0.051,0.915 -0.033,1.668 -0.27,2.261 -0.382,0.94 -0.805,1.643 -1.262,2.108 -0.254,0.5 -0.102,0.864 0.449,1.092 0.525,0.246 0.931,0.119 1.21,-0.398 z M 19.726,13.24 a 6.798,6.798 0 0 1 0.051,-1.93 c -0.99,0.194 -1.922,0.66 -2.802,1.388 -0.525,0.28 -0.652,0.67 -0.373,1.169 0.28,0.508 0.67,0.592 1.169,0.245 0.347,-0.186 0.669,-0.355 0.956,-0.508 0.288,-0.16 0.618,-0.28 1,-0.364 z m 23.25,31.454 c -0.017,0 0,-0.449 0.042,-1.346 0.131,-3.108 0.096,-6.221 0.076,-9.33 a 26.837,26.837 0 0 0 -0.889,-6.613 c -0.84,-3.31 -2.124,-6.485 -4.072,-9.297 -2.634,-3.845 -6.814,-6.033 -11.286,-6.976 0.126,0.766 0.033,1.54 0.076,2.311 a 25.82,25.82 0 0 1 4.538,2.032 c 4.241,2.555 6.414,7.276 7.197,11.93 1.272,6.154 0.453,11.557 0.813,17.289 z M 9.439,30.139 C 9.914,29.799 9.964,29.41 9.583,28.945 9.185,28.564 8.753,28.53 8.271,28.843 c -1.007,0.66 -1.55,1.533 -1.617,2.608 0.017,0.542 0.347,0.804 0.974,0.77 0.592,-0.05 0.88,-0.355 0.863,-0.922 0.136,-0.525 0.449,-0.915 0.948,-1.16 z"
         fill="url(#a)"
         id="path9"
         style="fill:url(#a)" />
    </g>
    <g
       id="b~-0"
       inkscape:label="#b~"
       transform="matrix(-0.05914857,0,0,0,80.468286,34.334558)">
      <path
         inkscape:connector-curvature="0"
         style="fill:none;stroke:#000000;stroke-width:9.60122;stroke-linecap:round;stroke-linejoin:miter;stroke-miterlimit:4;stroke-dasharray:none;stroke-opacity:1"
         d="m 284.74837,556.2746 30.86105,-11.31573 30.86106,11.31573"
         id="path3926-0-7-8" />
    </g>
    <g
       id="b~-0-3"
       inkscape:label="#b~"
       transform="matrix(0.5925831,0,0,0.5925831,-160.91603,-327.71581)">
      <path
         inkscape:connector-curvature="0"
         style="fill:none;stroke:#000000;stroke-width:9.60122;stroke-linecap:round;stroke-linejoin:miter;stroke-miterlimit:4;stroke-dasharray:none;stroke-opacity:1"
         d="m 284.74837,556.2746 30.86105,-11.31573 30.86106,11.31573"
         id="path3926-0-7-8-6" />
    </g>
  </g>
</svg>
