<?xml version="1.0" encoding="UTF-8" standalone="no"?>
<svg
   height="100%"
   width="100%"
   version="1.1"
   viewBox="0 0 2048 2048"
   id="svg44"
   sodipodi:docname="bU.svg"
   inkscape:version="1.1 (ce6663b3b7, 2021-05-25)"
   xmlns:inkscape="http://www.inkscape.org/namespaces/inkscape"
   xmlns:sodipodi="http://sodipodi.sourceforge.net/DTD/sodipodi-0.dtd"
   xmlns="http://www.w3.org/2000/svg"
   xmlns:svg="http://www.w3.org/2000/svg"
   xmlns:rdf="http://www.w3.org/1999/02/22-rdf-syntax-ns#"
   xmlns:cc="http://creativecommons.org/ns#"
   xmlns:dc="http://purl.org/dc/elements/1.1/">
  <metadata
     id="metadata50">
    <rdf:RDF>
      <cc:Work
         rdf:about="">
        <dc:format>image/svg+xml</dc:format>
        <dc:type
           rdf:resource="http://purl.org/dc/dcmitype/StillImage" />
        <dc:title />
      </cc:Work>
    </rdf:RDF>
  </metadata>
  <defs
     id="defs48" />
  <sodipodi:namedview
     pagecolor="#ffffff"
     bordercolor="#666666"
     borderopacity="1"
     objecttolerance="10"
     gridtolerance="10"
     guidetolerance="10"
     inkscape:pageopacity="0"
     inkscape:pageshadow="2"
     inkscape:window-width="1294"
     inkscape:window-height="704"
     id="namedview46"
     showgrid="false"
     inkscape:zoom="0.11523438"
     inkscape:cx="1679.1864"
     inkscape:cy="1479.5932"
     inkscape:window-x="72"
     inkscape:window-y="27"
     inkscape:window-maximized="1"
     inkscape:current-layer="svg44"
     inkscape:pagecheckerboard="0" />
  <g
     id="g157"
     transform="matrix(0.86132376,0,0,0.86132376,104.86938,369.10477)">
    <g
       id="g43">
      <path
         style="color:#000000;display:block;fill:#000000;fill-rule:nonzero"
         d="m 1161,1706 h 170 v 137 h 274 V 1468 L 1383,1297 V 819 L 1553,649 V 444 h 153 V 205 H 341 v 239 h 153 v 205 l 171,170 v 478 l -222,171 v 375 h 273 v -137 h 171 v 137 h 274 z M 564,460 V 358 h 920 v 102 z m 460,1092 H 512 v -46 l 73,-55 h 879 l 71,55 v 46 z m 0,-169 H 674 l 60,-47 v -57 h 580 v 57 l 60,47 z m 0,-546 H 734 v -46 l -60,-58 h 700 l -60,58 v 46 z m 0,-172 H 610 l -46,-43 v -58 h 920 v 58 l -46,43 z"
         display="block"
         id="path30"
         inkscape:connector-curvature="0" />
      <g
         id="g42"
         transform="matrix(1,0,0,-1,0,2048)"
         style="fill:#ffffff;fill-rule:nonzero">
        <path
           style="color:#000000;display:block"
           d="m 564,1588 v 102 h 920 v -102 z"
           display="block"
           id="path32"
           inkscape:connector-curvature="0" />
        <path
           style="color:#000000;display:block"
           d="M 1024,496 H 512 v 46 l 73,55 h 879 l 71,-55 v -46 z"
           display="block"
           id="path34"
           inkscape:connector-curvature="0" />
        <path
           style="color:#000000;display:block"
           d="M 1024,665 H 674 l 60,47 v 57 h 580 v -57 l 60,-47 z"
           display="block"
           id="path36"
           inkscape:connector-curvature="0" />
        <path
           style="color:#000000;display:block"
           d="M 1024,1211 H 734 v 46 l -60,58 h 700 l -60,-58 v -46 z"
           display="block"
           id="path38"
           inkscape:connector-curvature="0" />
        <path
           style="color:#000000;display:block"
           d="M 1024,1383 H 610 l -46,43 v 58 h 920 v -58 l -46,-43 z"
           display="block"
           id="path40"
           inkscape:connector-curvature="0" />
      </g>
    </g>
    <g
       id="b~-0"
       inkscape:label="#b~"
       transform="matrix(19.138198,0,0,19.138198,-5044.9,-10675.794)">
      <path
         inkscape:connector-curvature="0"
         style="fill:none;stroke:#000000;stroke-width:9.60122;stroke-linecap:round;stroke-linejoin:miter;stroke-miterlimit:4;stroke-dasharray:none;stroke-opacity:1"
         d="m 284.74837,556.2746 30.86105,-11.31573 30.86106,11.31573"
         id="path3926-0-7-8" />
    </g>
  </g>
</svg>
