<?xml version="1.0" encoding="UTF-8" standalone="no"?>
<svg
   clip-rule="evenodd"
   fill-rule="evenodd"
   height="50mm"
   image-rendering="optimizeQuality"
   shape-rendering="geometricPrecision"
   text-rendering="geometricPrecision"
   viewBox="0 0 50 50"
   width="50mm"
   version="1.1"
   id="svg11"
   sodipodi:docname="wP.svg"
   inkscape:version="1.1 (ce6663b3b7, 2021-05-25)"
   xmlns:inkscape="http://www.inkscape.org/namespaces/inkscape"
   xmlns:sodipodi="http://sodipodi.sourceforge.net/DTD/sodipodi-0.dtd"
   xmlns="http://www.w3.org/2000/svg"
   xmlns:svg="http://www.w3.org/2000/svg">
  <defs
     id="defs15" />
  <sodipodi:namedview
     id="namedview13"
     pagecolor="#ffffff"
     bordercolor="#666666"
     borderopacity="1.0"
     inkscape:pageshadow="2"
     inkscape:pageopacity="0.0"
     inkscape:pagecheckerboard="0"
     inkscape:document-units="mm"
     showgrid="false"
     inkscape:zoom="0.70379167"
     inkscape:cx="-84.542064"
     inkscape:cy="81.700314"
     inkscape:window-width="1294"
     inkscape:window-height="704"
     inkscape:window-x="72"
     inkscape:window-y="27"
     inkscape:window-maximized="1"
     inkscape:current-layer="svg11" />
  <linearGradient
     id="a"
     gradientTransform="matrix(1,0,0,0.97324,0,1.243)"
     gradientUnits="userSpaceOnUse"
     x1="21.13"
     x2="77.764"
     y1="37.346"
     y2="37.469">
    <stop
       offset="0"
       stop-color="#fff"
       id="stop2" />
    <stop
       offset="1"
       stop-color="#fff"
       stop-opacity="0"
       id="stop4" />
  </linearGradient>
  <g
     id="g36"
     transform="matrix(0.86995606,0,0,0.86995606,2.5092299,7.1858992)">
    <path
       d="M 25,46.448 H 11.606 a 13.138999,13.138999 0 0 1 -0.99,-5.043 c 0,-2.975 0.862999,-5.644 2.597999,-8.018 C 14.95,31.022 17.184999,29.333001 19.911,28.32 A 6.824,6.824 0 0 1 17.05,25.921999 C 16.312999,24.851 15.95,23.639 15.95,22.288 c 0,-1.69 0.574999,-3.156 1.735,-4.392 1.151,-1.243999 2.573999,-1.961 4.266999,-2.15 C 20.606,14.765 19.937,13.463 19.937,11.856 c 0,-1.351 0.490999,-2.513 1.482,-3.477 0.982,-0.964 2.176,-1.442 3.581,-1.442 1.388999,0 2.582,0.478 3.572999,1.442 0.990001,0.964 1.49,2.126 1.49,3.477 0,1.607 -0.669,2.909 -2.014999,3.89 1.692999,0.189 3.115999,0.906001 4.266999,2.15 1.160001,1.236 1.736001,2.703 1.736001,4.392 0,1.351 -0.373,2.563 -1.126,3.633999 A 7.0359999,7.0359999 0 0 1 30.062999,28.32 c 2.726,1.013001 4.962001,2.702 6.697001,5.067 1.735999,2.374 2.599999,5.043 2.599999,8.018 0,1.739 -0.321999,3.42 -0.965999,5.043 z"
       fill="#1f1a17"
       id="path7"
       style="stroke-width:1" />
    <path
       d="M 25,44.808 H 37.175 A 11.79,11.79 0 0 0 37.7,41.405 c 0,-2.513 -0.711,-4.787 -2.142,-6.831 -1.43,-2.044 -3.277,-3.552 -5.52,-4.516 -1.584,-0.62 -1.643,-0.659 -1.643,-1.738 0,-0.849 0.559,-1.475 1.668,-1.879 1.533,-1.046 2.303,-2.43 2.303,-4.153 0,-1.244 -0.432,-2.324 -1.287,-3.263 -0.864,-0.931 -1.905,-1.467 -3.124,-1.615 -1,-0.083 -1.49,-0.626 -1.49,-1.64 0,-0.453 0.178,-0.873 0.542,-1.26 0.897,-0.676 1.346,-1.558 1.346,-2.654 0,-0.898 -0.339,-1.673 -1,-2.315 C 26.693,8.898 25.906,8.577 25,8.577 c -0.94,0 -1.744,0.32 -2.396,0.964 a 3.136,3.136 0 0 0 -0.974,2.315 c 0,1.08 0.44,1.961 1.338,2.653 0.364,0.355 0.542,0.775 0.542,1.261 0,1.014 -0.483,1.557 -1.465,1.64 a 4.9,4.9 0 0 0 -3.133,1.615 c -0.855,0.94 -1.278,2.019 -1.278,3.263 0,1.722 0.77,3.107 2.303,4.153 1.11,0.412 1.668,1.046 1.668,1.879 0,1.08 -0.068,1.118 -1.668,1.738 -2.244,0.964 -4.081,2.472 -5.503,4.516 -1.423,2.044 -2.134,4.318 -2.134,6.831 0,1.195 0.178,2.324 0.525,3.403 z"
       fill="url(#a)"
       id="path9"
       style="fill:url(#a)" />
    <g
       id="g4350"
       transform="matrix(1.8027431,0,0,1.8027431,-1272.6617,-1212.0612)">
      <path
         inkscape:connector-curvature="0"
         style="fill:none;stroke:#000000;stroke-width:2.14639;stroke-linecap:round;stroke-linejoin:miter;stroke-miterlimit:4;stroke-dasharray:none;stroke-opacity:1"
         d="m 713.18437,674.45897 6.8991,-2.52967 6.8991,2.52967"
         id="path3940-9-9" />
      <path
         inkscape:connector-curvature="0"
         id="path3942-8-2"
         d="m 713.18437,674.45897 6.8991,-2.52967 6.8991,2.52967"
         style="fill:none;stroke:#ffffff;stroke-width:0.600988;stroke-linecap:butt;stroke-linejoin:miter;stroke-miterlimit:4;stroke-dasharray:none;stroke-opacity:1" />
    </g>
  </g>
</svg>
