<?xml version="1.0" encoding="UTF-8" standalone="no"?>
<svg
   clip-rule="evenodd"
   fill-rule="evenodd"
   height="50mm"
   image-rendering="optimizeQuality"
   shape-rendering="geometricPrecision"
   text-rendering="geometricPrecision"
   viewBox="0 0 50 50"
   width="50mm"
   version="1.1"
   id="svg11"
   sodipodi:docname="wQ.svg"
   inkscape:version="1.1 (ce6663b3b7, 2021-05-25)"
   xmlns:inkscape="http://www.inkscape.org/namespaces/inkscape"
   xmlns:sodipodi="http://sodipodi.sourceforge.net/DTD/sodipodi-0.dtd"
   xmlns="http://www.w3.org/2000/svg"
   xmlns:svg="http://www.w3.org/2000/svg">
  <defs
     id="defs15" />
  <sodipodi:namedview
     id="namedview13"
     pagecolor="#ffffff"
     bordercolor="#666666"
     borderopacity="1.0"
     inkscape:pageshadow="2"
     inkscape:pageopacity="0.0"
     inkscape:pagecheckerboard="0"
     inkscape:document-units="mm"
     showgrid="false"
     inkscape:zoom="1.9906234"
     inkscape:cx="76.609165"
     inkscape:cy="96.703372"
     inkscape:window-width="1294"
     inkscape:window-height="704"
     inkscape:window-x="72"
     inkscape:window-y="27"
     inkscape:window-maximized="1"
     inkscape:current-layer="svg11" />
  <linearGradient
     id="a"
     gradientUnits="userSpaceOnUse"
     x1="21.253"
     x2="77.641"
     y1="37.224"
     y2="37.346">
    <stop
       offset="0"
       stop-color="#fff"
       id="stop2" />
    <stop
       offset="1"
       stop-color="#fff"
       stop-opacity="0"
       id="stop4" />
  </linearGradient>
  <g
     id="g41"
     transform="matrix(0.77424442,0,0,0.77424442,6.1632148,10.539297)">
    <g
       id="g19">
      <path
         d="m 44.541,14.723 c -0.94,0 -1.744,-0.33 -2.404,-0.982 -0.66,-0.652 -0.991,-1.448 -0.991,-2.396 0,-0.923 0.33,-1.719 0.99,-2.388 0.66,-0.677 1.465,-1.007 2.405,-1.007 0.931,0 1.727,0.33 2.388,1.007 0.66,0.67 0.99,1.465 0.99,2.388 0,0.948 -0.33,1.744 -0.99,2.396 a 3.28,3.28 0 0 1 -2.388,0.982 z m -4.31,29.219 c -0.812,0.71 -2.633,1.304 -5.46,1.786 -2.828,0.474 -6.088,0.72 -9.771,0.72 -3.75,0 -7.053,-0.254 -9.898,-0.745 -2.844,-0.5 -4.64,-1.118 -5.384,-1.863 L 11.284,37.888 10.59,33.993 8.405,30.2 6.297,14.774 7.507,14.3 l 6.8,11.455 0.152,-13.64 1.685,-0.296 5.182,13.716 2.776,-14.757 h 1.72 l 2.776,14.706 5.132,-13.664 1.71,0.296 0.153,13.64 6.824,-11.48 1.16,0.541 -2.058,15.359 -2.21,3.793 -0.694,3.945 z M 14.535,11.988 c -0.948,0 -1.752,-0.321 -2.413,-0.973 -0.66,-0.652 -0.99,-1.456 -0.99,-2.396 0,-0.923 0.33,-1.719 0.99,-2.38 0.66,-0.661 1.465,-0.99 2.413,-0.99 0.923,0 1.719,0.33 2.38,0.99 0.661,0.66 0.99,1.457 0.99,2.38 0,0.94 -0.33,1.744 -0.99,2.396 a 3.266,3.266 0 0 1 -2.38,0.973 z M 5.4,14.723 c -0.94,0 -1.736,-0.33 -2.388,-0.982 C 2.36,13.089 2.03,12.293 2.03,11.345 2.03,10.422 2.36,9.626 3.012,8.957 3.664,8.28 4.46,7.95 5.4,7.95 c 0.948,0 1.744,0.33 2.413,1.007 0.66,0.67 0.99,1.465 0.99,2.388 0,0.948 -0.33,1.744 -0.99,2.396 A 3.323,3.323 0 0 1 5.4,14.723 Z m 19.55,-3.97 c -0.94,0 -1.745,-0.33 -2.397,-0.991 -0.652,-0.66 -0.974,-1.465 -0.974,-2.405 0,-0.931 0.322,-1.727 0.974,-2.387 0.652,-0.66 1.456,-0.99 2.396,-0.99 0.923,0 1.727,0.33 2.396,0.99 a 3.23,3.23 0 0 1 1,2.387 c 0,0.94 -0.33,1.744 -1,2.405 -0.669,0.66 -1.473,0.99 -2.396,0.99 z m 10.413,1.235 c -0.94,0 -1.736,-0.321 -2.387,-0.973 -0.652,-0.652 -0.983,-1.456 -0.983,-2.396 0,-0.923 0.33,-1.719 0.983,-2.38 0.653,-0.661 1.447,-0.99 2.387,-0.99 0.948,0 1.753,0.33 2.413,0.99 0.66,0.66 0.99,1.457 0.99,2.38 0,0.94 -0.33,1.744 -0.99,2.396 -0.66,0.652 -1.465,0.973 -2.413,0.973 z"
         fill="#1f1a17"
         stroke="#1f1a17"
         stroke-width="0.076"
         id="path7" />
      <path
         d="m 38.217,43.044 c -3.023,-1.253 -7.417,-1.88 -13.166,-1.88 -5.876,0 -10.313,0.644 -13.327,1.931 2.896,1.143 7.316,1.71 13.25,1.71 2.845,0 5.445,-0.152 7.798,-0.465 2.363,-0.314 4.175,-0.745 5.445,-1.296 z M 24.949,9.017 c 1.11,0 1.66,-0.56 1.66,-1.66 0,-1.092 -0.55,-1.642 -1.66,-1.642 -1.092,0 -1.634,0.55 -1.634,1.642 0,1.1 0.542,1.66 1.634,1.66 z m 12.624,24.976 c -3.192,-0.812 -7.366,-1.21 -12.522,-1.21 -5.292,0 -9.517,0.406 -12.675,1.236 l 0.373,2.379 c 3.217,-0.762 7.323,-1.143 12.302,-1.143 4.944,0 8.975,0.372 12.099,1.117 z m 0.618,-1.49 1.617,-2.853 a 6.432,6.432 0 0 1 -2.43,0.474 c -2.218,0 -3.987,-0.897 -5.308,-2.7 -0.99,0.82 -2.1,1.235 -3.328,1.235 -1.583,0 -2.853,-0.618 -3.793,-1.862 -1.058,1.16 -2.32,1.744 -3.793,1.744 -1.194,0 -2.286,-0.406 -3.276,-1.22 -1.389,1.77 -3.184,2.65 -5.385,2.65 A 7.055,7.055 0 0 1 9.989,29.506 l 1.735,2.972 c 3.21,-0.923 7.62,-1.389 13.225,-1.389 5.707,0 10.118,0.474 13.242,1.414 z M 27.083,26.577 24.975,14.444 22.866,26.433 c 0.051,-0.034 0.161,-0.119 0.348,-0.254 0.38,-0.745 0.956,-1.118 1.735,-1.118 0.847,0 1.389,0.373 1.634,1.118 0.102,0.101 0.271,0.237 0.5,0.398 z m 6.866,0.474 V 15.56 l -4.09,11.261 c 0.314,-0.11 0.577,-0.262 0.797,-0.44 0.33,-0.415 0.779,-0.627 1.338,-0.627 0.66,0 1.193,0.297 1.591,0.872 0.043,0.068 0.102,0.136 0.17,0.212 0.067,0.076 0.135,0.144 0.194,0.212 z M 20.013,26.704 15.95,15.562 v 11.336 c 0.043,-0.067 0.119,-0.144 0.22,-0.245 0.33,-0.694 0.872,-1.042 1.634,-1.042 0.627,0 1.143,0.263 1.541,0.796 0.449,0.195 0.67,0.297 0.67,0.297 z m -6.3,1.388 -5.333,-9.202 1.363,8.382 c 0.94,0.66 1.863,0.99 2.752,0.99 0.347,0 0.753,-0.059 1.219,-0.169 z m 22.395,0.119 c 0.381,0.118 0.805,0.178 1.27,0.178 1.008,0 1.948,-0.314 2.828,-0.94 l 1.363,-8.585 z m 1.49,12.556 -0.745,-2.803 c -3.242,-0.71 -7.205,-1.066 -11.904,-1.066 -4.648,0 -8.61,0.355 -11.878,1.066 L 12.3,40.792 c 3.073,-0.931 7.298,-1.388 12.675,-1.388 5.24,0 9.448,0.448 12.623,1.363 z M 14.535,10.253 c 1.084,0 1.634,-0.542 1.634,-1.634 0,-1.092 -0.55,-1.634 -1.634,-1.634 -1.109,0 -1.668,0.542 -1.668,1.634 0,1.092 0.56,1.634 1.668,1.634 z m 20.828,0 c 1.11,0 1.668,-0.542 1.668,-1.634 0,-1.092 -0.559,-1.634 -1.668,-1.634 -1.083,0 -1.634,0.542 -1.634,1.634 0,1.092 0.55,1.634 1.634,1.634 z M 5.4,12.988 c 1.109,0 1.668,-0.55 1.668,-1.643 0,-1.11 -0.56,-1.66 -1.668,-1.66 -1.084,0 -1.634,0.55 -1.634,1.66 0,1.092 0.55,1.643 1.634,1.643 z m 39.141,0 c 1.092,0 1.643,-0.55 1.643,-1.643 0,-1.11 -0.55,-1.66 -1.643,-1.66 -1.1,0 -1.66,0.55 -1.66,1.66 0,1.092 0.56,1.643 1.66,1.643 z"
         fill="url(#a)"
         stroke="#1f1a17"
         stroke-width="0.076"
         id="path9"
         style="fill:url(#a)" />
    </g>
    <g
       id="g4350"
       transform="matrix(2.882796,0,0,2.882796,-2050.9798,-1943.3528)">
      <path
         inkscape:connector-curvature="0"
         style="fill:none;stroke:#000000;stroke-width:2.14639;stroke-linecap:round;stroke-linejoin:miter;stroke-miterlimit:4;stroke-dasharray:none;stroke-opacity:1"
         d="m 713.18437,674.45897 6.8991,-2.52967 6.8991,2.52967"
         id="path3940-9-9" />
      <path
         inkscape:connector-curvature="0"
         id="path3942-8-2"
         d="m 713.18437,674.45897 6.8991,-2.52967 6.8991,2.52967"
         style="fill:none;stroke:#ffffff;stroke-width:0.600988;stroke-linecap:butt;stroke-linejoin:miter;stroke-miterlimit:4;stroke-dasharray:none;stroke-opacity:1" />
    </g>
  </g>
</svg>
