<?xml version="1.0" encoding="UTF-8" standalone="no"?>
<svg
   height="100%"
   width="100%"
   version="1.1"
   viewBox="0 0 2048 2048"
   id="svg70"
   sodipodi:docname="wU.svg"
   inkscape:version="1.1 (ce6663b3b7, 2021-05-25)"
   xmlns:inkscape="http://www.inkscape.org/namespaces/inkscape"
   xmlns:sodipodi="http://sodipodi.sourceforge.net/DTD/sodipodi-0.dtd"
   xmlns="http://www.w3.org/2000/svg"
   xmlns:svg="http://www.w3.org/2000/svg"
   xmlns:rdf="http://www.w3.org/1999/02/22-rdf-syntax-ns#"
   xmlns:cc="http://creativecommons.org/ns#"
   xmlns:dc="http://purl.org/dc/elements/1.1/">
  <metadata
     id="metadata76">
    <rdf:RDF>
      <cc:Work
         rdf:about="">
        <dc:format>image/svg+xml</dc:format>
        <dc:type
           rdf:resource="http://purl.org/dc/dcmitype/StillImage" />
      </cc:Work>
    </rdf:RDF>
  </metadata>
  <defs
     id="defs74" />
  <sodipodi:namedview
     pagecolor="#ffffff"
     bordercolor="#666666"
     borderopacity="1"
     objecttolerance="10"
     gridtolerance="10"
     guidetolerance="10"
     inkscape:pageopacity="0"
     inkscape:pageshadow="2"
     inkscape:window-width="1294"
     inkscape:window-height="704"
     id="namedview72"
     showgrid="false"
     inkscape:zoom="0.11523438"
     inkscape:cx="1045.6949"
     inkscape:cy="1028.3389"
     inkscape:window-x="72"
     inkscape:window-y="27"
     inkscape:window-maximized="1"
     inkscape:current-layer="svg70"
     inkscape:pagecheckerboard="0" />
  <g
     id="g50"
     transform="matrix(0.87191673,0,0,0.87191673,105.20112,371.92348)">
    <g
       id="g36">
      <path
         style="color:#000000;display:block;fill:#000000;fill-rule:nonzero"
         d="m 1161,1706 h 170 v 137 h 274 V 1468 L 1383,1297 V 819 L 1553,649 V 444 h 153 V 205 H 341 v 239 h 153 v 205 l 171,170 v 478 l -222,171 v 375 h 273 v -137 h 171 v 137 h 274 z M 1639,376 H 409 V 273 H 1639 Z M 1484,580 H 564 V 444 h 920 z m -170,717 H 734 V 819 h 580 z m 222,239 v 239 h -137 v -137 h -308 v 137 H 956 V 1638 H 649 v 137 H 512 V 1536 Z M 1459,649 1356,751 H 693 L 588,649 Z m -110,716 127,103 H 572 l 128,-103 z"
         display="block"
         id="path54"
         inkscape:connector-curvature="0" />
      <g
         id="g64"
         transform="matrix(1,0,0,-1,0,2048)"
         style="fill:#ffffff;fill-rule:nonzero">
        <path
           style="color:#000000;display:block"
           d="M 1639,1672 H 409 v 103 h 1230 z"
           display="block"
           id="path56"
           inkscape:connector-curvature="0" />
        <path
           style="color:#000000;display:block"
           d="M 1484,1468 H 564 v 136 h 920 z"
           display="block"
           id="path58"
           inkscape:connector-curvature="0" />
        <path
           style="color:#000000;display:block"
           d="M 1314,751 H 734 v 478 h 580 z"
           display="block"
           id="path60"
           inkscape:connector-curvature="0" />
        <path
           style="color:#000000;display:block"
           d="M 1536,512 V 273 H 1399 V 410 H 1091 V 273 H 956 V 410 H 649 V 273 H 512 v 239 z"
           display="block"
           id="path62"
           inkscape:connector-curvature="0" />
      </g>
      <path
         style="color:#000000;display:block;fill:#ffffff;fill-rule:nonzero"
         d="M 1459,649 1356,751 H 693 L 588,649 Z"
         display="block"
         id="path66"
         inkscape:connector-curvature="0" />
      <path
         style="color:#000000;display:block;fill:#ffffff;fill-rule:nonzero"
         d="m 1349,1365 127,103 H 572 l 128,-103 z"
         display="block"
         id="path68"
         inkscape:connector-curvature="0" />
    </g>
    <g
       id="g4350"
       transform="matrix(85.608975,0,0,85.608975,-60633.386,-57814.227)">
      <path
         inkscape:connector-curvature="0"
         style="fill:none;stroke:#000000;stroke-width:2.14639;stroke-linecap:round;stroke-linejoin:miter;stroke-miterlimit:4;stroke-dasharray:none;stroke-opacity:1"
         d="m 713.18437,674.45897 6.8991,-2.52967 6.8991,2.52967"
         id="path3940-9-9" />
      <path
         inkscape:connector-curvature="0"
         id="path3942-8-2"
         d="m 713.18437,674.45897 6.8991,-2.52967 6.8991,2.52967"
         style="fill:none;stroke:#ffffff;stroke-width:0.600988;stroke-linecap:butt;stroke-linejoin:miter;stroke-miterlimit:4;stroke-dasharray:none;stroke-opacity:1" />
    </g>
  </g>
</svg>
