<?xml version="1.0" encoding="UTF-8" standalone="no"?>
<svg
   width="2048"
   height="2048"
   version="1.1"
   id="svg9"
   sodipodi:docname="wX.svg"
   inkscape:version="1.1 (ce6663b3b7, 2021-05-25)"
   xmlns:inkscape="http://www.inkscape.org/namespaces/inkscape"
   xmlns:sodipodi="http://sodipodi.sourceforge.net/DTD/sodipodi-0.dtd"
   xmlns="http://www.w3.org/2000/svg"
   xmlns:svg="http://www.w3.org/2000/svg"
   xmlns:rdf="http://www.w3.org/1999/02/22-rdf-syntax-ns#"
   xmlns:cc="http://creativecommons.org/ns#"
   xmlns:dc="http://purl.org/dc/elements/1.1/">
  <metadata
     id="metadata15">
    <rdf:RDF>
      <cc:Work
         rdf:about="">
        <dc:format>image/svg+xml</dc:format>
        <dc:type
           rdf:resource="http://purl.org/dc/dcmitype/StillImage" />
      </cc:Work>
    </rdf:RDF>
  </metadata>
  <defs
     id="defs13" />
  <sodipodi:namedview
     pagecolor="#ffffff"
     bordercolor="#666666"
     borderopacity="1"
     objecttolerance="10"
     gridtolerance="10"
     guidetolerance="10"
     inkscape:pageopacity="0"
     inkscape:pageshadow="2"
     inkscape:window-width="1294"
     inkscape:window-height="704"
     id="namedview11"
     showgrid="false"
     inkscape:zoom="0.05761719"
     inkscape:cx="-1188.8813"
     inkscape:cy="1674.8474"
     inkscape:window-x="72"
     inkscape:window-y="27"
     inkscape:window-maximized="1"
     inkscape:current-layer="svg9"
     inkscape:pagecheckerboard="0" />
  <g
     id="g152"
     transform="matrix(0.84543818,0,0,0.84543818,169.05311,373.60367)">
    <g
       id="g32">
      <g
         class="layer"
         id="g7">
        <title
           id="title2">Layer 1</title>
        <path
           id="svg_1"
           fill="#000000"
           transform="matrix(1,0,0,-1,0,2048)"
           fill-rule="nonzero"
           d="m 1024,273 h 491 q 21,72 21,141 0,156 -86,283 -86,127 -223,187 -66,5 -66,72 0,53 67,78 93,65 93,172 0,77 -52,135 -52,58 -126,67 -60,5 -60,68 0,28 22,52 54,42 54,110 0,56 -40,96 -40,40 -95,40 -57,0 -96,-40 -39,-40 -40,-96 0,-67 54,-110 22,-22 22,-52 0,-63 -59,-68 -75,-9 -126,-67 -51,-58 -52,-135 0,-107 93,-172 67,-26 67,-78 0,-67 -67,-72 Q 684,824 598,697 512,570 512,414 q 0,-74 21,-141 z m 0,-68 H 484 q -40,100 -40,209 0,185 105,332 105,147 270,210 -71,33 -115,99 -44,66 -45,151 0,105 70,182 70,77 172,89 -81,61 -81,161 0,84 59,144 59,60 145,60 84,0 144,-60 60,-60 60,-144 0,-100 -81,-161 102,-12 172,-89 70,-77 70,-182 0,-84 -45,-150 -45,-66 -116,-100 165,-63 270,-210 105,-147 105,-332 0,-108 -39,-209 z" />
        <path
           id="svg_2"
           fill="#ffffff"
           fill-rule="nonzero"
           d="m 1024,1775 h 491 q 21,-72 21,-141 0,-156 -86,-283 -86,-127 -223,-187 -66,-5 -66,-72 0,-53 67,-78 93,-65 93,-172 0,-77 -52,-135 -52,-58 -126,-67 -60,-5 -60,-68 0,-28 22,-52 54,-42 54,-110 0,-56 -40,-96 -40,-40 -95,-40 -57,0 -96,40 -39,40 -40,96 0,67 54,110 22,22 22,52 0,63 -59,68 -75,9 -126,67 -51,58 -52,135 0,107 93,172 67,26 67,78 0,67 -67,72 -136,60 -222,187 -86,127 -86,283 0,74 21,141 z" />
        <path
           d="m 819.99966,388.28527 c -1.10864,-2.65115 -1.43005,-3.20636 -1.81732,-3.81818 -0.43079,-0.68066 -0.92487,-1.41653 -1.48804,-2.2005 -0.60889,-0.8476 -1.27008,-1.75565 -2.86133,-3.64798 -0.87073,-1.03552 -1.84528,-2.10236 -2.89648,-3.24301 -1.13385,-1.23032 -2.37537,-2.5477 -3.71552,-3.98099 -1.45422,-1.5553 -3.04144,-3.23602 -6.55463,-7.10934 -1.97681,-2.17944 -4.06763,-4.53577 -6.26703,-7.047 -2.3103,-2.63788 -4.69867,-5.40512 -7.14899,-8.289 -2.52118,-2.96729 -5.09711,-6.00662 -10.25067,-12.33066 -2.61664,-3.21088 -5.22595,-6.49396 -7.86749,-9.84302 -2.69867,-3.42151 -5.44696,-6.94714 -8.27252,-10.58099 -2.91949,-3.75473 -5.93329,-7.65588 -12.35999,-15.90933 -3.41547,-4.38628 -6.95422,-8.9063 -10.56299,-13.5345 -3.65521,-4.68777 -7.31976,-9.39703 -10.94104,-14.1015 -3.57062,-4.63864 -7.07538,-9.15788 -13.49597,-17.864 -2.97205,-4.03 -5.71832,-7.89087 -8.29053,-11.57249 -2.44452,-3.49889 -4.73553,-6.86145 -6.91345,-10.08751 -2.09222,-3.09909 -4.07996,-6.11176 -7.96271,-11.84 -1.88171,-2.77608 -3.75427,-5.48759 -5.6145,-8.13901 -1.82922,-2.60718 -3.64941,-5.15764 -5.46149,-7.653 -1.78436,-2.45724 -3.54993,-4.87331 -7.09064,-9.54132 -1.73474,-2.28705 -3.47064,-4.52077 -5.1825,-6.7155 -1.68158,-2.1559 -3.3396,-4.2627 -4.95752,-6.32851 -1.58038,-2.01788 -3.13312,-3.97557 -6.02667,-7.78934 -1.37946,-1.81818 -2.68964,-3.59576 -3.92999,-5.33399 -1.19934,-1.68072 -2.33246,-3.32444 -3.39001,-4.938 -1.02209,-1.55947 -2.00916,-3.07068 -3.67999,-6.06133 -0.7948,-1.42258 -1.50128,-2.83826 -2.1615,-4.2285 -0.6449,-1.35799 -1.23981,-2.70664 -1.81049,-4.0395 -0.5636,-1.3162 -1.09601,-2.63194 -2.1947,-5.232 -0.5498,-1.30115 -1.11273,-2.59476 -1.68146,-3.8775 -0.56335,-1.27058 -1.12866,-2.51943 -1.69055,-3.7425 -0.54913,-1.19524 -1.08734,-2.35553 -2.12799,-4.54666 -0.48743,-1.02637 -0.95947,-2.00164 -1.401,-2.93401 -0.41974,-0.88636 -0.81396,-1.72973 -1.16699,-2.53799 -0.33398,-0.7646 -0.66193,-1.48513 -1.09863,-2.86134 -0.19977,-0.62952 -0.33636,-1.23968 -0.44702,-1.8195 -0.10492,-0.54971 -0.17834,-1.07628 -0.24902,-1.5765 -0.0673,-0.47612 -0.10406,-0.93633 -0.30396,-1.77066 -0.0944,-0.39422 -0.2287,-0.76503 -0.37201,-1.119 -0.13953,-0.34473 -0.2948,-0.67261 -0.44403,-0.993 -0.14545,-0.31228 -0.30652,-0.60992 -0.51733,-1.22134 -0.10205,-0.29589 -0.16907,-0.59618 -0.21899,-0.891 -0.0485,-0.28667 -0.0763,-0.56709 -0.093,-0.837 -0.0159,-0.25748 -0.0202,-0.50133 -0.0214,-0.93867 -4.9e-4,-0.19017 -5.5e-4,-0.36139 0.005,-0.5145 0.005,-0.13624 0.0118,-0.25707 0.0315,-0.3615 0.0173,-0.092 0.0327,-0.18232 0.13068,-0.29067 0.0477,-0.0528 0.11749,-0.0855 0.19049,-0.114 0.0777,-0.0304 0.16376,-0.0523 0.25348,-0.078 0.094,-0.0269 0.19531,-0.0483 0.38934,-0.14133 0.10291,-0.0493 0.20178,-0.11667 0.3045,-0.186 0.10663,-0.072 0.21503,-0.14935 0.33148,-0.222 0.11987,-0.0748 0.24329,-0.15697 0.5307,-0.25867 0.15192,-0.0538 0.31689,-0.0849 0.48596,-0.114 0.1723,-0.0296 0.34753,-0.0515 0.52203,-0.078 0.17285,-0.0262 0.34607,-0.0423 0.65863,-0.14133 0.14832,-0.047 0.28595,-0.11616 0.42303,-0.186 0.14026,-0.0715 0.28375,-0.15067 0.44098,-0.222 0.16809,-0.0763 0.3526,-0.16115 0.80267,-0.25867 0.26227,-0.0568 0.55566,-0.0855 0.87152,-0.1095 0.33618,-0.0256 0.69092,-0.0384 1.06049,-0.0465 0.38141,-0.008 0.77197,-0.01 1.56799,-0.0107 0.40015,-3.4e-4 0.80133,0 1.20453,0 0.40613,0 0.81628,0 1.23145,0 0.4212,0 0.84937,-3.2e-4 1.73071,0 0.45496,1.7e-4 0.92004,-2e-4 1.39496,0.009 0.48511,0.009 0.98041,0.0271 1.48505,0.063 0.51538,0.0367 1.04401,0.0738 2.12,0.26134 0.55768,0.0972 1.12451,0.23282 1.70398,0.39 0.59943,0.1626 1.21448,0.35448 1.84802,0.57 0.65924,0.22427 1.34271,0.46952 2.78131,1.04 0.76727,0.30426 1.56073,0.63686 2.38501,0.9855 0.85577,0.36196 1.74017,0.74325 2.65497,1.1385 0.94519,0.40839 1.91895,0.83327 3.96002,1.70933 1.06439,0.45686 2.16107,0.92152 3.28497,1.4085 1.15613,0.50095 2.34265,1.02319 3.55505,1.5795 1.24774,0.57254 2.53369,1.16103 5.15997,2.512 1.37213,0.70581 2.76324,1.47058 4.18048,2.27551 1.45355,0.82556 2.92798,1.69667 4.42352,2.6085 1.5282,0.9317 3.08209,1.89312 6.22931,3.94933 1.6156,1.05553 3.23999,2.15211 4.88104,3.2715 1.66034,1.13257 3.3288,2.28886 5.00696,3.4605 1.68921,1.17935 3.38171,2.37145 6.77869,4.768 1.69983,1.19923 3.39618,2.39762 5.091,3.5865 1.68658,1.18311 3.36505,2.35431 5.03699,3.5055 1.6554,1.13979 3.29022,2.26878 6.5387,4.408 1.58313,1.04253 3.14508,2.0392 4.66949,2.997 1.47174,0.92471 2.89087,1.79814 4.24646,2.619 1.27759,0.77361 2.47131,1.49071 4.58405,2.71734 0.89435,0.51924 1.68896,0.96973 2.39099,1.3575 0.61285,0.33851 1.14874,0.62532 1.617,0.8625 0.40271,0.20399 0.74957,0.37872 1.32532,0.61333 0.2334,0.0951 0.44122,0.16673 0.62402,0.2145 0.15613,0.0408 0.2926,0.0641 0.40796,0.0615 0.0977,-0.002 0.19232,-0.0127 0.30133,-0.10933 0.0533,-0.0472 0.0855,-0.11752 0.11401,-0.19051 0.0303,-0.0777 0.0523,-0.16378 0.078,-0.25349 0.0269,-0.094 0.0483,-0.1953 0.14136,-0.38934 0.0497,-0.10377 0.12097,-0.20825 0.19946,-0.327 0.0908,-0.13728 0.19836,-0.29673 0.31653,-0.489 0.13855,-0.22553 0.2995,-0.49072 0.65063,-1.184 0.21619,-0.42685 0.44244,-0.91831 0.68555,-1.47 0.26801,-0.60817 0.54779,-1.27835 0.8385,-2.01 0.31323,-0.78824 0.64423,-1.63514 1.30933,-3.52 0.36224,-1.02657 0.72198,-2.11224 1.09045,-3.2475 0.38232,-1.17804 0.76605,-2.39761 1.1535,-3.6525 0.3963,-1.28342 0.79492,-2.59207 1.58936,-5.26666 0.40228,-1.35437 0.80133,-2.72 1.20453,-4.095 0.40613,-1.385 0.81488,-2.78042 1.23145,-4.185 0.4198,-1.41542 0.84082,-2.84263 1.73071,-5.72 0.45032,-1.45618 0.9165,-2.91892 1.38599,-4.3905 0.47186,-1.47909 0.94879,-2.9632 1.422,-4.4535 0.47412,-1.49336 0.9541,-2.98681 1.85864,-5.98933 0.45117,-1.4976 0.88354,-2.99462 1.30054,-4.4865 0.4137,-1.48014 0.80902,-2.94961 1.18347,-4.4055 0.36914,-1.43515 0.72906,-2.84781 1.34937,-5.608 0.29956,-1.33287 0.56592,-2.63854 0.828,-3.9105 0.25525,-1.23871 0.49957,-2.44492 0.75598,-3.6135 0.24908,-1.13507 0.47559,-2.24248 1.08264,-4.30933 0.28955,-0.9857 0.62317,-1.92178 0.97205,-2.811 0.33435,-0.85207 0.68585,-1.65151 1.04395,-2.397 0.3371,-0.70169 0.66272,-1.35289 1.31738,-2.45867 0.28168,-0.47579 0.55511,-0.88977 0.81445,-1.248 0.23071,-0.31871 0.45068,-0.59049 0.6615,-0.816 0.18634,-0.19935 0.35773,-0.37338 0.69067,-0.60267 0.14063,-0.09685 0.27814,-0.1688 0.40955,-0.2055 0.11896,-0.03321 0.23987,-0.03585 0.3465,0.0015 0.11121,0.03895 0.2276,0.11518 0.41064,0.37067 0.11273,0.1573 0.20728,0.36102 0.32251,0.5895 0.13153,0.26081 0.27795,0.55835 0.45752,0.8865 0.20166,0.36848 0.42743,0.78229 1.05328,1.69067 0.36353,0.52759 0.79254,1.08141 1.26154,1.6755 0.50275,0.6368 1.0498,1.30461 1.63049,2.0085 0.61029,0.73983 1.25537,1.50788 2.60797,3.14933 0.71198,0.86404 1.44379,1.76202 2.19452,2.6985 0.77875,0.97145 1.57971,1.98637 2.40149,3.0495 0.85474,1.10578 1.74194,2.25875 3.57068,4.752 0.97137,1.32429 1.9599,2.71151 2.97601,4.1475 1.04535,1.47729 2.10828,2.99764 3.19202,4.5525 1.10364,1.58347 2.21851,3.1953 4.49866,6.46666 1.15356,1.65499 2.31482,3.31571 3.495,4.968 1.17981,1.65173 2.37048,3.28915 3.58496,4.896 1.20563,1.59515 2.39581,3.1812 4.92004,6.13599 1.23303,1.44332 2.50171,2.81114 3.77698,4.12051 1.2478,1.28116 2.50366,2.49554 3.75897,3.64349 1.21979,1.11549 2.41473,2.18547 4.79736,4.06934 1.12189,0.88708 2.23187,1.69363 3.31049,2.4435 1.03241,0.71777 2.03918,1.37619 3.01349,1.9845 0.92957,0.58038 1.82465,1.11858 3.50934,2.072 0.77728,0.4399 1.51813,0.84354 2.22003,1.215 0.6582,0.34834 1.27777,0.66451 1.85999,0.94501 0.53796,0.25919 1.03192,0.50042 1.91998,0.84 0.37726,0.14425 0.72229,0.25057 1.03351,0.3285 0.2771,0.0694 0.52838,0.11395 0.75452,0.1395 0.20306,0.023 0.388,0.0304 0.71198,0.032 0.14532,7.3e-4 0.2829,5e-4 0.414,-0.009 0.12762,-0.009 0.25403,-0.0275 0.37799,-0.063 0.12903,-0.037 0.26672,-0.0854 0.54138,-0.26134 0.16071,-0.10296 0.32758,-0.24139 0.513,-0.4035 0.21228,-0.18555 0.44647,-0.40778 0.711,-0.66451 0.30096,-0.29211 0.63763,-0.62768 1.44263,-1.432 0.47485,-0.47447 0.99738,-0.99733 1.56604,-1.56599 0.61267,-0.61267 1.26733,-1.26734 1.96198,-1.96201 0.73267,-0.73267 1.50134,-1.50134 3.13867,-3.13866 0.86536,-0.86534 1.7627,-1.76268 2.69397,-2.694 0.96735,-0.96735 1.97272,-1.97268 3.01801,-3.018 1.08734,-1.08735 2.21893,-2.21844 4.62134,-4.62134 1.27863,-1.27888 2.62988,-2.6301 4.06952,-4.083 1.55658,-1.57095 3.24609,-3.28898 5.08649,-5.181 2.02295,-2.07968 4.24658,-4.37392 9.34399,-9.736 2.92596,-3.07789 6.03973,-6.38836 9.29553,-9.849 3.33484,-3.54467 6.68225,-7.11063 9.98846,-10.623 3.19751,-3.39692 6.21265,-6.62256 11.54938,-12.19467 2.17334,-2.26921 4.04279,-4.17982 5.62799,-5.7885 1.33252,-1.35226 2.46021,-2.47758 3.396,-3.4395 0.79883,-0.82113 1.51447,-1.53076 2.64264,-2.93867 0.5636,-0.70339 1.08447,-1.46054 1.59601,-2.2305 0.50983,-0.76745 0.98962,-1.53894 1.45203,-2.2935 0.44482,-0.72584 0.84723,-1.42617 1.61865,-2.64267 0.32935,-0.51934 0.63495,-0.96974 0.92401,-1.3485 0.25079,-0.32861 0.48267,-0.59973 0.70801,-0.7995 0.18939,-0.16791 0.36847,-0.3327 0.70129,-0.352 0.14667,-0.0085 0.29425,0.07086 0.41852,0.189 0.14679,0.13955 0.27588,0.3489 0.40948,0.603 0.15674,0.29814 0.31427,0.65612 0.672,1.54133 0.21375,0.529 0.44244,1.12308 0.69,1.7835 0.27271,0.7275 0.56311,1.52791 0.87,2.4045 0.33337,0.95232 0.69098,1.98444 1.44,4.312 0.41595,1.29255 0.84204,2.67498 1.28552,4.1415 0.46735,1.54543 0.94672,3.17011 1.43848,4.8705 0.51202,1.77058 1.03931,3.60962 2.10938,7.488 0.55951,2.02777 1.12061,4.11183 1.69501,6.243 0.58563,2.17282 1.17834,4.38244 1.78497,6.621 0.61334,2.26345 1.22723,4.54758 2.52002,9.136 0.64807,2.30014 1.31146,4.58801 1.98151,6.855 0.66199,2.23965 1.32611,4.43817 1.99048,6.585 0.64673,2.08981 1.27368,4.11269 2.52802,7.89333 0.58167,1.75317 1.15356,3.40543 1.71448,4.959 0.52893,1.46498 1.04681,2.83647 1.56152,4.113 0.48224,1.19596 0.93231,2.31645 1.89063,4.26133 0.42816,0.86893 0.86761,1.6503 1.2915,2.358 0.38892,0.64931 0.76733,1.22779 1.12054,1.746 0.31824,0.4669 0.62366,0.86937 1.08795,1.56267 0.18573,0.27739 0.33002,0.52288 0.44702,0.7335 0.0987,0.17757 0.17432,0.33115 0.24902,0.4545 0.0638,0.10543 0.12195,0.20972 0.30396,0.312 0.10327,0.058 0.23651,0.0855 0.38104,0.10049 0.15704,0.0163 0.32825,0.0107 0.50696,-0.0165 0.18896,-0.0288 0.39148,-0.0664 0.77869,-0.25067 0.20679,-0.0984 0.40912,-0.23763 0.61798,-0.39899 0.22894,-0.17691 0.46753,-0.39027 0.72601,-0.633 0.28717,-0.26969 0.59808,-0.5779 1.32269,-1.30133 0.42023,-0.41956 0.87933,-0.87936 1.37549,-1.38 0.53448,-0.53931 1.10486,-1.11881 1.7085,-1.74 0.64014,-0.65874 1.3161,-1.35488 2.74933,-2.88 0.76758,-0.81677 1.55847,-1.67493 2.37598,-2.56651 0.84393,-0.92039 1.70789,-1.8705 2.59204,-2.8455 0.9032,-0.99599 1.82062,-2.0126 3.69867,-4.088 0.95477,-1.05514 1.91956,-2.1203 2.89948,-3.19051 0.98932,-1.08048 1.9931,-2.16671 3.01648,-3.25349 1.03296,-1.09692 2.07532,-2.20453 4.25067,-4.38934 1.10242,-1.10724 2.23413,-2.20329 3.37653,-3.3045 1.1496,-1.10815 2.31201,-2.21525 3.47552,-3.3315 1.16748,-1.12007 2.34521,-2.23594 4.64794,-4.53067 1.152,-1.14801 2.2847,-2.31539 3.414,-3.486 1.1294,-1.17073 2.2516,-2.34833 3.378,-3.522 1.1263,-1.17366 2.2449,-2.35493 4.5414,-4.65866 1.1473,-1.151 2.3081,-2.27869 3.4724,-3.3825 1.1492,-1.08948 2.2928,-2.14458 3.4275,-3.1575 1.1038,-0.98527 2.1726,-1.93874 4.2667,-3.62667 0.9702,-0.78205 1.9114,-1.48949 2.811,-2.1345 0.8423,-0.60386 1.6424,-1.14418 2.397,-1.6215 0.6932,-0.43842 1.3276,-0.83558 2.4587,-1.41067 0.4653,-0.23659 0.8817,-0.41553 1.248,-0.543 0.3117,-0.10843 0.5838,-0.17735 0.8159,-0.201 0.194,-0.01976 0.3692,-0.0284 0.6027,0.07734 0.098,0.04424 0.1763,0.12757 0.2416,0.2355 0.082,0.1355 0.1555,0.32652 0.2505,0.5685 0.1196,0.3049 0.2575,0.68717 0.6747,1.696 0.2692,0.65125 0.5941,1.39353 0.9569,2.2275 0.3999,0.91938 0.8364,1.91761 1.299,2.9925 0.4922,1.1434 1.0147,2.34841 2.0773,4.94667 0.5611,1.37177 1.122,2.7929 1.6861,4.257 0.5772,1.49854 1.1523,3.03282 1.722,4.599 0.5778,1.58847 1.1583,3.19687 2.2587,6.47733 0.5545,1.65329 1.0888,3.32907 1.6319,5.0265 0.5529,1.72789 1.114,3.49566 1.704,5.3055 0.6079,1.86454 1.23,3.79445 2.6641,7.83467 0.7593,2.13908 1.5736,4.31734 2.4209,6.50249 0.8407,2.1682 1.6894,4.27454 2.5471,6.2775 0.8071,1.88511 1.5068,3.64718 3.032,6.38667 0.5788,1.03983 1.1186,1.84015 1.6754,2.316 0.4246,0.36288 0.9055,0.5074 1.2886,0.372 0.4204,-0.14861 0.8081,-0.56215 1.536,-1.688 0.4381,-0.6776 0.8497,-1.47434 1.3125,-2.3415 0.5041,-0.94471 1.0373,-1.97327 1.6274,-3.0705 0.6314,-1.17395 1.2935,-2.43169 2.8933,-5.088 0.8675,-1.44024 1.8279,-2.92381 2.8695,-4.452 1.0872,-1.59499 2.2613,-3.2261 3.5265,-4.884 1.3107,-1.71733 2.6791,-3.48627 5.7708,-6.99734 1.6159,-1.83516 3.3602,-3.67007 5.2094,-5.544 1.933,-1.95882 4.0087,-3.96764 6.2265,-6.048 2.3414,-2.19634 4.8421,-4.49507 10.3973,-9.408 3.0275,-2.67745 6.2241,-5.44318 9.5296,-8.2905 3.3706,-2.90344 6.7808,-5.81615 10.1865,-8.7135 3.3574,-2.85629 6.6343,-5.63268 12.7839,-10.82933 2.801,-2.36692 5.411,-4.57083 7.8451,-6.612 2.2594,-1.89463 4.3583,-3.64407 6.3149,-5.244 1.8071,-1.47762 3.4676,-2.84967 6.5068,-5.144 1.339,-1.01079 2.594,-1.8974 3.7545,-2.6775 1.0497,-0.7056 2.0104,-1.31144 2.8815,-1.8225 0.7661,-0.44949 1.435,-0.83699 2.5306,-1.33333 0.402,-0.1821 0.7305,-0.30577 0.9945,-0.3525 0.2008,-0.03555 0.3688,-0.0188 0.4814,0.0525 0.1092,0.06904 0.1767,0.19733 0.3575,0.46667 0.1064,0.1586 0.2409,0.32856 0.39,0.5265 0.1711,0.22729 0.3645,0.49132 0.5699,0.8055 0.2353,0.35979 0.501,0.77438 1.0401,1.83467 0.322,0.63338 0.6438,1.3535 0.9719,2.151 0.3553,0.86363 0.7063,1.80338 1.0441,2.817 0.3576,1.07362 0.7264,2.21051 1.3172,4.69867 0.3144,1.32382 0.5729,2.71218 0.8325,4.1475 0.2674,1.47801 0.5193,2.99874 0.7875,4.5525 0.2735,1.58459 0.5312,3.20057 1.2134,6.46667 0.3464,1.6587 0.7469,3.32093 1.1715,4.9905 0.4275,1.68116 0.8859,3.36508 1.3605,5.0535 0.4764,1.69527 0.9702,3.3912 1.968,6.78933 0.4989,1.69927 0.9976,3.39233 1.4955,5.073 0.4928,1.66332 0.9813,3.30269 1.4685,4.911 0.4767,1.57368 0.9383,3.10791 1.8694,6.016 0.4391,1.3717 0.8745,2.68053 1.3049,3.9255 0.4099,1.18564 0.8132,2.30623 1.2151,3.3585 0.3785,0.99129 0.7312,1.92355 1.48,3.54934 0.3323,0.72144 0.6699,1.36883 1.0005,1.94849 0.301,0.52802 0.5961,0.99416 0.8834,1.39951 0.2573,0.36324 0.4928,0.68489 0.9493,1.152 0.1835,0.18772 0.3579,0.3323 0.5191,0.438 0.1384,0.0908 0.2706,0.15202 0.3929,0.186 0.1108,0.0308 0.2187,0.0407 0.4214,0.0427 0.1002,9.8e-4 0.2021,1.1e-4 0.3044,-0.018 0.1073,-0.019 0.2205,-0.0583 0.3316,-0.126 0.1262,-0.0769 0.2653,-0.18421 0.5306,-0.52267 0.1666,-0.21259 0.3289,-0.48297 0.5265,-0.789 0.2278,-0.35268 0.4896,-0.75601 0.8055,-1.203 0.3578,-0.50618 0.764,-1.07651 1.8348,-2.34133 0.6263,-0.73981 1.3457,-1.51669 2.1239,-2.3475 0.8269,-0.88274 1.7086,-1.79908 2.628,-2.75249 0.9498,-0.98494 1.9314,-1.98754 3.9147,-4.06667 1.0034,-1.05191 2.0028,-2.11852 3.009,-3.1905 1.0125,-1.07869 2.0304,-2.1657 3.063,-3.2535 1.0402,-1.09588 2.0846,-2.20452 4.2613,-4.38933 1.1025,-1.10656 2.2311,-2.2011 3.3765,-3.2865 1.1466,-1.08663 2.306,-2.15651 3.4755,-3.2055 1.1616,-1.042 2.3159,-2.07125 4.648,-4.008 1.1369,-0.94411 2.2715,-1.84489 3.396,-2.706 1.0971,-0.84008 2.1809,-1.63645 3.252,-2.382 1.0366,-0.72154 2.0397,-1.41763 4.0187,-2.57867 0.9243,-0.5423 1.8282,-1.01189 2.6925,-1.4295 0.8094,-0.39111 1.5747,-0.72556 2.2874,-1.0065 0.6459,-0.25457 1.224,-0.48334 2.1867,-0.73067 0.3585,-0.09212 0.6565,-0.14838 0.8805,-0.102 0.1832,0.03793 0.3265,0.17619 0.4035,0.366 0.096,0.23591 0.1265,0.55707 0.216,1.40266 0.057,0.53934 0.1194,1.15658 0.2085,1.8465 0.098,0.76218 0.2211,1.59238 0.3795,2.4855 0.17,0.95806 0.3539,1.98043 0.912,4.168 0.3009,1.17933 0.6677,2.3977 1.0575,3.6615 0.4034,1.30828 0.8386,2.65094 1.2826,4.0305 0.4543,1.41144 0.9325,2.84613 1.8266,5.808 0.4549,1.50674 0.8864,3.03596 1.3095,4.581 0.4261,1.55629 0.8391,3.12661 1.2465,4.707 0.409,1.58695 0.8101,3.18112 1.6107,6.37867 0.4005,1.59956 0.7993,3.19753 1.1999,4.791 0.3993,1.58786 0.7986,3.1677 1.2001,4.737 0.3986,1.55804 0.7927,3.10323 1.6,6.13866 0.3961,1.48961 0.7944,2.95013 1.191,4.374 0.3848,1.38145 0.7636,2.71046 1.137,3.978 0.354,1.20173 0.6826,2.33142 1.3386,4.31467 0.2823,0.85369 0.5542,1.61133 0.8191,2.277 0.2347,0.59005 0.4618,1.10358 0.693,1.53899 0.2029,0.38214 0.384,0.7267 0.8213,1.18401 0.1862,0.19478 0.394,0.33678 0.5999,0.438 0.195,0.0958 0.3986,0.15316 0.6,0.186 0.199,0.0324 0.4,0.042 0.8001,0.0427 0.2036,3.6e-4 0.431,-0.006 0.6989,-0.054 0.3383,-0.061 0.7627,-0.18649 1.293,-0.378 0.6702,-0.24206 1.4946,-0.57139 3.6747,-1.568 1.4171,-0.64782 3.0511,-1.44051 4.9126,-2.3715 2.1058,-1.05322 4.4473,-2.26373 7.0275,-3.6405 2.842,-1.51651 5.946,-3.19109 12.8933,-7.15466 3.8895,-2.21906 7.9835,-4.63321 12.2895,-7.12051 4.4499,-2.5703 9.007,-5.17938 13.6665,-7.7235 4.6636,-2.54635 9.2655,-5.13206 18.544,-9.32267 4.3956,-1.9853 8.713,-3.63119 12.8655,-5.0685 3.9332,-1.36141 7.6868,-2.489 11.2185,-3.4395 3.2666,-0.87918 6.274,-1.60926 11.416,-2.65867 2.0856,-0.42564 3.8734,-0.74588 5.3865,-0.9765 1.2594,-0.19196 2.2996,-0.31667 3.1455,-0.3555 0.6759,-0.031 1.2295,-0.0554 1.968,0.16533 0.28,0.0837 0.5012,0.22145 0.657,0.3765 0.1401,0.13953 0.2293,0.30721 0.279,0.4755 0.048,0.16359 0.06,0.33192 0.064,0.648 0,0.14549 0,0.284 0,0.4185 0,0.1335 0,0.269 0,0.4095 0,0.1485 3e-4,0.308 0,0.672 -3e-4,0.21067 -4e-4,0.4454 -0.01,0.708 -0.01,0.29477 -0.029,0.62566 -0.063,0.996 -0.038,0.41507 -0.086,0.87933 -0.2614,1.96267 -0.1023,0.63109 -0.2361,1.31918 -0.3855,2.0655 -0.161,0.80439 -0.3425,1.66391 -0.5384,2.5785 -0.2077,0.96909 -0.4311,1.99059 -0.9093,4.18934 -0.2555,1.17429 -0.5193,2.39513 -0.7996,3.657 -0.2889,1.30082 -0.5917,2.63575 -0.9165,3.999 -0.3315,1.39146 -0.6669,2.80872 -1.4507,5.67733 -0.3987,1.45918 -0.8347,2.93 -1.2944,4.422 -0.4695,1.52406 -0.9716,3.07958 -1.5015,4.674 -0.5462,1.64365 -1.1211,3.33888 -2.3707,6.904 -0.6616,1.8877 -1.3618,3.85163 -2.1121,5.8965 -0.7854,2.14059 -1.6285,4.37799 -2.5439,6.7155 -0.9622,2.45705 -1.981,5.0402 -4.344,10.55467 -1.2742,2.97346 -2.6523,6.04797 -4.101,9.204 -1.4792,3.22279 -3.0112,6.46889 -4.587,9.70799 -1.5682,3.22357 -3.1173,6.40527 -6.312,12.42134 -1.5105,2.84445 -3.0266,5.5379 -4.497,8.11499 -1.4127,2.47609 -2.7976,4.84164 -4.119,7.125 -1.2732,2.20004 -2.5351,4.3051 -4.7174,8.42667 -1.0415,1.96703 -1.9825,3.91573 -2.871,5.82451 -0.866,1.86076 -1.6737,3.69499 -2.457,5.4915 -0.7673,1.75986 -1.4896,3.50052 -3.0052,6.85066 -0.7423,1.6409 -1.5108,3.24519 -2.2815,4.82401 -0.7615,1.55984 -1.5307,3.09286 -2.2906,4.608 -0.7511,1.49753 -1.5083,2.97073 -2.9279,5.90132 -0.6982,1.44099 -1.3659,2.87599 -2.01,4.30051 -0.6359,1.4062 -1.2458,2.80124 -1.8301,4.1835 -0.5756,1.36147 -1.1358,2.7045 -2.1599,5.34933 -0.4981,1.28621 -0.9633,2.55313 -1.4191,3.78749 -0.4428,1.19897 -0.8677,2.36023 -1.293,3.4725 -0.4076,1.06599 -0.7793,2.09109 -1.6213,3.90666 -0.3825,0.82463 -0.7891,1.57663 -1.2045,2.26651 -0.3946,0.6553 -0.8076,1.26083 -1.2316,1.8255 -0.4127,0.54962 -0.8391,1.07426 -1.7305,2.07466 -0.4496,0.50456 -0.9163,1.00104 -1.386,1.5 -0.4717,0.50104 -0.9479,0.99954 -1.422,1.5 -0.4733,0.49954 -0.949,0.99309 -1.8588,2 -0.4487,0.49663 -0.8829,0.99754 -1.3049,1.5 -0.418,0.49759 -0.8233,0.99753 -1.2151,1.5 -0.3881,0.49756 -0.7697,0.99303 -1.48,2 -0.3502,0.49644 -0.6832,0.99823 -1.0139,1.4955 -0.328,0.49339 -0.6506,0.98509 -0.978,1.46851 -0.3254,0.48027 -0.6434,0.96227 -1.3414,1.86934 -0.3474,0.45154 -0.7177,0.88733 -1.095,1.323 -0.3826,0.44171 -0.7806,0.88474 -1.185,1.341 -0.4158,0.46906 -0.8511,0.94806 -1.72,2.00266 -0.4608,0.55933 -0.92,1.15225 -1.3905,1.76251 -0.4803,0.62305 -0.9624,1.25934 -1.4534,1.89749 -0.4926,0.64017 -0.9775,1.28424 -1.9894,2.50665 -0.4932,0.59573 -0.9955,1.16434 -1.491,1.71902 -0.4858,0.54395 -0.9687,1.07147 -1.437,1.59299 -0.459,0.51114 -0.918,1.00507 -1.7387,2.02133 -0.3985,0.49353 -0.7673,0.9967 -1.119,1.5 -0.347,0.49677 -0.6756,0.99817 -0.993,1.5 -0.3152,0.4982 -0.6194,0.99957 -1.2213,2 -0.3006,0.49945 -0.5989,0.99884 -0.9046,1.491 -0.3037,0.48917 -0.6114,0.97064 -0.9315,1.43701 -0.3164,0.461 -0.6268,0.92007 -1.3306,1.73865 -0.3442,0.40048 -0.7171,0.77097 -1.095,1.13702 -0.382,0.37 -0.7815,0.7363 -1.185,1.11899 -0.4167,0.39526 -0.8584,0.79886 -1.72,1.74399 -0.4647,0.50977 -0.9202,1.06723 -1.3815,1.6485 -0.4709,0.59335 -0.9332,1.20407 -1.3905,1.81952 -0.4537,0.61023 -0.891,1.21533 -1.728,2.36533 -0.3902,0.53632 -0.7651,1.04819 -1.128,1.54199 -0.3544,0.48218 -0.7054,0.95789 -1.056,1.43402 -0.3548,0.48187 -0.7188,0.97488 -1.4827,2.02399 -0.4102,0.56326 -0.8341,1.151 -1.272,1.75351 -0.4448,0.61215 -0.893,1.22684 -1.344,1.8345 -0.4437,0.59799 -0.872,1.18298 -1.7173,2.24533 -0.3856,0.48468 -0.7603,0.92862 -1.119,1.3425 -0.3402,0.3927 -0.6725,0.7619 -0.993,1.11749 -0.312,0.34607 -0.625,0.68115 -1.2213,1.37332 -0.3034,0.35208 -0.6017,0.71732 -0.9,1.09052 -0.3017,0.37741 -0.601,0.76291 -0.9001,1.1535 -0.3009,0.39307 -0.6002,0.7905 -1.1999,1.58932 -0.3002,0.39978 -0.5993,0.79919 -0.9,1.1955 -0.2992,0.39435 -0.5985,0.78479 -0.9001,1.16852 -0.2984,0.37994 -0.5931,0.75641 -1.1999,1.46933 -0.2965,0.34833 -0.5992,0.68344 -0.8955,1.01849 -0.2944,0.33298 -0.5874,0.66589 -0.8685,1.00949 -0.2826,0.34543 -0.5726,0.69363 -1.0694,1.47202 -0.2567,0.40222 -0.4858,0.83298 -0.714,1.272 -0.2306,0.44363 -0.451,0.89545 -0.678,1.34399 -0.2257,0.44611 -0.4365,0.89587 -0.9412,1.71732 -0.2441,0.397 -0.5122,0.76553 -0.7815,1.11902 -0.263,0.34515 -0.5315,0.67227 -0.7906,0.99298 -0.2519,0.31195 -0.5105,0.6058 -0.9279,1.22134 -0.1994,0.29395 -0.3677,0.59607 -0.5191,0.89551 -0.1472,0.29138 -0.275,0.58267 -0.3929,0.8685 -0.1146,0.27792 -0.215,0.55219 -0.4214,1.06934 -0.098,0.24588 -0.1987,0.48187 -0.3001,0.7095 -0.099,0.22171 -0.1992,0.43668 -0.2999,0.64648 -0.099,0.20654 -0.1996,0.40961 -0.4,0.81067 -0.1,0.19995 -0.1995,0.39963 -0.3044,0.59549 -0.1044,0.19482 -0.2129,0.38593 -0.3316,0.56851 -0.1177,0.18115 -0.2348,0.36411 -0.5306,0.66934 -0.1476,0.15234 -0.3148,0.28415 -0.4816,0.414 -0.1654,0.12881 -0.333,0.25003 -0.4905,0.37799 -0.1535,0.12479 -0.3161,0.24011 -0.5279,0.54132 -0.1032,0.14682 -0.1699,0.31708 -0.2281,0.49051 -0.059,0.17734 -0.104,0.36404 -0.156,0.5535 -0.053,0.19424 -0.096,0.40012 -0.2827,0.78934 -0.099,0.2056 -0.2324,0.40256 -0.3764,0.60001 -0.1479,0.20267 -0.3105,0.40051 -0.4755,0.60001 -0.1659,0.2005 -0.3403,0.39362 -0.6481,0.79999 -0.1491,0.19699 -0.2838,0.39841 -0.4094,0.60001 -0.1236,0.19846 -0.2379,0.39914 -0.3465,0.60001 -0.1078,0.19916 -0.2099,0.39975 -0.4107,0.79999 -0.1002,0.19971 -0.1993,0.39896 -0.3,0.59549 -0.099,0.19412 -0.1986,0.38437 -0.3,0.56851 -0.099,0.17953 -0.1933,0.35498 -0.4,0.66934 -0.097,0.14722 -0.1979,0.28186 -0.2955,0.40948 -0.093,0.1217 -0.1846,0.2356 -0.2684,0.3465 -0.08,0.10547 -0.1617,0.20331 -0.2695,0.41068 -0.051,0.0973 -0.084,0.19818 -0.114,0.2955 -0.029,0.0934 -0.051,0.1842 -0.078,0.26849 -0.026,0.0794 -0.043,0.1629 -0.1412,0.26935 -0.048,0.0523 -0.1165,0.085 -0.186,0.11398 -0.072,0.0298 -0.1479,0.0515 -0.2221,0.078 -0.073,0.0261 -0.1532,0.0438 -0.2587,0.14133 -0.052,0.0483 -0.086,0.11795 -0.1184,0.19052 -0.035,0.0781 -0.067,0.16479 -0.1095,0.25348 -0.046,0.0951 -0.095,0.20258 -0.2721,0.38934 -0.102,0.10736 -0.2332,0.20184 -0.3719,0.29999 -0.1441,0.10193 -0.2953,0.1991 -0.444,0.30002 -0.146,0.0991 -0.2961,0.18527 -0.5173,0.39999 -0.097,0.094 -0.1683,0.1976 -0.2235,0.29999 -0.053,0.0979 -0.089,0.20001 -0.1245,0.30002 l -0.034,0.10001 -0.034,0.1"
           id="svg_3"
           stroke-width="20"
           stroke="#000000"
           fill="none" />
      </g>
      <path
         style="fill:#f9f9f9;stroke-width:8.67797"
         d="M 767.84243,300.7642 C 680.43596,185.79525 649.11186,142.02836 649.11186,134.87059 c 0,-7.86024 27.12271,5.0296 62.08539,29.50556 32.94292,23.062 40.05211,20.46924 51.85047,-18.91016 l 10.49694,-35.0357 24.07408,26.35774 c 32.9766,36.10475 52.47447,33.30629 92.26287,-13.24215 l 33.84895,-39.599889 10.45527,34.896589 c 5.7504,19.19312 14.60521,37.46139 19.67737,40.59616 5.07216,3.13476 23.69837,-8.43614 41.3916,-25.7131 l 32.1695,-31.41268 10.9987,30.4164 c 6.0493,16.72902 14.4946,30.4164 18.7672,30.4164 4.2727,0 26.0323,-19.52542 48.3546,-43.38983 22.3224,-23.864405 43.654,-43.389828 47.4036,-43.389828 3.7496,0 11.3283,13.667796 16.8414,30.372878 11.5845,35.10123 21.6028,37.56105 48.8242,11.98787 l 19.57,-18.38501 7.5715,29.2192 c 9.6835,37.36992 25.7183,39.9327 77.472,12.38207 23.6954,-12.61406 43.0823,-18.38989 44.7666,-13.33707 8.1969,24.5908 -114.7981,234.13294 -137.4291,234.13294 -3.5958,0 -8.7099,-10.86029 -11.3647,-24.13398 -7.1195,-35.59774 -69.4852,-101.76663 -111.9208,-118.746 -50.8223,-20.33504 -129.175,-18.69981 -175.36391,3.65986 -45.91964,22.22931 -70.78473,48.26821 -95.94657,100.47591 l -19.57954,40.62515 z"
         id="path17"
         inkscape:connector-curvature="0" />
    </g>
    <g
       id="g4350"
       transform="matrix(72.689232,0,0,72.689232,-51342.633,-49059.14)">
      <path
         inkscape:connector-curvature="0"
         style="fill:none;stroke:#000000;stroke-width:2.14639;stroke-linecap:round;stroke-linejoin:miter;stroke-miterlimit:4;stroke-dasharray:none;stroke-opacity:1"
         d="m 713.18437,674.45897 6.8991,-2.52967 6.8991,2.52967"
         id="path3940-9-9" />
      <path
         inkscape:connector-curvature="0"
         id="path3942-8-2"
         d="m 713.18437,674.45897 6.8991,-2.52967 6.8991,2.52967"
         style="fill:none;stroke:#ffffff;stroke-width:0.600988;stroke-linecap:butt;stroke-linejoin:miter;stroke-miterlimit:4;stroke-dasharray:none;stroke-opacity:1" />
    </g>
  </g>
</svg>
