<?xml version="1.0" encoding="UTF-8" standalone="no"?>
<svg
   xmlns:dc="http://purl.org/dc/elements/1.1/"
   xmlns:cc="http://creativecommons.org/ns#"
   xmlns:rdf="http://www.w3.org/1999/02/22-rdf-syntax-ns#"
   xmlns:svg="http://www.w3.org/2000/svg"
   xmlns="http://www.w3.org/2000/svg"
   xmlns:sodipodi="http://sodipodi.sourceforge.net/DTD/sodipodi-0.dtd"
   xmlns:inkscape="http://www.inkscape.org/namespaces/inkscape"
   viewBox="0 0 50 50"
   version="1.1"
   id="svg5"
   sodipodi:docname="bg.svg"
   inkscape:version="0.92.4 5da689c313, 2019-01-14">
  <defs
     id="defs9" />
  <sodipodi:namedview
     pagecolor="#ffffff"
     bordercolor="#666666"
     borderopacity="1"
     objecttolerance="10"
     gridtolerance="10"
     guidetolerance="10"
     inkscape:pageopacity="0"
     inkscape:pageshadow="2"
     inkscape:window-width="1920"
     inkscape:window-height="1060"
     id="namedview7"
     showgrid="false"
     inkscape:zoom="4.72"
     inkscape:cx="25.423729"
     inkscape:cy="25"
     inkscape:window-x="0"
     inkscape:window-y="20"
     inkscape:window-maximized="0"
     inkscape:current-layer="svg5" />
  <path
     d="M 44.294856,2.969 C 44.25495,2.977 44.215044,2.989 44.17885,3 a 0.92990442,1.002 0 0 0 -0.724805,1 c 0,7.152 -4.379461,10.906 -4.379461,10.906 l -0.02877,0.031 c -0.300688,0.04 -0.593951,0.102 -0.870509,0.25 -0.928048,0.399 -2.153073,1.102 -3.450484,2 -0.834315,0.5 -1.762363,1.118 -2.784145,1.72 0,0 -0.08724,-0.009 -0.08724,0.093 -0.558686,0.398 -5.3734,2.805 -11.311053,5.406 0.743366,0.7 1.4691,1.489 2.117806,2.188 1.856097,2.101 2.504802,4.718 1.856097,7.218 -0.743368,2.602 -2.773937,4.68 -5.27874,5.282 -0.464024,0.101 -1.014356,0.218 -1.47838,0.218 -1.762364,0 -3.433779,-0.82 -4.640242,-2.218 L 12.537971,36.5 c 0,1 -0.347091,2.293 -0.811115,3.594 0.464024,0.101 0.742439,0.21 0.928049,0.312 0.369363,0.102 1.833823,0.594 4.059283,0.594 3.806854,0 7.164533,-1.988 9.948679,-4.688 L 25.821126,30.5 c -0.09466,-0.5 0.290479,-1.094 0.754503,-1.094 0.464025,-0.101 1.014358,0.282 1.014358,0.782 l 0.638496,4.5 a 39.68613,42.763 0 0 0 2.870455,-3.626 l 0.725733,0.657 2.900151,6.812 A 0.92526418,0.997 0 0 0 35.971191,39 c 0,0 0.366579,-0.18 0.783273,-0.25 0.417621,-0.07 0.682115,-0.055 0.870509,0.188 a 0.93766965,1.0103673 0 0 0 1.449611,-1.282 C 38.33493,36.699 37.208279,36.621 36.464912,36.75 36.2329,36.79 36.243109,36.844 36.058428,36.906 l -2.609673,-6.218 a 0.94846539,1.022 0 0 0 -0.26171,-0.375 l -0.985587,-0.844 a 66.564266,71.725 0 0 0 1.50808,-2.375 c 0.833387,2.601 1.768859,4.218 3.160932,4.218 1.762363,0 6.874054,-3.511 6.874054,-8.812 0,-1.86 -0.410198,-3.777 -1.160061,-5.219 1.478381,-1.047 4.80729,-3.914 5.509824,-9.125 A 0.93083247,1.003 0 0 0 47.837217,7.277 0.93083247,1.003 0 0 0 47.020534,7 0.92248004,0.994 0 0 0 46.23819,7.844 c -0.652419,4.836 -3.8282,7.23 -4.814716,7.875 C 41.333454,15.637 41.228585,15.57 41.133924,15.5 42.59096,13.805 45.310141,9.883 45.310141,4 A 0.92804833,1 0 0 0 44.294856,2.969 Z M 6.244875,15.063 a 2.7238218,2.935 0 0 0 -1.4783811,0.53 C 3.652836,16.395 3.2574874,17.898 3.7215116,19.5 L 8.1882082,43.406 C 6.8907966,43.008 4.842594,42.895 2.2431306,44.094 1.7791064,44.293 1.5934968,44.906 1.7791064,45.406 1.8728393,45.805 2.2505549,46 2.6199182,46 c 0.094661,0 0.2784145,-0.008 0.4640241,0.094 3.7121934,-1.7 5.8513448,-0.196 5.9450776,-0.094 0.2793426,0.2 0.735942,0.2 1.0152851,0 0.278415,-0.2 0.471448,-0.602 0.376788,-1 L 9.5802806,40.687 c 0,-0.101 0.087236,-0.085 0.087236,-0.187 1.3920724,-3.398 1.4969424,-7.2 1.2176004,-10 0.370291,0.5 0.645922,1 1.015284,1.5 0.928049,1.3 1.682552,2.492 2.6106,3.594 1.112731,1.3 2.678347,1.804 4.349763,1.406 1.761436,-0.398 3.422642,-2.008 3.886666,-3.906 0.464024,-1.801 0,-3.688 -1.392072,-5.188 -2.414782,-2.699 -5.847633,-5.71 -8.816459,-8.312 C 11.146826,18.293 9.8484866,17.086 8.8267054,16.187 8.0146631,15.437 7.1153843,15.035 6.244875,15.062 Z M 39.277827,21 c 0.742439,0 1.392072,0.7 1.392072,1.5 0,0.8 -0.649633,1.5 -1.392072,1.5 -0.742438,0 -1.392073,-0.7 -1.392073,-1.5 0,-0.8 0.649635,-1.5 1.392073,-1.5 z M 4.0119907,31.313 c -0.5586851,0.199 -1.1229385,0.398 -1.6825516,0.5 -0.2784145,0 -0.4528876,0.292 -0.6375693,0.593 -0.094661,0.301 -0.011137,0.7 0.1744731,1 0.093733,0.102 1.304836,1.696 3.1609327,3.094 z m 24.3037303,3.375 c -0.558686,0.601 -1.095098,1.117 -1.653783,1.718 l 0.26171,1.907 c 0,0.199 0.108581,0.398 0.202315,0.5 l 3.886666,5 c 0.278414,0.398 0.761,0.48 1.130363,0.28 0.279342,-0.1 1.283491,-0.491 1.653782,-0.093 0.184682,0.2 0.474232,0.406 0.753575,0.406 0.18561,0 0.4566,-0.117 0.55126,-0.218 0.369364,-0.399 0.4566,-0.977 0.08724,-1.376 C 34.354533,41.711 32.962462,41.699 31.94068,42 l -3.335406,-4.188 z"
     id="surface1"
     inkscape:connector-curvature="0"
     style="stroke-width:0.96335262" />
  <metadata
     id="metadata3">
    <rdf:RDF>
      <rdf:Description
         about="https://iconscout.com/legal#licenses"
         dc:title="grasshopper,filled"
         dc:description="grasshopper,filled"
         dc:publisher="Iconscout"
         dc:date="2017-12-07"
         dc:format="image/svg+xml"
         dc:language="en">
        <dc:creator>
          <rdf:Bag>
            <rdf:li>Icons8</rdf:li>
          </rdf:Bag>
        </dc:creator>
      </rdf:Description>
      <cc:Work
         rdf:about="">
        <dc:format>image/svg+xml</dc:format>
        <dc:type
           rdf:resource="http://purl.org/dc/dcmitype/StillImage" />
      </cc:Work>
    </rdf:RDF>
  </metadata>
</svg>
