<?xml version="1.0" encoding="UTF-8" standalone="no"?>
<svg
   xmlns:dc="http://purl.org/dc/elements/1.1/"
   xmlns:cc="http://creativecommons.org/ns#"
   xmlns:rdf="http://www.w3.org/1999/02/22-rdf-syntax-ns#"
   xmlns:svg="http://www.w3.org/2000/svg"
   xmlns="http://www.w3.org/2000/svg"
   xmlns:sodipodi="http://sodipodi.sourceforge.net/DTD/sodipodi-0.dtd"
   xmlns:inkscape="http://www.inkscape.org/namespaces/inkscape"
   width="60px"
   height="60px"
   viewBox="0 0 60 60"
   version="1.1"
   id="svg16"
   sodipodi:docname="bc.svg"
   inkscape:version="0.92.4 5da689c313, 2019-01-14">
  <sodipodi:namedview
     pagecolor="#ffffff"
     bordercolor="#666666"
     borderopacity="1"
     objecttolerance="10"
     gridtolerance="10"
     guidetolerance="10"
     inkscape:pageopacity="0"
     inkscape:pageshadow="2"
     inkscape:window-width="1920"
     inkscape:window-height="1060"
     id="namedview18"
     showgrid="false"
     inkscape:zoom="15.733333"
     inkscape:cx="30.508475"
     inkscape:cy="30"
     inkscape:window-x="0"
     inkscape:window-y="20"
     inkscape:window-maximized="0"
     inkscape:current-layer="svg16" />
  <title
     id="title2">20 -Camel- (Solid)</title>
  <desc
     id="desc4">Created with Sketch.</desc>
  <defs
     id="defs6" />
  <g
     id="Page-1"
     transform="matrix(0.86016899,0,0,0.8898266,4.5763559,3.8144655)"
     style="fill:none;fill-rule:evenodd;stroke:none;stroke-width:1">
    <g
       id="Icons"
       transform="translate(-1200,-491)"
       style="fill:#000000">
      <g
         id="20--Camel--(Solid)"
         transform="translate(1200,491)">
        <path
           d="m 38,16.0061 c -0.553,0 -1,-0.448 -1,-1 0,-0.552 0.447,-1 1,-1 0.553,0 1,0.448 1,1 0,0.552 -0.447,1 -1,1 m 0,-4 c -1.654,0 -3,1.346 -3,3 0,1.654 1.346,3 3,3 1.654,0 3,-1.346 3,-3 0,-1.654 -1.346,-3 -3,-3"
           id="Fill-129"
           inkscape:connector-curvature="0" />
        <path
           d="m 38,20.0061 c -2.757,0 -5,-2.243 -5,-5 0,-2.757 2.243,-5 5,-5 2.757,0 5,2.243 5,5 0,2.757 -2.243,5 -5,5 z m -2,5 c -1.103,0 -2,0.897 -2,2 0,0.552 -0.447,1 -1,1 -0.553,0 -1,-0.448 -1,-1 0,-2.206 1.794,-4 4,-4 0.553,0 1,0.448 1,1 0,0.552 -0.447,1 -1,1 z m -4,31 c 0,1.103 -0.897,2 -2,2 -1.103,0 -2,-0.897 -2,-2 v -1.402 -2.896 c 0.017,0.005 0.033,0.006 0.05,0.011 0.283,0.081 0.564,0.141 0.844,0.186 0.071,0.013 0.143,0.024 0.214,0.033 0.3,0.04 0.598,0.068 0.892,0.068 0.306,0 0.613,-0.029 0.921,-0.07 0.049,-0.007 0.097,-0.014 0.145,-0.022 0.31,-0.049 0.621,-0.112 0.934,-0.203 v 2.902 z m -9,-32 c 0,-0.552 0.447,-1 1,-1 2.206,0 4,1.794 4,4 0,0.552 -0.447,1 -1,1 -0.553,0 -1,-0.448 -1,-1 0,-1.103 -0.897,-2 -2,-2 -0.553,0 -1,-0.448 -1,-1 z m -1,-4 c -2.757,0 -5,-2.243 -5,-5 0,-2.757 2.243,-5 5,-5 2.757,0 5,2.243 5,5 0,2.757 -2.243,5 -5,5 z m 7.999,18.586 3.288,-3.293 c 0.391,-0.391 1.025,-0.39 1.415,-0.001 0.391,0.391 0.391,1.024 0.001,1.415 L 31,40.4201 v 2.586 c 0,0.552 -0.447,1 -1,1 -0.553,0 -1,-0.448 -1,-1 v -2.585 l -3.712,-3.707 c -0.391,-0.391 -0.391,-1.024 -0.001,-1.415 0.391,-0.391 1.025,-0.39 1.415,-0.001 z m 28.637,-34.03 c -4.956,-2.982 -10.835,-1.168 -15.124,1.07 -0.813,-0.874 -1.718,-1.656 -2.7,-2.333 -6.372,-4.388 -15.268,-4.388 -21.635,10e-4 -0.982,0.677 -1.884,1.457 -2.693,2.325 -4.288,-2.235 -10.166,-4.043 -15.121,-1.061 -0.872,0.525 -1.393,1.473 -1.361,2.475 0.067,2.141 0.775,7.202 5.867,7.956 0.037,0.006 0.074,0.009 0.112,0.011 0.152,0.004 3.268,0.105 6.233,-0.326 -0.172,1.08 -0.263,2.204 -0.273,3.357 -0.031,3.825 0.882,7.683 2.713,11.467 1.394,2.881 2.374,5.313 2.899,7.142 1.59,-2.21 3.447,-5.64 3.447,-9.64 0,-0.552 0.447,-1 1,-1 0.553,0 1,0.448 1,1 0,5.663 -3.149,10.168 -5.006,12.335 l 0.001,1.709 c 0.122,2.762 1.08,11.7 8.005,14.253 v 0.703 c 0,2.206 1.794,4 4,4 2.206,0 4,-1.794 4,-4 v -0.689 c 7.035,-2.534 7.903,-11.507 7.994,-14.311 v -1.146 c -2.137,-2.959 -4.999,-7.851 -4.999,-12.854 0,-0.552 0.447,-1 1,-1 0.553,0 1,0.448 1,1 0,3.538 1.698,7.13 3.39,9.833 0.509,-1.854 1.507,-4.353 2.951,-7.335 1.831,-3.783 2.743,-7.642 2.712,-11.469 -0.01,-1.154 -0.101,-2.278 -0.273,-3.359 2.973,0.435 6.101,0.333 6.253,0.33 0.038,-0.002 0.076,-0.005 0.113,-0.011 5.084,-0.753 5.791,-5.816 5.858,-7.957 0.032,-1.002 -0.49,-1.95 -1.363,-2.476 z"
           id="Fill-131"
           inkscape:connector-curvature="0" />
        <path
           d="m 22,16.0061 c -0.553,0 -1,-0.448 -1,-1 0,-0.552 0.447,-1 1,-1 0.553,0 1,0.448 1,1 0,0.552 -0.447,1 -1,1 m 0,-4 c -1.654,0 -3,1.346 -3,3 0,1.654 1.346,3 3,3 1.654,0 3,-1.346 3,-3 0,-1.654 -1.346,-3 -3,-3"
           id="Fill-134"
           inkscape:connector-curvature="0" />
      </g>
    </g>
  </g>
  <metadata
     id="metadata14">
    <rdf:RDF>
      <rdf:Description
         about="https://iconscout.com/legal#licenses"
         dc:title="camel,animal,wildlife"
         dc:description="camel,animal,wildlife"
         dc:publisher="Iconscout"
         dc:date="2017-07-28"
         dc:format="image/svg+xml"
         dc:language="en">
        <dc:creator>
          <rdf:Bag>
            <rdf:li>Smashicons .</rdf:li>
          </rdf:Bag>
        </dc:creator>
      </rdf:Description>
      <cc:Work
         rdf:about="">
        <dc:format>image/svg+xml</dc:format>
        <dc:type
           rdf:resource="http://purl.org/dc/dcmitype/StillImage" />
      </cc:Work>
    </rdf:RDF>
  </metadata>
  <path
     style="fill:none;stroke:#000000;stroke-width:1px;stroke-linecap:butt;stroke-linejoin:miter;stroke-opacity:1"
     d="m 19.674902,36.42314 0.282725,2.729402"
     id="path155"
     inkscape:connector-curvature="0" />
  <path
     style="fill:none;stroke:#000000;stroke-width:1px;stroke-linecap:butt;stroke-linejoin:miter;stroke-opacity:1"
     d="m 41.034619,36.594877 -0.420212,2.875462"
     id="path157"
     inkscape:connector-curvature="0" />
  <path
     style="fill:#f9f9f9;fill-opacity:1;stroke-width:0.06355932"
     d="m 20.332102,37.602549 c -0.142549,-1.365094 -0.116764,-1.278588 -0.36892,-1.237668 -0.213752,0.03469 -0.217086,0.03198 -0.128535,-0.104254 1.801468,-2.771564 2.673814,-5.213157 2.819183,-7.890563 0.0462,-0.850827 0.116766,-1.057901 0.424468,-1.245518 0.419667,-0.255886 0.980202,-0.07874 1.169004,0.369431 0.08042,0.19091 0.09241,0.385795 0.0617,1.002909 -0.144285,2.898796 -1.15021,5.777877 -2.985716,8.545487 -0.377865,0.569752 -0.699387,1.0221 -0.872522,1.227549 -0.02396,0.02844 -0.07736,-0.271882 -0.118659,-0.667373 z"
     id="path159"
     inkscape:connector-curvature="0" />
  <path
     style="fill:#f9f9f9;fill-opacity:1;stroke-width:0.06355932"
     d="m 29.980798,42.809115 c -0.397085,-0.26527 -0.437947,-0.434655 -0.440515,-1.826064 l -0.0023,-1.239407 -1.678793,-1.729539 c -1.423178,-1.466197 -1.685585,-1.765746 -1.723403,-1.967334 -0.136382,-0.726975 0.615865,-1.29542 1.213777,-0.917206 0.104873,0.06634 0.819916,0.778295 1.588983,1.582127 0.769068,0.803832 1.419628,1.457341 1.445689,1.452241 0.02606,-0.0051 0.680336,-0.667111 1.453944,-1.471136 0.773608,-0.804026 1.481629,-1.511729 1.573379,-1.572675 0.340673,-0.226293 0.860942,-0.08863 1.091002,0.288684 0.139569,0.228901 0.160324,0.640304 0.04284,0.849271 -0.04246,0.07552 -0.81369,0.898568 -1.713849,1.82899 l -1.636653,1.691676 v 1.277915 c 0,1.170311 -0.01079,1.295369 -0.12812,1.485217 -0.13832,0.223807 -0.464117,0.411515 -0.714247,0.411515 -0.08568,0 -0.252968,-0.06492 -0.37175,-0.144275 z"
     id="path161"
     inkscape:connector-curvature="0" />
  <path
     style="fill:#f9f9f9;fill-opacity:1;stroke-width:0.06355932"
     d="m 39.820785,37.887545 c -1.968366,-3.134247 -3.124568,-6.282248 -3.351596,-9.12542 -0.07829,-0.98047 -0.03511,-1.263618 0.233721,-1.532446 0.459949,-0.459949 1.232024,-0.188829 1.360806,0.477858 0.0295,0.152698 0.05488,0.477845 0.05641,0.722548 0.0085,1.366489 0.617315,3.637934 1.478725,5.517379 0.315461,0.688281 1.055954,2.106222 1.23363,2.36223 0.131965,0.190144 0.106651,0.235763 -0.118255,0.213105 l -0.205266,-0.02068 -0.13238,0.936162 c -0.07281,0.51489 -0.148637,0.952421 -0.168507,0.972291 -0.01987,0.01987 -0.19415,-0.215491 -0.387288,-0.523027 z"
     id="path163"
     inkscape:connector-curvature="0" />
  <path
     style="fill:#f9f9f9;fill-opacity:1;stroke-width:0.06355932"
     d="m 27.462057,28.6249 c -0.28005,-0.125879 -0.436051,-0.40908 -0.513764,-0.932681 -0.03598,-0.242421 -0.127563,-0.569138 -0.203517,-0.726038 -0.241731,-0.499348 -0.89989,-0.919571 -1.440245,-0.919571 -0.43009,0 -0.836247,-0.338837 -0.890436,-0.742847 -0.07351,-0.548046 0.311545,-0.972563 0.882565,-0.973017 1.430722,-0.0011 2.761308,1.065834 3.19664,2.563324 0.150423,0.517438 0.157687,1.177507 0.01535,1.39484 -0.234121,0.357473 -0.680197,0.500678 -1.046593,0.33599 z"
     id="path165"
     inkscape:connector-curvature="0" />
  <path
     style="fill:#f9f9f9;fill-opacity:1;stroke-width:0.06355932"
     d="m 32.609506,28.611569 c -0.113394,-0.0559 -0.267429,-0.200756 -0.342299,-0.321898 -0.119282,-0.193003 -0.131972,-0.284461 -0.102548,-0.739075 0.04009,-0.619458 0.247339,-1.210575 0.613434,-1.749675 0.627805,-0.924482 1.803833,-1.537339 2.792688,-1.455335 0.301928,0.02504 0.37678,0.05979 0.560454,0.260214 0.178371,0.194637 0.211948,0.279338 0.211748,0.534157 -4.32e-4,0.554613 -0.361013,0.904715 -0.935221,0.908049 -0.772506,0.0045 -1.606673,0.887543 -1.607013,1.701201 -1.34e-4,0.317464 -0.17588,0.647294 -0.438326,0.82262 -0.253102,0.169083 -0.467586,0.180404 -0.752917,0.03974 z"
     id="path167"
     inkscape:connector-curvature="0" />
  <path
     style="fill:#f9f9f9;fill-opacity:1;stroke-width:0.06355932"
     d="M 22.646187,21.497449 C 21.207078,21.179431 19.956472,20.03262 19.462934,18.57839 19.23281,17.90032 19.182062,16.937489 19.338503,16.217572 c 0.3628,-1.669557 1.640247,-2.986278 3.268173,-3.36865 0.58307,-0.136953 1.611859,-0.08966 2.168748,0.0997 0.946422,0.321814 1.841833,1.043623 2.339308,1.885762 0.811245,1.373296 0.857524,3.020739 0.124572,4.434429 -0.33685,0.649702 -1.096787,1.441777 -1.701168,1.773112 -0.873723,0.478993 -1.990033,0.654826 -2.891949,0.45552 z m 1.767002,-1.809785 c 1.727618,-0.658363 2.254699,-2.979893 0.988448,-4.353614 -1.258088,-1.364864 -3.392449,-1.043127 -4.222573,0.636516 -0.771714,1.561456 0.143425,3.495226 1.819578,3.844931 0.387023,0.08075 1.016483,0.02386 1.414547,-0.127833 z"
     id="path169"
     inkscape:connector-curvature="0" />
  <path
     style="fill:#f9f9f9;fill-opacity:1;stroke-width:0.06355932"
     d="m 23.247862,17.985999 c -0.515308,-0.228387 -0.720897,-0.811722 -0.44535,-1.263633 0.43982,-0.721329 1.52891,-0.385164 1.527759,0.471567 -6.79e-4,0.505129 -0.652922,0.982416 -1.082409,0.792066 z"
     id="path171"
     inkscape:connector-curvature="0" />
  <path
     style="fill:#f9f9f9;fill-opacity:1;stroke-width:0.06355932"
     d="m 36.947034,17.952023 c -0.261028,-0.119369 -0.414703,-0.306398 -0.476353,-0.579743 -0.07383,-0.327351 0.02929,-0.625935 0.297514,-0.861437 0.209832,-0.184234 0.260745,-0.200166 0.550658,-0.172309 0.986181,0.09476 1.013904,1.535868 0.03215,1.671269 -0.11731,0.01618 -0.299096,-0.0098 -0.403969,-0.05778 z"
     id="path173"
     inkscape:connector-curvature="0" />
  <path
     style="fill:#f9f9f9;fill-opacity:1;stroke-width:0.06355932"
     d="m 36.692797,21.557382 c -1.382526,-0.214262 -2.656784,-1.175551 -3.265178,-2.463219 -0.314182,-0.664969 -0.411641,-1.129602 -0.408152,-1.945858 0.0055,-1.291795 0.401451,-2.239213 1.316046,-3.149166 1.33068,-1.323927 3.227923,-1.613759 4.886975,-0.74656 0.544702,0.28472 1.366394,1.073503 1.685613,1.618103 1.463862,2.497409 0.212475,5.742091 -2.531088,6.562777 -0.354014,0.105897 -1.33486,0.178066 -1.684216,0.123923 z m 1.06149,-1.747491 c 0.904714,-0.19196 1.655478,-0.863634 1.963824,-1.756941 0.144473,-0.418556 0.170443,-1.183662 0.05476,-1.61328 -0.203273,-0.754898 -0.734886,-1.390312 -1.444009,-1.725963 -0.392707,-0.185881 -0.481445,-0.202807 -1.064031,-0.202954 -0.583109,-1.46e-4 -0.670972,0.0166 -1.064031,0.202794 -1.069017,0.506399 -1.67433,1.656353 -1.504206,2.857643 0.153248,1.082128 0.941239,1.958653 1.996203,2.220482 0.410926,0.101987 0.64755,0.106048 1.06149,0.01822 z"
     id="path175"
     inkscape:connector-curvature="0" />
  <path
     style="fill:#f9f9f9;fill-opacity:1;stroke-width:0.06355932"
     d="m 29.916247,55.323269 c -0.550664,-0.19678 -0.947877,-0.589398 -1.126505,-1.113474 -0.07026,-0.20615 -0.113888,-4.328439 -0.04581,-4.328439 0.01531,0 0.208371,0.04146 0.429026,0.09213 0.692766,0.15908 1.301344,0.18156 1.990173,0.07351 0.349576,-0.05483 0.701719,-0.118332 0.78254,-0.14111 l 0.146946,-0.04141 -0.01983,2.12179 -0.01983,2.12179 -0.172247,0.326559 c -0.396399,0.751523 -1.257797,1.141189 -1.964472,0.888659 z"
     id="path177"
     inkscape:connector-curvature="0" />
</svg>
