<?xml version="1.0" encoding="UTF-8" standalone="no"?>
<svg
   xmlns:dc="http://purl.org/dc/elements/1.1/"
   xmlns:cc="http://creativecommons.org/ns#"
   xmlns:rdf="http://www.w3.org/1999/02/22-rdf-syntax-ns#"
   xmlns:svg="http://www.w3.org/2000/svg"
   xmlns="http://www.w3.org/2000/svg"
   xmlns:sodipodi="http://sodipodi.sourceforge.net/DTD/sodipodi-0.dtd"
   xmlns:inkscape="http://www.inkscape.org/namespaces/inkscape"
   version="1.1"
   width="45"
   height="45"
   id="svg2"
   sodipodi:docname="bk.svg"
   inkscape:version="0.92.4 5da689c313, 2019-01-14">
  <sodipodi:namedview
     pagecolor="#ffffff"
     bordercolor="#666666"
     borderopacity="1"
     objecttolerance="10"
     gridtolerance="10"
     guidetolerance="10"
     inkscape:pageopacity="0"
     inkscape:pageshadow="2"
     inkscape:window-width="960"
     inkscape:window-height="1060"
     id="namedview19"
     showgrid="false"
     inkscape:zoom="5.2444444"
     inkscape:cx="22.881356"
     inkscape:cy="22.5"
     inkscape:window-x="960"
     inkscape:window-y="20"
     inkscape:window-maximized="0"
     inkscape:current-layer="svg2" />
  <metadata
     id="metadata26">
    <rdf:RDF>
      <cc:Work
         rdf:about="">
        <dc:format>image/svg+xml</dc:format>
        <dc:type
           rdf:resource="http://purl.org/dc/dcmitype/StillImage" />
        <dc:title />
      </cc:Work>
    </rdf:RDF>
  </metadata>
  <defs
     id="defs24" />
  <g
     transform="matrix(0.91130361,0,0,0.68301216,2.0161731,15.113887)"
     style="opacity:1;fill:none;fill-opacity:1;fill-rule:evenodd;stroke:#000000;stroke-width:1.76425695;stroke-linecap:round;stroke-linejoin:round;stroke-miterlimit:4;stroke-dasharray:none;stroke-opacity:1"
     id="g4306">
    <path
       d="m 22,10 c 10.5,1 16.5,8 16,29 H 15 c 0,-9 10,-6.5 8,-21"
       style="fill:#000000;stroke:#000000;stroke-width:1.76425695"
       id="path4308"
       inkscape:connector-curvature="0" />
    <path
       d="m 24,18 c 0.38,2.91 -5.55,7.37 -8,9 -3,2 -2.82,4.34 -5,4 -1.042,-0.94 1.41,-3.04 0,-3 -1,0 0.19,1.23 -1,2 -1,0 -4.003,1 -4,-4 0,-2 6,-12 6,-12 0,0 1.89,-1.9 2,-3.5 -0.73,-0.994 -0.5,-2 -0.5,-3 1,-1 3,2.5 3,2.5 h 2 c 0,0 0.78,-1.992 2.5,-3 1,0 1,3 1,3"
       style="fill:#000000;stroke:#000000;stroke-width:1.76425695"
       id="path4310"
       inkscape:connector-curvature="0" />
    <path
       d="m 9.5,25.5 a 0.5,0.5 0 1 1 -1,0 0.5,0.5 0 1 1 1,0 z"
       style="fill:#ffffff;stroke:#ffffff;stroke-width:1.76425695"
       id="path4312"
       inkscape:connector-curvature="0" />
    <path
       d="m 15,15.5 a 0.5,1.5 0 1 1 -1,0 0.5,1.5 0 1 1 1,0 z"
       transform="matrix(0.866,0.5,-0.5,0.866,9.693,-5.173)"
       style="fill:#ffffff;stroke:#ffffff;stroke-width:1.76425695"
       id="path4314"
       inkscape:connector-curvature="0" />
    <path
       d="M 24.55,10.4 24.1,11.85 24.6,12 c 3.15,1 5.65,2.49 7.9,6.75 2.25,4.26 3.25,10.31 2.75,20.25 l -0.05,0.5 h 2.25 L 37.5,39 C 38,28.94 36.62,22.15 34.25,17.66 31.88,13.17 28.46,11.02 25.06,10.5 Z"
       style="fill:#ffffff;stroke:none"
       id="path4316"
       inkscape:connector-curvature="0" />
  </g>
  <g
     transform="matrix(1,0,0,0.76105014,-61.356226,4.493223)"
     id="g4453">
    <g
       id="g4445">
      <path
         id="path6570"
         style="fill:none;fill-opacity:1;fill-rule:evenodd;stroke:#000000;stroke-width:1.5;stroke-linecap:round;stroke-linejoin:miter;stroke-miterlimit:4;stroke-dasharray:none;stroke-opacity:1"
         d="m 82.499775,5.267496 v -5.63"
         inkscape:connector-curvature="0" />
      <path
         id="path4410"
         style="fill:#000000;fill-opacity:1;fill-rule:evenodd;stroke:#000000;stroke-width:1.5;stroke-linecap:butt;stroke-linejoin:miter;stroke-miterlimit:4;stroke-dasharray:none;stroke-opacity:1"
         d="m 82.499775,18.637496 c 0,0 4.5,-7.5 3,-10.5 0,0 -1,-2.5 -3,-2.5 -2,0 -3,2.5 -3,2.5 -1.5,3 3,10.5 3,10.5"
         inkscape:connector-curvature="0" />
      <path
         id="path4412"
         style="fill:#000000;fill-opacity:1;fill-rule:evenodd;stroke:#000000;stroke-width:1.5;stroke-linecap:round;stroke-linejoin:round;stroke-miterlimit:4;stroke-dasharray:none;stroke-opacity:1"
         d="m 92.499775,23.637496 c 0,0 9.000005,-4.5 6,-10.5 -4,-6.5 -13.5,-3.5 -16,4 v 3.5 -3.5 c -3.5,-7.5 -13,-10.5 -16,-4 -3,6 5,10 5,10 7.216512,-1.348919 14.289707,-1.694619 21,0.5 z"
         inkscape:connector-curvature="0" />
      <path
         id="path4414"
         style="fill:none;fill-opacity:1;fill-rule:evenodd;stroke:#000000;stroke-width:1.5;stroke-linecap:round;stroke-linejoin:miter;stroke-miterlimit:4;stroke-dasharray:none;stroke-opacity:1"
         d="m 79.999775,1.637496 h 5"
         inkscape:connector-curvature="0" />
      <path
         id="path4416"
         style="fill:none;fill-opacity:1;fill-rule:evenodd;stroke:#ffffff;stroke-width:1.5;stroke-linecap:round;stroke-linejoin:round;stroke-miterlimit:4;stroke-dasharray:none;stroke-opacity:1"
         d="m 91.999775,23.137496 c 0,0 8.500005,-4 6.03,-9.65 -3.88,-5.85 -13.03,-1.85 -15.53,4.65 l 0.01,2.1 -0.01,-2.1 c -2.5,-6.5 -12.594,-10.5 -15.503,-4.65 -2.497,5.65 4.853,9 4.853,9"
         inkscape:connector-curvature="0" />
      <path
         id="path4418"
         style="fill:none;fill-opacity:1;fill-rule:evenodd;stroke:#ffffff;stroke-width:1.5;stroke-linecap:round;stroke-linejoin:round;stroke-miterlimit:4;stroke-dasharray:none;stroke-opacity:1"
         d="m 71.9,23.237 c 5.5,-3 15.099775,-2.599504 20.599775,0.400496"
         inkscape:connector-curvature="0" />
    </g>
  </g>
</svg>
