<?xml version="1.0" encoding="UTF-8" standalone="no"?>
<svg
   inkscape:version="1.1 (ce6663b3b7, 2021-05-25)"
   sodipodi:docname="wF.svg"
   id="svg12863"
   version="1.1"
   viewBox="0 0 50 50"
   clip-rule="evenodd"
   fill-rule="evenodd"
   image-rendering="optimizeQuality"
   shape-rendering="geometricPrecision"
   height="177.17"
   width="177.17"
   xmlns:inkscape="http://www.inkscape.org/namespaces/inkscape"
   xmlns:sodipodi="http://sodipodi.sourceforge.net/DTD/sodipodi-0.dtd"
   xmlns:xlink="http://www.w3.org/1999/xlink"
   xmlns="http://www.w3.org/2000/svg"
   xmlns:svg="http://www.w3.org/2000/svg"
   xmlns:rdf="http://www.w3.org/1999/02/22-rdf-syntax-ns#"
   xmlns:cc="http://creativecommons.org/ns#"
   xmlns:dc="http://purl.org/dc/elements/1.1/">
  <metadata
     id="metadata12867">
    <rdf:RDF>
      <cc:Work
         rdf:about="">
        <dc:format>image/svg+xml</dc:format>
        <dc:type
           rdf:resource="http://purl.org/dc/dcmitype/StillImage" />
        <dc:title />
      </cc:Work>
    </rdf:RDF>
  </metadata>
  <sodipodi:namedview
     inkscape:document-rotation="0"
     inkscape:current-layer="svg12863"
     inkscape:window-maximized="1"
     inkscape:window-y="27"
     inkscape:window-x="72"
     inkscape:cy="65.824513"
     inkscape:cx="-41.293639"
     inkscape:zoom="1.2229487"
     showguides="false"
     showgrid="false"
     id="namedview12865"
     inkscape:window-height="704"
     inkscape:window-width="1294"
     inkscape:pageshadow="2"
     inkscape:pageopacity="0"
     guidetolerance="10"
     gridtolerance="10"
     objecttolerance="10"
     borderopacity="1"
     bordercolor="#666666"
     pagecolor="#ffffff"
     inkscape:pagecheckerboard="0" />
  <defs
     id="defs12857">
    <linearGradient
       gradientUnits="userSpaceOnUse"
       x2="77.64"
       x1="21.405"
       id="0">
      <stop
         id="stop12852"
         stop-color="#fff" />
      <stop
         id="stop12854"
         stop-opacity="0"
         stop-color="#fff"
         offset="1" />
    </linearGradient>
    <clipPath
       id="clipPath5191"
       clipPathUnits="userSpaceOnUse">
      <rect
         clip-path="none"
         y="4.0289068"
         x="7.2068729"
         height="15.671"
         width="35.162529"
         id="rect5193"
         style="opacity:1;fill:#d40000;fill-opacity:1;stroke:#000000;stroke-width:0.2045171;stroke-linecap:square;stroke-linejoin:miter;stroke-miterlimit:4;stroke-dasharray:none;stroke-opacity:1;paint-order:normal" />
    </clipPath>
    <linearGradient
       gradientUnits="userSpaceOnUse"
       x2="77.639999"
       x1="21.375999"
       id="0-2">
      <stop
         id="stop4571"
         stop-color="#fff" />
      <stop
         id="stop4573"
         stop-opacity="0"
         stop-color="#fff"
         offset="1" />
    </linearGradient>
    <linearGradient
       id="0-1"
       x1="21.253"
       y1="37.220001"
       x2="77.639999"
       y2="37.349998"
       gradientUnits="userSpaceOnUse"
       xlink:href="#linearGradient9464">
      <stop
         stop-color="#fff"
         id="stop7734"
         style="stop-color:#f3c926;stop-opacity:1" />
      <stop
         offset="1"
         stop-color="#fff"
         stop-opacity="0"
         id="stop7736" />
    </linearGradient>
    <linearGradient
       inkscape:collect="always"
       id="linearGradient9464">
      <stop
         id="stop9462"
         offset="0"
         style="stop-color:#806600;stop-opacity:1" />
      <stop
         id="stop9460"
         offset="1"
         style="stop-color:#ffd42a;stop-opacity:1" />
    </linearGradient>
    <linearGradient
       id="0-6"
       x1="21.405001"
       x2="77.639999"
       gradientUnits="userSpaceOnUse"
       gradientTransform="translate(-45.398691,6.7749784)">
      <stop
         stop-color="#fff"
         id="stop3197" />
      <stop
         offset="1"
         stop-color="#fff"
         stop-opacity="0"
         id="stop3199" />
    </linearGradient>
  </defs>
  <path
     fill="url(#0)"
     d="m -2.4226917,51.46798 c -0.01699,0 0,-0.449001 0.042,-1.346001 0.051,-0.906 0.076,-1.879999 0.076,-2.920999 0.01699,-2.066002 0.01699,-4.2 0,-6.409 -0.01699,-2.210001 -0.313001,-4.411001 -0.889002,-6.613001 -0.566997,-2.117 -1.185,-3.92 -1.862998,-5.419 -0.677,-1.499 -1.414001,-2.786 -2.209999,-3.878 -1.185001,-1.786 -2.8110013,-3.302 -4.8600023,-4.538 -2.049,-1.245 -4.191,-2.057001 -6.426,-2.438001 0.152,0.813001 0.22,1.609 0.203,2.388001 -0.034,0.593 -0.313,0.888999 -0.847,0.888999 -0.61,0 -0.881,-0.295999 -0.821,-0.888999 0.051,-2.184001 -0.728,-4.056001 -2.328,-5.605 -1.252998,1.320999 -1.938998,2.852999 -2.031998,4.605999 -0.034,0.584001 -0.33,0.838 -0.897,0.771 -0.525,-0.017 -0.787,-0.321999 -0.787,-0.914 0,0 0.017,-0.068 0.042,-0.202999 -0.677,0.22 -1.389,0.525 -2.134,0.922999 -0.474,0.330001 -0.864,0.245001 -1.16,-0.246 -0.296,-0.499 -0.169,-0.889 0.398,-1.168 0.711,-0.363999 1.245,-0.635 1.609,-0.821 -1.422,-1.456 -3.04,-2.625 -4.86,-3.522 0.195,2.303 0.83,4.47 1.888,6.528 0.279,0.423 0.212,0.804001 -0.203,1.135001 -0.466,0.364 -0.855,0.313 -1.168,-0.169 -0.11,-0.169001 -0.278999,-0.466001 -0.490999,-0.897 -0.347001,0.347 -0.584001,0.61 -0.694001,0.77 -0.118,0.152 -0.322,0.483 -0.61,0.991 -0.288,0.516 -0.498999,0.94 -0.635,1.27 -0.143999,0.415 -0.212,0.745 -0.186,1.01 0.025,0.254 0.051,0.533 0.068,0.855 -0.152,0.974 -0.490999,1.888 -1.01,2.752 -0.525,0.855 -1.185,1.905 -1.998,3.15 -0.779,1.185 -1.372,2.083 -1.786,2.675 -0.415,0.601 -0.728,1.355 -0.94,2.286 -0.152,0.559 -0.152,1.245 0,2.041 0.144,0.804 0.474,1.431 0.965,1.880001 0.762,0.77 1.499,1.126 2.21,1.067 0.229,0 0.542,-0.093 0.931,-0.279 0.389,-0.178001 0.686,-0.525001 0.906,-1.041 0.423,-0.940001 0.779,-1.414001 1.067,-1.414001 0.406,0 0.635,0.237 0.669001,0.694 0,0.102 -0.136001,0.517001 -0.398001,1.244999 -0.151999,0.33 -0.346999,0.677 -0.593,1.041001 -0.322,0.432 -0.457,0.610001 -0.423,0.541999 0.262,0.948002 0.703,1.109002 1.312,0.499001 0.178,-0.177999 0.389,-0.524999 0.618,-1.015999 0.237001,-0.499001 0.601,-1.168 1.092,-2.010001 0.584,-0.982 1.202,-1.77 1.863,-2.388 0.66,-0.61 1.245,-1.109 1.761,-1.482 0.296,-0.22 0.66,-0.466 1.092,-0.745 0.432,-0.288 1.01,-0.576 1.736,-0.872 0.576,-0.229 1.219,-0.516 1.922,-0.855 0.703,-0.339 1.329,-0.77 1.871,-1.304 0.762,-0.745 1.346,-1.659 1.761,-2.752 0.22,-0.61 0.296,-1.363 0.245,-2.261 -0.144,-0.559 0.136,-0.838 0.847,-0.838 0.533,0 0.83,0.271 0.898,0.821 0,1.863 -0.533,3.564 -1.592,5.105 0.347,1.058 0.44,2.218 0.271,3.471 -0.144,1.01 -0.5,2.091 -1.05,3.243 -0.559,1.143001 -1.676,2.421999 -3.361,3.827 -3.429,2.844999 -5.05,5.773999 -4.86,8.779999 0,0 1.405,0 4.225,0 2.819,0 5.47,0 7.95,0 H -2.4246897 M -36.062691,36.389979 c -0.483,0.296 -0.77,0.694 -0.872,1.194 0.017,0.542 -0.237,0.838 -0.762,0.889 -0.584,0.068 -0.881,-0.178 -0.898,-0.745 0.068,-1.092 0.55,-1.956 1.465,-2.599 0.432,-0.347 0.83,-0.322 1.194,0.093 0.364,0.449 0.322001,0.838 -0.127,1.168 m 7.366,-11.828 c 0.212,0.33 0.296,0.677 0.246,1.041 -0.161,1.058 -0.754,1.499 -1.761,1.338 -0.296,-0.051 -0.533,-0.152 -0.72,-0.296 -0.059,0.076 -0.161,0.262 -0.296,0.542 -0.178,0.533 -0.525,0.711 -1.040999,0.55 -0.508001,-0.203 -0.711001,-0.576 -0.593001,-1.118 0.745,-1.905 2.091,-3.209 4.04,-3.92 0.567,-0.169 0.94,0 1.118,0.491 0.203,0.533 0.051,0.898 -0.449,1.092 -0.093,0.051 -0.186,0.102 -0.271,0.136 -0.085,0.042 -0.169,0.093 -0.271,0.144"
     id="path3206"
     style="fill:url(#0-6);stroke-width:1" />
  <g
     style="display:inline;fill:#ffffff"
     id="F"
     transform="matrix(0.74647231,0,0,0.82124461,-542.43561,208.71669)"
     inkscape:label="">
    <path
       style="color:#000000;display:inline;overflow:visible;visibility:visible;fill:#ffffff;fill-opacity:1;fill-rule:nonzero;stroke:#000000;stroke-width:1.96602;stroke-linecap:round;stroke-linejoin:miter;stroke-miterlimit:4;stroke-dasharray:none;stroke-opacity:1;marker:none;enable-background:accumulate"
       id="path517"
       transform="matrix(1.2993827,0,0,1.0208333,-225.06109,4.3670728)"
       inkscape:connector-curvature="0"
       d="m 778.01692,-203.72171 c 0,3.25726 -8.91179,5.89779 -19.90504,5.89779 -10.99326,0 -19.90505,-2.64053 -19.90505,-5.89779 0.0946,-3.73126 2.33706,-4.90002 2.17488,-7.58289 -0.13529,-2.23801 -3.26235,-4.39325 -2.55314,-5.89779 0.47663,-1.01113 8.04288,-6.26251 13.49965,-11.20564 2.66281,-2.41216 4.8233,-4.75092 5.41251,-6.48773 h 2.93138 c 1.60753,5.41634 17.68286,15.52683 18.34479,16.97119 0.66193,1.44436 -2.13164,4.22877 -2.17489,6.61997 -0.0486,2.6901 2.17491,3.61091 2.17491,7.58289 z"
       sodipodi:nodetypes="sscsssccscs" />
    <path
       style="color:#000000;display:inline;overflow:visible;visibility:visible;fill:#ffffff;fill-opacity:1;fill-rule:nonzero;stroke:#000000;stroke-width:1.81144;stroke-linecap:round;stroke-linejoin:miter;stroke-miterlimit:4;stroke-dasharray:none;stroke-opacity:1;marker:none;enable-background:accumulate"
       id="path519"
       inkscape:connector-curvature="0"
       d="m 741.28937,-214.05418 c 3.78276,-1.64916 10.3791,-2.56894 18.72697,-2.56894 8.76814,0 15.20178,1.14205 18.93874,2.93056" />
    <path
       style="color:#000000;display:inline;overflow:visible;visibility:visible;fill:#ffffff;fill-opacity:1;fill-rule:nonzero;stroke:#000000;stroke-width:1.96602;stroke-linecap:round;stroke-linejoin:miter;stroke-miterlimit:4;stroke-dasharray:none;stroke-opacity:1;marker:none;enable-background:accumulate"
       id="path521"
       transform="matrix(1.2993827,0,0,1.0208333,-225.06109,4.3670728)"
       inkscape:connector-curvature="0"
       d="m 738.20683,-203.72171 c 0,-3.25726 8.91179,-5.89779 19.90505,-5.89779 10.99325,0 19.90504,2.64053 19.90504,5.89779" />
    <path
       style="color:#000000;display:inline;overflow:visible;visibility:visible;fill:#ffffff;fill-opacity:1;fill-rule:nonzero;stroke:#000000;stroke-width:2.2643;stroke-linecap:round;stroke-linejoin:miter;stroke-miterlimit:4;stroke-dasharray:none;stroke-opacity:1;marker:none;enable-background:accumulate"
       id="path523"
       inkscape:connector-curvature="0"
       d="m 739.72049,-221.47874 c 4.86123,-1.31334 12.14742,-2.14801 20.29168,-2.14801 8.34275,0 15.78508,0.87585 20.64276,2.24489" />
    <path
       style="color:#000000;display:inline;overflow:visible;visibility:visible;fill:#ffffff;fill-opacity:1;fill-rule:nonzero;stroke:#000000;stroke-width:2.2643;stroke-linecap:round;stroke-linejoin:miter;stroke-miterlimit:4;stroke-dasharray:none;stroke-opacity:1;marker:none;enable-background:accumulate"
       id="path529"
       transform="translate(-0.67579834)"
       d="m 766.22133,-240.82864 a 5.77492,5.77492 0 1 1 -11.54984,0 5.77492,5.77492 0 1 1 11.54984,0 z"
       inkscape:connector-curvature="0" />
  </g>
</svg>
