<?xml version="1.0" encoding="UTF-8" standalone="no"?>
<svg
   xmlns:dc="http://purl.org/dc/elements/1.1/"
   xmlns:cc="http://creativecommons.org/ns#"
   xmlns:rdf="http://www.w3.org/1999/02/22-rdf-syntax-ns#"
   xmlns:svg="http://www.w3.org/2000/svg"
   xmlns="http://www.w3.org/2000/svg"
   xmlns:sodipodi="http://sodipodi.sourceforge.net/DTD/sodipodi-0.dtd"
   xmlns:inkscape="http://www.inkscape.org/namespaces/inkscape"
   viewBox="0 0 50 50"
   version="1.1"
   id="svg5"
   sodipodi:docname="wg.svg"
   inkscape:version="0.92.4 5da689c313, 2019-01-14">
  <defs
     id="defs9" />
  <sodipodi:namedview
     pagecolor="#ffffff"
     bordercolor="#666666"
     borderopacity="1"
     objecttolerance="10"
     gridtolerance="10"
     guidetolerance="10"
     inkscape:pageopacity="0"
     inkscape:pageshadow="2"
     inkscape:window-width="1920"
     inkscape:window-height="1060"
     id="namedview7"
     showgrid="false"
     inkscape:zoom="13.350176"
     inkscape:cx="25.423729"
     inkscape:cy="16.525424"
     inkscape:window-x="0"
     inkscape:window-y="20"
     inkscape:window-maximized="0"
     inkscape:current-layer="svg5" />
  <path
     d="m 44.169457,2.969 c -0.039,0.008 -0.078,0.02 -0.113375,0.031 a 0.90881838,1.002 0 0 0 -0.70837,1 c 0,6.996 -4.04524,10.684 -4.223013,10.844 a 2.9967425,3.304 0 0 0 -0.992263,0.219 0.42266404,0.466 0 0 0 -0.05714,0.03 c -1.576374,0.762 -3.528247,2.145 -6.037022,3.626 -0.039,0.02 -0.078,0.039 -0.113375,0.062 0.05352,-0.043 -0.535132,0.348 -1.303365,0.75 -0.76914,0.403 -1.804032,0.926 -3.033022,1.532 a 354.7022,391.07 0 0 1 -8.417909,3.968 c -3.38313,-3.3 -7.391182,-6.738 -9.6088074,-8.875 -0.609507,-0.582 -1.3069933,-0.945 -1.9845255,-1.062 a 2.8643198,3.158 0 0 0 -1.8983602,0.375 c -1.0911263,0.703 -1.5482565,2.304 -1.1056384,3.937 h -0.028117 l 0.028117,0.125 2.0407599,11.157 C 5.6707498,31.016 4.3220343,31.5 3.2690023,31.718 a 0.91607441,1.01 0 0 0 -0.6938584,0.641 c -0.1097476,0.336 -0.049885,0.711 0.1560047,0.985 0,0 2.2176258,3.058 5.186251,4.5 l 1.0203799,5.593 C 8.7436807,43.371 8.7962869,43.332 8.5695358,43.281 7.2589145,42.996 5.3596473,43.02 3.0712753,44.094 a 0.90881838,1.002 0 0 0 -0.2303791,1.789 c 0.2902414,0.21 0.6657412,0.222 0.9668666,0.023 1.9736415,-0.926 3.4438956,-0.902 4.4216464,-0.687 0.9777506,0.215 1.3895306,0.593 1.3895306,0.593 a 0.90791138,1.001 0 0 0 1.4176482,-1 L 10.241145,40.5 a 0.76369769,0.842 0 0 0 0.08526,-0.188 c 1.491115,-3.593 1.473882,-7.207 1.161872,-10.03 1.193618,1.796 2.473401,3.816 3.5999,5.187 h 0.02812 c 0.970494,1.16 2.24937,1.668 3.458407,1.593 1.20813,-0.074 2.35549,-0.671 3.23075,-1.562 0.875259,-0.89 1.492022,-2.11 1.587257,-3.5 0.09523,-1.39 -0.382755,-2.895 -1.531023,-4.188 v -0.03 C 21.483464,27.363 21.065335,26.934 20.643578,26.5 a 347.58494,383.223 0 0 0 7.680513,-3.625 c 1.240782,-0.61 2.300163,-1.148 3.090164,-1.563 0.732859,-0.382 1.119244,-0.582 1.473882,-0.843 l 0.113376,-0.063 c 2.490634,-1.476 4.481508,-2.836 5.782152,-3.468 0.382757,-0.165 0.633997,-0.153 0.935122,0 0.301125,0.152 0.62674,0.488 0.935122,1 0.613135,1.027 1.049404,2.746 1.049404,4.468 0,2.047 -0.97503,3.746 -2.155043,4.969 a 8.5621213,9.44 0 0 1 -1.756868,1.406 c -0.527876,0.313 -1.016751,0.407 -0.964145,0.407 -0.0381,0 -0.08798,0.011 -0.226751,-0.125 -0.137865,-0.137 -0.31473,-0.426 -0.509736,-0.844 -0.393641,-0.836 -0.818119,-2.16 -1.219014,-3.782 a 0.90881838,1.002 0 0 0 -1.643493,-0.28 c -0.741021,1.273 -2.476121,4.655 -5.045665,7.905 l -0.253961,-1.905 a 0.90700437,1 0 0 0 -0.964146,-0.875 0.9142604,1.008 0 0 0 -0.658484,0.367 c -0.163262,0.223 -0.23038,0.508 -0.191378,0.79 l 0.481619,3.468 C 23.956865,36.734 20.73972,39 17.129843,39 c -2.12239,0 -3.401266,-0.531 -3.401266,-0.531 a 0.90156235,0.994 0 0 0 -0.928773,0.14 0.90246935,0.995 0 0 0 -0.321987,0.97 0.90700437,1 0 0 0 0.62674,0.765 c 0,0 1.612655,0.656 4.025286,0.656 3.825745,0 7.124519,-2.07 9.806531,-4.688 l 0.283893,1.938 a 0.90428336,0.997 0 0 0 0.197727,0.5 l 3.798534,5 A 0.90700437,1 0 0 0 32.322167,44 c 0,0 0.357359,-0.18 0.764604,-0.25 0.408152,-0.07 0.666649,-0.055 0.85077,0.188 0.202262,0.3 0.535133,0.449 0.868004,0.394 a 0.90881838,1.002 0 0 0 0.52062,-1.676 c -0.722883,-0.957 -1.795869,-1.035 -2.522379,-0.906 -0.332871,0.059 -0.371872,0.129 -0.594995,0.219 l -3.231657,-4.282 -0.424478,-3.093 c 0.180494,-0.207 0.364616,-0.414 0.537853,-0.625 a 34.597682,38.145 0 0 0 2.154136,-2.907 l 0.737394,0.657 2.834389,6.812 A 0.90428336,0.997 0 0 0 36.034536,39 c 0,0 0.358266,-0.18 0.765511,-0.25 0.408152,-0.07 0.666648,-0.055 0.85077,0.188 a 0.91640761,1.0103674 0 0 0 1.416741,-1.282 c -0.722883,-0.957 -1.823986,-1.035 -2.550496,-0.906 -0.226752,0.04 -0.216775,0.094 -0.397269,0.156 l -2.550495,-6.218 a 0.92695847,1.022 0 0 0 -0.255776,-0.375 l -0.991355,-0.875 a 58.955284,65 0 0 0 1.444858,-2.47 c 0.226751,0.743 0.439896,1.618 0.709277,2.188 0.258496,0.547 0.535132,0.996 0.907004,1.375 0.371872,0.38 0.896121,0.657 1.444858,0.657 0.64488,0 1.141011,-0.258 1.814008,-0.657 0.673905,-0.398 1.442138,-0.949 2.155043,-1.687 1.427625,-1.477 2.721013,-3.684 2.721013,-6.438 0,-1.86 -0.36915,-3.676 -1.077521,-5.093 1.396787,-0.989 4.740912,-3.836 5.442026,-9.157 A 0.90972539,1.003 0 0 0 47.631493,7.277 0.90972539,1.003 0 0 0 46.833329,7 0.90156235,0.994 0 0 0 46.068725,7.844 c -0.652137,4.945 -3.882886,7.332 -4.761773,7.906 -0.07801,-0.074 -0.145121,-0.152 -0.226751,-0.219 C 42.504198,13.844 45.16172,9.902 45.16172,4 A 0.90700437,1 0 0 0 44.169457,2.969 Z M 6.9260438,17.063 a 1.1428255,1.26 0 0 1 0.396361,0 c 0.3011254,0.054 0.6621132,0.226 1.0494041,0.593 2.3056051,2.227 6.3345181,5.684 9.6369211,8.907 0.0027,0.003 -0.0036,0.027 0,0.03 0.102492,0.31 0.335592,0.544 0.623112,0.626 0.0036,0.004 0.02449,-0.004 0.02812,0 0.676626,0.676 1.325133,1.336 1.899268,1.968 l 0.02812,0.032 c 0.822654,0.941 1.045776,1.828 0.992263,2.625 -0.05714,0.808 -0.435362,1.59 -1.020379,2.187 -0.585019,0.598 -1.364135,0.985 -2.097902,1.032 -0.732859,0.046 -1.395879,-0.2 -2.011735,-0.938 -1.633515,-1.988 -3.018511,-4.594 -5.782154,-8.25 a 0.90881838,1.002 0 0 0 -1.1020097,-0.223 0.90972539,1.003 0 0 0 -0.4571301,1.13 c 0,0 1.0974748,4.75 0.3682438,9.437 L 8.5695358,31.312 8.5414187,31.125 A 0.79725684,0.879 0 0 0 8.5133015,31.031 L 6.330142,19 A 1.0602881,1.169 0 0 0 6.302932,18.875 C 5.9945506,17.852 6.259396,17.415 6.6140346,17.187 6.7029206,17.129 6.8090405,17.086 6.926044,17.062 Z M 39.266192,21 a 1.3605066,1.5 0 1 0 0,3 1.3605066,1.5 0 0 0 0,-3 z M 6.9822782,32.656 7.4357803,35.281 C 6.5251479,34.633 5.7532872,33.867 5.1682694,33.219 c 0.7265105,-0.23 1.254387,-0.387 1.8140088,-0.563 z"
     id="surface1"
     inkscape:connector-curvature="0"
     style="stroke-width:0.95236772" />
  <metadata
     id="metadata3">
    <rdf:RDF>
      <rdf:Description
         about="https://iconscout.com/legal#licenses"
         dc:title="grasshopper"
         dc:description="grasshopper"
         dc:publisher="Iconscout"
         dc:date="2017-12-07"
         dc:format="image/svg+xml"
         dc:language="en">
        <dc:creator>
          <rdf:Bag>
            <rdf:li>Icons8</rdf:li>
          </rdf:Bag>
        </dc:creator>
      </rdf:Description>
      <cc:Work
         rdf:about="">
        <dc:format>image/svg+xml</dc:format>
        <dc:type
           rdf:resource="http://purl.org/dc/dcmitype/StillImage" />
      </cc:Work>
    </rdf:RDF>
  </metadata>
  <path
     style="fill:none;stroke:#000000;stroke-width:1px;stroke-linecap:butt;stroke-linejoin:miter;stroke-opacity:1"
     d="m 10.636564,38.239855 2.771499,0.97377"
     id="path3714"
     inkscape:connector-curvature="0" />
  <path
     style="fill:#ffffff;stroke-width:0.07490538"
     d="M 9.4282062,35.706757 C 9.4004237,35.603762 9.1574452,34.32288 8.8882538,32.860352 6.7879337,21.449228 6.2770446,18.603697 6.2512103,18.172642 c -0.026664,-0.44489 -0.010439,-0.515858 0.1658173,-0.725327 0.2605208,-0.309611 0.6164186,-0.424266 0.9980092,-0.321514 0.3775669,0.101668 0.7138949,0.350816 1.5894328,1.177431 0.3913807,0.369511 1.8745074,1.727979 3.2958364,3.018817 3.728874,3.386527 5.539455,5.093803 5.741576,5.413985 0.09741,0.1543 0.305546,0.36163 0.462534,0.460732 0.379865,0.239798 2.04541,1.993217 2.410207,2.53737 0.487476,0.727144 0.61762,1.174458 0.585108,2.011038 -0.02529,0.650682 -0.05482,0.774298 -0.30668,1.283914 -0.683466,1.382899 -2.178458,2.227572 -3.4168,1.930498 -0.876762,-0.210331 -1.320944,-0.726436 -3.805365,-4.421532 -2.18879,-3.255404 -3.317486,-4.809981 -3.578672,-4.928985 -0.388669,-0.17709 -0.7061209,-0.114544 -1.0220299,0.201365 -0.3585676,0.358567 -0.3664532,0.505509 -0.1092972,2.036644 0.099832,0.594408 0.2262343,1.485231 0.2808951,1.979606 0.1807463,1.634745 0.084559,6.614595 -0.1135758,5.880073 z"
     id="path3716"
     inkscape:connector-curvature="0" />
  <path
     style="fill:#ffffff;stroke-width:0.07490538"
     d="m 15.671048,38.879161 c -0.667128,-0.100195 -1.16413,-0.208373 -1.711624,-0.372553 -0.493101,-0.147868 -0.67108,-0.17168 -0.840854,-0.112497 -0.179441,0.06255 -0.36016,0.02379 -1.0836,-0.232448 -0.81355,-0.288151 -0.86549,-0.318488 -0.824552,-0.481598 0.362115,-1.442783 0.554121,-3.999545 0.436268,-5.809371 -0.04633,-0.711515 -0.07576,-1.302145 -0.0654,-1.31251 0.01037,-0.01037 0.511891,0.717969 1.114501,1.618521 1.993471,2.97908 2.732385,3.862339 3.663667,4.379353 0.69248,0.38444 1.254949,0.528026 2.045636,0.522207 1.254162,-0.0092 2.353661,-0.521945 3.408195,-1.589297 1.085018,-1.098208 1.599675,-2.3299 1.599136,-3.827102 -2.99e-4,-0.931872 -0.132265,-1.504916 -0.546568,-2.37404 -0.368483,-0.773003 -0.762745,-1.312881 -1.550596,-2.123288 l -0.621896,-0.639701 2.563681,-1.193574 c 3.987032,-1.856243 8.617871,-4.193209 10.129124,-5.11169 0.741563,-0.450693 2.039299,-1.248109 2.883857,-1.772035 0.844558,-0.523925 1.846751,-1.107586 2.227095,-1.297022 0.668332,-0.332874 0.701904,-0.341324 1.000562,-0.251844 1.5001,0.449441 2.622469,4.564733 1.948328,7.143762 -0.429694,1.643857 -1.775686,3.45073 -3.340803,4.484727 -0.561222,0.370771 -1.217499,0.640479 -1.391528,0.57187 -0.38309,-0.15103 -1.184919,-2.215032 -1.795252,-4.621192 -0.167242,-0.659326 -0.775349,-0.985666 -1.314926,-0.705651 -0.235254,0.122086 -0.413875,0.388578 -1.311049,1.956014 -1.195838,2.089225 -2.38583,3.962137 -3.325428,5.233843 -0.360481,0.487896 -0.679822,0.913952 -0.709646,0.94679 -0.02982,0.03284 -0.113445,-0.388505 -0.185825,-0.936317 -0.07238,-0.547813 -0.177984,-1.085742 -0.234675,-1.195399 -0.359453,-0.695292 -1.280162,-0.686883 -1.643123,0.01501 -0.15238,0.294669 -0.14691,0.396887 0.127738,2.387372 l 0.241959,1.75357 -0.820796,0.788309 c -2.387666,2.293161 -4.725162,3.657875 -7.006474,4.090632 -0.559692,0.106172 -2.519459,0.149107 -3.065137,0.06715 z M 39.813027,23.900127 c 0.337717,-0.171013 0.497882,-0.325783 0.649545,-0.627663 0.329652,-0.656158 0.223347,-1.40176 -0.270227,-1.895335 -0.553074,-0.553074 -1.29913,-0.553074 -1.852204,0 -0.936798,0.936799 -0.352893,2.629619 0.911095,2.641389 0.177137,0.0017 0.429943,-0.05163 0.561791,-0.118391 z"
     id="path3718"
     inkscape:connector-curvature="0" />
  <path
     style="fill:#ffffff;stroke-width:0.07490538"
     d="M 6.7573083,34.696456 C 5.9128598,33.987332 5.21022,33.248014 5.3391454,33.204263 c 0.4076888,-0.138347 1.5972833,-0.48884 1.6095288,-0.474218 0.036207,0.04323 0.423361,2.386866 0.398307,2.411149 -0.015335,0.01486 -0.2806882,-0.185269 -0.5896729,-0.444738 z"
     id="path3720"
     inkscape:connector-curvature="0" />
</svg>
