<?xml version="1.0" encoding="UTF-8" standalone="no"?>
<svg
   xmlns:dc="http://purl.org/dc/elements/1.1/"
   xmlns:cc="http://creativecommons.org/ns#"
   xmlns:rdf="http://www.w3.org/1999/02/22-rdf-syntax-ns#"
   xmlns:svg="http://www.w3.org/2000/svg"
   xmlns="http://www.w3.org/2000/svg"
   xmlns:sodipodi="http://sodipodi.sourceforge.net/DTD/sodipodi-0.dtd"
   xmlns:inkscape="http://www.inkscape.org/namespaces/inkscape"
   width="60px"
   height="60px"
   viewBox="0 0 60 60"
   version="1.1"
   id="svg26"
   sodipodi:docname="wc.svg"
   inkscape:version="0.92.2 2405546, 2018-03-11">
  <sodipodi:namedview
     pagecolor="#ffffff"
     bordercolor="#666666"
     borderopacity="1"
     objecttolerance="10"
     gridtolerance="10"
     guidetolerance="10"
     inkscape:pageopacity="0"
     inkscape:pageshadow="2"
     inkscape:window-width="960"
     inkscape:window-height="1200"
     id="namedview28"
     showgrid="false"
     inkscape:zoom="3.9333333"
     inkscape:cx="30.508475"
     inkscape:cy="30"
     inkscape:window-x="0"
     inkscape:window-y="0"
     inkscape:window-maximized="0"
     inkscape:current-layer="svg26" />
  <title
     id="title2">20 -Camel- (Outline)</title>
  <desc
     id="desc4">Created with Sketch.</desc>
  <defs
     id="defs6" />
  <g
     id="Page-1"
     transform="matrix(0.8728809,0,0,0.88558932,3.8136364,3.8145032)"
     style="fill:none;fill-rule:evenodd;stroke:none;stroke-width:1">
    <g
       id="Icons"
       transform="translate(-1195,-491)"
       style="fill:#000000">
      <g
         id="20--Camel--(Outline)"
         transform="translate(1195,491)">
        <path
           d="m 23,15.0061 c 0,0.552 -0.447,1 -1,1 -0.553,0 -1,-0.448 -1,-1 0,-0.552 0.447,-1 1,-1 0.553,0 1,0.448 1,1"
           id="Fill-439"
           inkscape:connector-curvature="0" />
        <path
           d="m 18.6885,38.0061 c -0.304,0 -0.603,-0.137 -0.799,-0.397 -0.331,-0.439 -0.246,-1.061 0.188,-1.395 0.069,-0.057 2.923,-2.436 2.923,-9.208 0,-0.552 0.447,-1 1,-1 0.552,0 1,0.448 1,1 0,7.907 -3.559,10.684 -3.71,10.798 -0.181,0.136 -0.392,0.202 -0.602,0.202"
           id="Fill-441"
           inkscape:connector-curvature="0" />
        <path
           d="m 41.3008,38.0061 c -0.21,0 -0.422,-0.066 -0.603,-0.202 -0.15,-0.115 -3.703,-2.891 -3.703,-10.798 0,-0.552 0.448,-1 1,-1 0.553,0 1,0.448 1,1 0,6.812 2.881,9.18 2.91,9.202 0.441,0.333 0.528,0.961 0.195,1.401 -0.197,0.26 -0.496,0.397 -0.799,0.397"
           id="Fill-443"
           inkscape:connector-curvature="0" />
        <path
           d="m 30,41.0061 c -0.265,0 -0.52,-0.105 -0.707,-0.292 l -4.005,-4 c -0.391,-0.391 -0.391,-1.024 -0.001,-1.415 0.391,-0.391 1.025,-0.39 1.415,-0.001 l 3.297,3.294 3.288,-3.293 c 0.391,-0.391 1.025,-0.39 1.415,-0.001 0.391,0.391 0.391,1.024 0.001,1.415 l -3.995,4 c -0.187,0.188 -0.442,0.293 -0.707,0.293 z"
           id="Fill-445"
           inkscape:connector-curvature="0" />
        <path
           d="m 30,44.0061 c -0.553,0 -1,-0.448 -1,-1 v -3 c 0,-0.552 0.447,-1 1,-1 0.553,0 1,0.448 1,1 v 3 c 0,0.552 -0.447,1 -1,1"
           id="Fill-447"
           inkscape:connector-curvature="0" />
        <path
           d="m 22,12.0061 c -1.654,0 -3,1.346 -3,3 0,1.654 1.346,3 3,3 1.654,0 3,-1.346 3,-3 0,-1.654 -1.346,-3 -3,-3 m 0,8 c -2.757,0 -5,-2.243 -5,-5 0,-2.757 2.243,-5 5,-5 2.757,0 5,2.243 5,5 0,2.757 -2.243,5 -5,5"
           id="Fill-449"
           inkscape:connector-curvature="0" />
        <path
           d="m 39,15.0061 c 0,0.552 -0.447,1 -1,1 -0.553,0 -1,-0.448 -1,-1 0,-0.552 0.447,-1 1,-1 0.553,0 1,0.448 1,1"
           id="Fill-451"
           inkscape:connector-curvature="0" />
        <path
           d="m 38,12.0061 c -1.654,0 -3,1.346 -3,3 0,1.654 1.346,3 3,3 1.654,0 3,-1.346 3,-3 0,-1.654 -1.346,-3 -3,-3 m 0,8 c -2.757,0 -5,-2.243 -5,-5 0,-2.757 2.243,-5 5,-5 2.757,0 5,2.243 5,5 0,2.757 -2.243,5 -5,5"
           id="Fill-453"
           inkscape:connector-curvature="0" />
        <path
           d="m 30,52.0061 c -1.785,0 -3.672,-0.741 -5.608,-2.202 -0.441,-0.332 -0.529,-0.96 -0.196,-1.401 0.332,-0.439 0.958,-0.529 1.401,-0.195 1.581,1.193 3.062,1.798 4.403,1.798 1.35,0 2.788,-0.588 4.399,-1.799 0.442,-0.332 1.068,-0.243 1.401,0.198 0.331,0.442 0.242,1.069 -0.199,1.4 -1.97,1.481 -3.802,2.201 -5.601,2.201"
           id="Fill-455"
           inkscape:connector-curvature="0" />
        <path
           d="m 28,51.7082 v 4.298 c 0,1.103 0.897,2 2,2 1.103,0 2,-0.897 2,-2 v -4.299 c -1.359,0.397 -2.641,0.397 -4,10e-4 m 2,8.298 c -2.206,0 -4,-1.795 -4,-4 v -5.756 c 0,-0.344 0.177,-0.664 0.469,-0.847 0.292,-0.182 0.655,-0.201 0.967,-0.053 1.796,0.869 3.325,0.873 5.127,-0.003 0.312,-0.15 0.676,-0.13 0.968,0.052 0.291,0.184 0.469,0.504 0.469,0.848 v 5.759 c 0,2.205 -1.794,4 -4,4"
           id="Fill-457"
           inkscape:connector-curvature="0" />
        <path
           d="m 32.999,55.6135 c -0.437,0 -0.84,-0.291 -0.963,-0.733 -0.147,-0.532 0.164,-1.083 0.696,-1.231 6.414,-1.78 7.181,-10.152 7.263,-12.676 l -10e-4,-1.967 c 0.042,-2.619 1.949,-7.085 3.541,-10.373 1.696,-3.505 2.541,-7.065 2.513,-10.582 -0.013,-1.54 -0.184,-3.018 -0.509,-4.392 -0.08,-0.335 0.02,-0.688 0.262,-0.933 0.242,-0.245 0.593,-0.349 0.93,-0.273 2.863,0.644 6.664,0.567 7.172,0.555 3.414,-0.542 4.033,-4.009 4.098,-6.034 0.009,-0.278 -0.144,-0.546 -0.397,-0.698 -4.416,-2.659 -9.959,-0.659 -13.832,1.486 -0.417,0.231 -0.942,0.135 -1.25,-0.231 -0.829,-0.986 -1.786,-1.856 -2.844,-2.585 -5.705,-3.928 -13.667,-3.929 -19.367,0 -1.058,0.73 -2.013,1.598 -2.836,2.578 -0.308,0.366 -0.833,0.463 -1.25,0.232 C 13.057,6.0025 7.046,3.4785 2.395,6.2785 2.143,6.4295 1.991,6.6965 2,6.9755 c 0.064,2.025 0.685,5.489 4.106,6.033 0.504,0.011 4.297,0.087 7.154,-0.55 0.336,-0.076 0.687,0.029 0.929,0.274 0.243,0.245 0.341,0.598 0.261,0.933 -0.325,1.373 -0.496,2.849 -0.509,4.388 -0.028,3.515 0.817,7.075 2.514,10.58 1.592,3.29 3.498,7.757 3.539,10.357 v 2.016 c 0.11,2.475 0.964,10.837 7.28,12.636 0.531,0.151 0.839,0.704 0.688,1.236 -0.15,0.531 -0.703,0.839 -1.236,0.688 -7.603,-2.166 -8.605,-11.659 -8.731,-14.516 l -0.001,-2.044 c -0.027,-1.728 -1.214,-5.108 -3.34,-9.502 -1.831,-3.784 -2.744,-7.642 -2.713,-11.467 0.01,-1.153 0.101,-2.277 0.273,-3.358 -2.965,0.432 -6.081,0.331 -6.233,0.326 -0.038,-10e-4 -0.075,-0.005 -0.112,-0.01 -5.092,-0.755 -5.8,-5.816 -5.867,-7.956 -0.032,-1.002 0.489,-1.951 1.361,-2.475 4.955,-2.982 10.833,-1.175 15.121,1.061 0.809,-0.868 1.711,-1.649 2.693,-2.325 6.367,-4.389 15.263,-4.39 21.634,-10e-4 0.983,0.676 1.888,1.459 2.701,2.333 4.289,-2.239 10.168,-4.053 15.124,-1.07 0.873,0.525 1.395,1.473 1.363,2.475 -0.067,2.142 -0.774,7.204 -5.858,7.958 -0.038,0.005 -0.075,0.009 -0.113,0.01 -0.152,0.004 -3.28,0.106 -6.253,-0.33 0.172,1.082 0.263,2.206 0.273,3.359 0.031,3.828 -0.881,7.686 -2.712,11.47 -2.127,4.392 -3.314,7.773 -3.342,9.518 v 1.984 c -0.094,2.9 -0.999,12.426 -8.726,14.57 -0.09,0.025 -0.18,0.037 -0.269,0.037"
           id="Fill-459"
           inkscape:connector-curvature="0" />
        <path
           d="m 33,28.0061 c -0.553,0 -1,-0.448 -1,-1 0,-2.206 1.794,-4 4,-4 0.553,0 1,0.448 1,1 0,0.552 -0.447,1 -1,1 -1.103,0 -2,0.897 -2,2 0,0.552 -0.447,1 -1,1"
           id="Fill-496"
           inkscape:connector-curvature="0" />
        <path
           d="m 27,28.0061 c -0.553,0 -1,-0.448 -1,-1 0,-1.103 -0.897,-2 -2,-2 -0.553,0 -1,-0.448 -1,-1 0,-0.552 0.447,-1 1,-1 2.206,0 4,1.794 4,4 0,0.552 -0.447,1 -1,1"
           id="Fill-498"
           inkscape:connector-curvature="0" />
      </g>
    </g>
  </g>
  <metadata
     id="metadata24">
    <rdf:RDF>
      <rdf:Description
         about="https://iconscout.com/legal#licenses"
         dc:title="camel,animal,wildlife"
         dc:description="camel,animal,wildlife"
         dc:publisher="Iconscout"
         dc:date="2017-07-24"
         dc:format="image/svg+xml"
         dc:language="en">
        <dc:creator>
          <rdf:Bag>
            <rdf:li>Smashicons .</rdf:li>
          </rdf:Bag>
        </dc:creator>
      </rdf:Description>
      <cc:Work
         rdf:about="">
        <dc:format>image/svg+xml</dc:format>
        <dc:type
           rdf:resource="http://purl.org/dc/dcmitype/StillImage" />
      </cc:Work>
    </rdf:RDF>
  </metadata>
  <path
     style="fill:#ffffff;stroke-width:0.25423729"
     d="m 25.004741,49.657205 c -2.084908,-1.883588 -3.290502,-5.178358 -3.563433,-9.738508 -0.176343,-2.946354 -0.170964,-2.988857 0.505864,-3.997246 1.02823,-1.531935 1.770356,-4.032028 1.93047,-6.503409 0.137437,-2.121351 0.119619,-2.221863 -0.447677,-2.52547 -0.935136,-0.50047 -1.410381,0.317997 -1.579687,2.720541 -0.07862,1.11561 -0.391664,2.655749 -0.713105,3.508354 l -0.57297,1.519769 -0.32179,-0.929466 c -0.176984,-0.511207 -0.89474,-2.224767 -1.595012,-3.807908 -2.25262,-5.092613 -2.957975,-8.91605 -2.330805,-12.634334 0.427007,-2.531584 0.238731,-2.728864 -2.237627,-2.344644 C 11.292638,15.357198 8.9621924,15.282782 7.9282368,14.728478 6.875332,14.164015 5.9721759,12.551692 5.7381597,10.81873 L 5.5752099,9.6120369 6.7300293,9.1012053 c 2.5924567,-1.1467668 5.7473547,-0.8515264 9.5182467,0.890733 1.058766,0.4891797 2.03393,0.8894177 2.167033,0.8894177 0.133102,0 0.943221,-0.634564 1.800263,-1.4101429 5.478993,-4.9582046 14.282882,-4.9402168 19.50396,0.03985 0.790137,0.7536609 1.614737,1.3702929 1.832449,1.3702929 0.217711,0 1.065416,-0.328148 1.883794,-0.729218 2.668634,-1.3078453 4.122526,-1.6853503 6.445581,-1.6736025 1.72591,0.00873 2.37857,0.1247921 3.241525,0.5764482 1.014061,0.530743 1.080509,0.6322447 1.080509,1.6505503 0,1.414365 -0.911171,3.194912 -2.007936,3.92377 -0.978099,0.649997 -3.119288,0.760113 -6.177996,0.317719 -0.936585,-0.135462 -1.853113,-0.188646 -2.036728,-0.118186 -0.258125,0.09905 -0.33447,1.150781 -0.336593,4.636924 -0.0026,4.207774 -0.04727,4.636126 -0.669587,6.415595 -0.732936,2.095765 -3.214139,7.877931 -3.531684,8.230197 -0.30974,0.343605 -1.253438,-3.033399 -1.429406,-5.115098 -0.163637,-1.935822 -0.563224,-2.54172 -1.451466,-2.20087 -0.617479,0.236949 -0.702979,0.91857 -0.410479,3.272419 0.304401,2.449614 0.963804,4.44047 1.954078,5.899723 0.640904,0.944423 0.655078,1.051335 0.499821,3.769734 -0.18625,3.260995 -0.639242,5.232318 -1.706334,7.425597 -0.683723,1.405312 -2.483138,3.379315 -3.080436,3.379315 -0.114661,0 -0.208475,-0.375758 -0.208475,-0.835015 0,-0.65434 0.161683,-0.930523 0.747242,-1.276421 0.870379,-0.514146 1.204597,-1.315444 0.768056,-1.841443 -0.438971,-0.528928 -1.042993,-0.457157 -1.981805,0.235477 -1.068687,0.788451 -2.85252,1.276696 -3.927606,1.07501 -0.470302,-0.08823 -1.406982,-0.510415 -2.081512,-0.938189 -0.8502,-0.539179 -1.409902,-0.731718 -1.824549,-0.627649 -0.929846,0.233375 -0.787421,1.241365 0.2917,2.06445 0.654027,0.498849 0.88983,0.872827 0.88983,1.411243 0,0.954143 -0.295268,0.923833 -1.486784,-0.152631 z m 5.799874,-7.233712 c 0.14475,-0.270468 0.263182,-1.046018 0.263182,-1.723446 0,-1.179402 0.07056,-1.301522 1.66218,-2.876883 1.289896,-1.276717 1.645787,-1.787556 1.588983,-2.280791 -0.05175,-0.449398 -0.250833,-0.660712 -0.679568,-0.721335 -0.460948,-0.06518 -0.983423,0.287957 -2.178532,1.472443 l -1.57216,1.558185 -1.41947,-1.536002 c -1.398945,-1.513793 -2.090291,-1.830196 -2.689569,-1.230918 -0.554246,0.554245 -0.323286,1.001524 1.474576,2.855667 1.718894,1.772702 1.779661,1.878554 1.779661,3.100022 0,0.695557 0.137288,1.401938 0.305085,1.569734 0.458101,0.4581 1.169018,0.367551 1.465632,-0.186676 z M 28.223448,27.589506 c 0.05291,-0.640748 -0.0968,-1.246409 -0.448922,-1.816154 -0.91041,-1.473073 -3.268673,-2.203387 -3.815517,-1.1816 -0.377259,0.704914 -0.05883,1.292522 0.792726,1.462832 0.800915,0.160183 1.73979,1.159927 1.73979,1.852583 0,0.614083 0.267776,0.805169 1.007435,0.718912 0.546637,-0.06375 0.657225,-0.221973 0.724488,-1.036573 z m 5.05392,0.770663 c 0.113125,-0.174788 0.32009,-0.661016 0.45992,-1.080508 0.169493,-0.508475 0.508475,-0.847458 1.016949,-1.016949 1.154128,-0.38471 1.398305,-0.608462 1.398305,-1.281347 0,-0.709929 -0.844683,-1.041838 -1.947188,-0.765127 -1.619138,0.406377 -3.186007,3.102982 -2.372532,4.083159 0.382726,0.461157 1.164135,0.494031 1.444546,0.06077 z m -8.336381,-7.169216 c 3.2742,-1.693154 3.386129,-6.244807 0.197634,-8.036842 -1.292833,-0.726613 -3.508548,-0.613513 -4.707613,0.240297 -2.793977,1.989487 -2.207671,6.785269 0.975772,7.981474 0.756852,0.284393 2.837134,0.175542 3.534207,-0.184929 z m 13.990506,-0.0039 c 2.596782,-1.342848 3.302299,-4.879233 1.394672,-6.990747 -1.137559,-1.259144 -2.069049,-1.625243 -3.77521,-1.483755 -2.590965,0.214863 -4.104503,2.069345 -3.907843,4.788137 0.180379,2.49372 1.84038,4.040902 4.348327,4.0528 0.671138,0.0032 1.544164,-0.161712 1.940054,-0.366435 z"
     id="path30"
     inkscape:connector-curvature="0" />
  <path
     style="fill:#ffffff;stroke-width:0.25423729"
     d="m 24.946108,49.604235 c -2.042038,-1.84486 -3.225761,-5.107373 -3.51416,-9.685538 -0.162439,-2.578617 -0.130013,-3.063262 0.241773,-3.613612 1.344418,-1.990124 2.275432,-5.15371 2.275432,-7.731921 0,-1.107839 -0.09951,-1.455989 -0.473355,-1.656063 -0.917605,-0.491087 -1.339854,0.197148 -1.58108,2.577048 -0.121648,1.200167 -0.464627,2.832796 -0.762175,3.628065 l -0.540997,1.445944 -0.831463,-1.991707 C 19.302779,31.481014 18.51955,29.612288 18.019573,28.423729 16.311907,24.364212 15.755344,20.748894 16.300301,17.255681 16.691457,14.748341 16.545626,14.591462 14.146085,14.938264 11.286396,15.351571 8.9430262,15.272507 7.9282368,14.728478 6.875332,14.164015 5.9721759,12.551692 5.7381597,10.81873 L 5.5752099,9.6120369 6.7102428,9.1099579 c 2.605913,-1.1527192 5.9858652,-0.8390164 9.5948032,0.8905211 1.010945,0.484482 1.953774,0.880877 2.095175,0.880877 0.141401,0 0.958309,-0.634564 1.815351,-1.4101429 5.480793,-4.9598336 14.099135,-4.9499256 19.507812,0.022426 0.830217,0.7632439 1.596285,1.3874459 1.702373,1.3871149 0.106088,-3.3e-4 1.242864,-0.453591 2.526168,-1.007246 3.825068,-1.6502458 6.92987,-1.9247402 9.234516,-0.8164202 0.799162,0.3843223 0.897162,0.5443993 0.961797,1.5710112 0.09179,1.458006 -0.763777,3.211047 -1.952784,4.001204 -0.707944,0.470465 -1.212724,0.573739 -2.79661,0.572166 -1.063009,-0.0011 -2.673112,-0.122041 -3.578008,-0.268854 -2.238394,-0.363163 -2.261174,-0.321094 -2.110612,3.897978 0.172113,4.822968 -0.03468,5.662942 -3.238066,13.152458 -0.448555,1.048729 -0.908618,2.006555 -1.022359,2.128502 -0.304192,0.326136 -1.239694,-2.929034 -1.429886,-4.975428 -0.216565,-2.330142 -0.934193,-3.122347 -1.729244,-1.908946 -0.314677,0.480259 -0.339551,0.939908 -0.14102,2.605932 0.358236,3.006244 1.13867,5.29079 2.232453,6.534999 0.323682,0.368199 0.363534,0.934798 0.232459,3.305085 -0.182019,3.291508 -0.632692,5.26424 -1.707264,7.473175 -0.702539,1.444165 -2.451847,3.396003 -3.043622,3.396003 -0.139429,0 -0.253506,-0.375758 -0.253506,-0.835015 0,-0.65434 0.161683,-0.930523 0.747242,-1.276421 0.870379,-0.514146 1.204597,-1.315444 0.768056,-1.841443 -0.41864,-0.50443 -0.923153,-0.463358 -1.77705,0.144671 -0.89537,0.637559 -2.633822,1.264579 -3.520212,1.269659 -0.366953,0.002 -1.490413,-0.417496 -2.496576,-0.932441 -1.533642,-0.784902 -1.893276,-0.883241 -2.224577,-0.608286 -0.634446,0.526544 -0.460565,1.206923 0.494643,1.935496 0.654027,0.498849 0.88983,0.872827 0.88983,1.411243 0,0.963478 -0.294796,0.92426 -1.545417,-0.205601 z m 5.722173,-7.088497 c 0.260903,-0.260903 0.399516,-0.858857 0.399516,-1.723446 0,-1.292988 0.03885,-1.362379 1.66218,-2.969128 1.289896,-1.276717 1.645787,-1.787556 1.588983,-2.280791 -0.137827,-1.196787 -1.060228,-0.955767 -2.824009,0.737903 l -1.600425,1.536806 -1.502864,-1.518709 c -1.511233,-1.527168 -2.048723,-1.776905 -2.612001,-1.213627 -0.540339,0.540338 -0.33784,0.930086 1.474576,2.838089 1.709767,1.799939 1.779661,1.922784 1.779661,3.127886 0,1.722402 0.726122,2.37328 1.634383,1.465017 z m -2.649546,-14.22128 c 0.450266,-0.542536 0.143087,-2.098214 -0.563752,-2.855071 -1.235842,-1.323293 -3.011056,-1.753712 -3.495974,-0.847635 -0.377259,0.704914 -0.05883,1.292522 0.792726,1.462832 0.800915,0.160183 1.73979,1.159927 1.73979,1.852583 0,0.837622 0.952914,1.079275 1.52721,0.387291 z m 5.271012,0.06571 c 0.137669,-0.174788 0.326875,-0.638018 0.420455,-1.029399 0.127304,-0.532442 0.45618,-0.834213 1.30624,-1.198592 1.200755,-0.514704 1.481802,-1.172841 0.757531,-1.773933 -0.567969,-0.471371 -2.123296,-0.08194 -2.941831,0.736602 -0.916955,0.916954 -1.462863,2.646016 -1.00833,3.193696 0.390839,0.470929 1.123238,0.506715 1.465935,0.07163 z M 24.79546,21.212536 c 1.691973,-0.706952 2.948542,-3.021422 2.612601,-4.812143 -0.394768,-2.104293 -2.017649,-3.53781 -4.154645,-3.669863 -1.929625,-0.119239 -3.260104,0.602986 -4.071213,2.20998 -1.936306,3.836273 1.705052,7.904978 5.613257,6.272026 z m 13.983051,0 c 1.056971,-0.44163 2.108052,-1.687427 2.4849,-2.945232 0.809298,-2.701195 -1.369838,-5.611214 -4.195075,-5.602105 -2.591393,0.0084 -4.466751,1.87457 -4.466751,4.44497 0,3.232177 3.18962,5.350543 6.176926,4.102367 z"
     id="path32"
     inkscape:connector-curvature="0" />
  <path
     style="fill:#ffffff;stroke-width:0.25423729"
     d="m 25.071922,49.726856 c -2.166164,-1.901916 -3.377029,-5.141367 -3.637988,-9.732783 -0.173138,-3.046248 -0.171861,-3.056072 0.545811,-4.197463 1.080038,-1.717703 1.789421,-4.340453 1.817825,-6.720915 0.02351,-1.97054 0.0011,-2.05358 -0.576892,-2.135356 -0.330746,-0.0468 -0.705434,0.01899 -0.832639,0.146198 -0.127204,0.127205 -0.34389,1.222316 -0.481523,2.433581 -0.137634,1.211266 -0.491542,2.847228 -0.786462,3.635475 l -0.536219,1.433174 -1.001651,-2.383368 c -3.076183,-7.319586 -3.345652,-8.262386 -3.369838,-11.790145 -0.0096,-1.398305 0.06546,-3.080543 0.166781,-3.738306 0.214441,-1.392192 -0.254245,-2.135492 -1.175502,-1.864253 -0.293773,0.08649 -1.849811,0.218928 -3.457862,0.294298 C 9.1643222,15.227988 8.7178592,15.186053 7.9322034,14.748799 6.8754078,14.160642 5.9705801,12.539874 5.7381597,10.81873 L 5.5752099,9.6120369 6.7884319,9.0753712 C 9.3361353,7.9484008 12.467794,8.251288 16.338704,9.9990521 c 1.074759,0.4852669 2.018218,0.8823039 2.096577,0.8823039 0.07836,0 0.864807,-0.633593 1.747663,-1.4079852 2.843042,-2.4937582 6.018052,-3.6767606 9.867903,-3.6767606 3.799279,0 6.855321,1.1629195 9.680408,3.6836972 0.863601,0.7705766 1.641554,1.4007776 1.728786,1.4004476 0.08723,-3.31e-4 1.19569,-0.448035 2.463241,-0.9948975 3.859327,-1.6650406 6.971581,-1.9575846 9.206459,-0.8653833 0.860796,0.4206776 0.953049,0.5662038 1.018497,1.6066448 0.09178,1.459047 -0.763444,3.211805 -1.952784,4.002185 -0.707944,0.470465 -1.212724,0.573739 -2.79661,0.572165 -1.063009,-0.0011 -2.66534,-0.120788 -3.560738,-0.266072 -1.140013,-0.184973 -1.708668,-0.183479 -1.897134,0.005 -0.171275,0.171276 -0.245227,1.631565 -0.20338,4.016072 0.05407,3.080731 -0.02512,4.098119 -0.445395,5.722108 -0.468351,1.809772 -3.363234,8.913848 -3.843908,9.43299 -0.289531,0.312702 -1.215697,-2.833192 -1.419369,-4.821157 -0.09378,-0.915291 -0.354109,-1.890394 -0.578522,-2.166895 -0.363681,-0.448094 -0.462312,-0.462958 -0.907545,-0.136768 -1.038117,0.760553 -0.242294,5.922456 1.305587,8.468358 l 0.903218,1.485587 -0.139398,2.669491 c -0.179601,3.439427 -0.530024,5.045934 -1.586275,7.27227 -0.791161,1.667588 -2.512617,3.659934 -3.16231,3.659934 -0.139429,0 -0.253506,-0.381092 -0.253506,-0.84687 0,-0.649911 0.1524,-0.928431 0.655279,-1.197564 0.889945,-0.476283 1.21182,-1.1307 0.870145,-1.769125 -0.345646,-0.645845 -0.874881,-0.644261 -1.787176,0.0054 C 32.4345,47.384931 30.705836,48 29.790762,48 c -0.387547,0 -1.514574,-0.416636 -2.504504,-0.925861 -1.490982,-0.766968 -1.866333,-0.870704 -2.187133,-0.604464 -0.62674,0.520149 -0.448744,1.203315 0.50257,1.928918 0.654027,0.498849 0.88983,0.872827 0.88983,1.411243 0,0.93867 -0.274267,0.922638 -1.419603,-0.08298 z m 5.464543,-7.046331 c 0.21517,-0.136213 0.4054,-0.820757 0.475809,-1.71221 0.112192,-1.420459 0.188067,-1.559062 1.73896,-3.176646 1.646896,-1.717716 1.862491,-2.160994 1.316563,-2.706923 -0.525562,-0.525562 -0.900773,-0.348793 -2.565855,1.208809 l -1.618357,1.513892 -1.369957,-1.387188 c -1.507317,-1.526275 -2.112951,-1.838458 -2.669896,-1.376234 -0.619135,0.513836 -0.437626,0.881994 1.410505,2.860955 1.614427,1.728712 1.779661,2.004112 1.779661,2.966199 0,1.704493 0.574805,2.396657 1.502567,1.809346 z M 27.966102,28.372881 c 0.787702,-0.787702 -0.05943,-2.863926 -1.535812,-3.764085 -1.005215,-0.612887 -1.798065,-0.645379 -2.347249,-0.0962 -0.358594,0.358595 -0.365289,0.479968 -0.05258,0.95339 0.197077,0.298367 0.600347,0.578745 0.896155,0.623063 0.62313,0.09336 1.564913,1.18752 1.564913,1.818114 0,0.794591 0.870706,1.069585 1.474577,0.465714 z m 5.588041,-0.742606 c 0.327511,-0.833758 0.634818,-1.143398 1.504973,-1.516389 0.744048,-0.318936 1.093426,-0.624109 1.093426,-0.955077 0,-1.186435 -1.584333,-1.338652 -3.052444,-0.293266 -0.954778,0.679863 -1.681726,2.533863 -1.284526,3.276039 0.484955,0.906147 1.272796,0.674446 1.738571,-0.511307 z m -8.922389,-6.342126 c 1.51051,-0.572316 2.865553,-2.547971 2.865553,-4.17798 0,-1.171389 -0.849266,-2.778471 -1.886279,-3.569439 -2.771063,-2.113594 -7.000859,-0.01964 -7.000859,3.465757 0,3.157753 3.124411,5.379372 6.021585,4.281662 z m 14.146757,-0.07561 c 3.055597,-1.27671 3.500957,-5.623561 0.788164,-7.69271 -2.040209,-1.556141 -5.183967,-0.857723 -6.388012,1.419163 -1.98298,3.749871 1.717599,7.895654 5.599848,6.273547 z"
     id="path34"
     inkscape:connector-curvature="0" />
  <path
     style="fill:#ffffff;stroke-width:0.25423729"
     d="m 21.31433,18.855162 c -0.940764,-0.940764 -0.940764,-2.549221 0,-3.489985 1.48987,-1.48987 4.160246,-0.369796 4.160246,1.744992 0,2.114789 -2.670376,3.234863 -4.160246,1.744993 z m 2.507704,-1.744993 c 0,-0.615481 -0.119943,-0.779641 -0.621349,-0.850416 -0.812725,-0.114717 -1.370618,0.597552 -1.004243,1.28213 0.179143,0.334731 0.476268,0.463778 0.943539,0.409795 0.570835,-0.06595 0.682053,-0.203167 0.682053,-0.841509 z"
     id="path36"
     inkscape:connector-curvature="0" />
  <path
     style="fill:#ffffff;stroke-width:0.25423729"
     d="m 35.32583,18.883611 c -0.757436,-0.757436 -0.936156,-1.472417 -0.646992,-2.588337 0.667584,-2.576292 4.778789,-1.875235 4.778789,0.814895 0,2.090276 -2.669266,3.235973 -4.131797,1.773442 z m 2.479255,-1.773442 c 0,-0.615481 -0.119943,-0.779641 -0.621349,-0.850416 -0.812726,-0.114717 -1.370618,0.597552 -1.004243,1.28213 0.179143,0.334731 0.476268,0.463778 0.943539,0.409795 0.570835,-0.06595 0.682053,-0.203167 0.682053,-0.841509 z"
     id="path38"
     inkscape:connector-curvature="0" />
  <path
     style="fill:#ffffff;stroke-width:0.25423729"
     d="m 28.998528,54.632651 c -0.528107,-0.427635 -0.610656,-0.741185 -0.687453,-2.611179 l -0.08728,-2.125187 1.675921,0.0052 1.675921,0.0052 3.05e-4,2.097457 c 2.75e-4,1.758736 -0.08179,2.179572 -0.508148,2.605932 -0.638742,0.638742 -1.299357,0.645919 -2.069269,0.02248 z"
     id="path40"
     inkscape:connector-curvature="0" />
</svg>
