<?xml version="1.0" encoding="UTF-8" standalone="no"?>
<svg
   viewBox="0 0 50 50"
   version="1.1"
   id="svg5"
   sodipodi:docname="wG.svg"
   inkscape:version="1.1 (ce6663b3b7, 2021-05-25)"
   xmlns:inkscape="http://www.inkscape.org/namespaces/inkscape"
   xmlns:sodipodi="http://sodipodi.sourceforge.net/DTD/sodipodi-0.dtd"
   xmlns="http://www.w3.org/2000/svg"
   xmlns:svg="http://www.w3.org/2000/svg"
   xmlns:rdf="http://www.w3.org/1999/02/22-rdf-syntax-ns#"
   xmlns:cc="http://creativecommons.org/ns#"
   xmlns:dc="http://purl.org/dc/elements/1.1/">
  <defs
     id="defs9" />
  <sodipodi:namedview
     pagecolor="#ffffff"
     bordercolor="#666666"
     borderopacity="1"
     objecttolerance="10"
     gridtolerance="10"
     guidetolerance="10"
     inkscape:pageopacity="0"
     inkscape:pageshadow="2"
     inkscape:window-width="1294"
     inkscape:window-height="704"
     id="namedview7"
     showgrid="false"
     inkscape:zoom="3.337544"
     inkscape:cx="-72.358597"
     inkscape:cy="25.61764"
     inkscape:window-x="72"
     inkscape:window-y="27"
     inkscape:window-maximized="1"
     inkscape:current-layer="svg5"
     inkscape:pagecheckerboard="0"
     showguides="false" />
  <metadata
     id="metadata3">
    <rdf:RDF>
      <rdf:Description
         about="https://iconscout.com/legal#licenses"
         dc:title="grasshopper"
         dc:description="grasshopper"
         dc:publisher="Iconscout"
         dc:date="2017-12-07"
         dc:format="image/svg+xml"
         dc:language="en">
        <dc:creator>
          <rdf:Bag>
            <rdf:li>Icons8</rdf:li>
          </rdf:Bag>
        </dc:creator>
      </rdf:Description>
      <cc:Work
         rdf:about="">
        <dc:format>image/svg+xml</dc:format>
        <dc:type
           rdf:resource="http://purl.org/dc/dcmitype/StillImage" />
      </cc:Work>
    </rdf:RDF>
  </metadata>
  <g
     id="g44"
     transform="matrix(0.70273563,0,0,0.70273563,6.7191623,11.761625)">
    <g
       id="g33">
      <path
         d="m 44.169803,2.9690001 c -0.039,0.008 -0.078,0.02 -0.113377,0.031001 A 0.90882591,1.0020083 0 0 0 43.34805,4.000009 c 0,6.996058 -4.045273,10.684089 -4.223047,10.844089 a 2.9967673,3.3040274 0 0 0 -0.992272,0.219003 0.42266754,0.46600386 0 0 0 -0.05714,0.03 c -1.576388,0.762006 -3.528277,2.145018 -6.037073,3.62603 -0.03899,0.02 -0.078,0.039 -0.113375,0.06201 0.05352,-0.043 -0.535137,0.348003 -1.303376,0.750006 -0.769146,0.403004 -1.804047,0.926008 -3.033047,1.532013 a 354.70514,391.07325 0 0 1 -8.41798,3.968031 C 15.787583,21.731155 11.779498,18.293127 9.5618542,16.156109 8.9523422,15.574104 8.2548501,15.211102 7.5773123,15.0941 a 2.8643436,3.1580262 0 0 0 -1.898376,0.375003 C 4.5878009,16.17211 4.1306669,17.773122 4.5732887,19.406136 h -0.028117 l 0.028117,0.125001 2.0407768,11.157093 C 5.6707764,31.016233 4.3220496,31.500236 3.269009,31.718238 a 0.91608201,1.0100084 0 0 0 -0.6938642,0.641005 c -0.1097486,0.336003 -0.049885,0.711006 0.1560059,0.985009 0,0 2.2176442,3.058025 5.186294,4.500037 l 1.0203884,5.593047 c -0.1941006,-0.066 -0.141494,-0.105002 -0.368247,-0.156001 -1.3106321,-0.285004 -3.209915,-0.261003 -5.498306,0.813006 a 0.90882591,1.0020083 0 0 0 -0.230381,1.789014 c 0.2902438,0.210003 0.6657467,0.222002 0.9668746,0.023 1.9736579,-0.926008 3.4439242,-0.902008 4.421683,-0.687006 0.9777587,0.215002 1.3895422,0.593006 1.3895422,0.593006 a 0.90791891,1.0010083 0 0 0 1.4176601,-1.000008 l -0.79545,-4.312036 a 0.76370402,0.84200697 0 0 0 0.08526,-0.188002 c 1.491128,-3.593029 1.473894,-7.207059 1.161882,-10.030083 1.193627,1.796015 2.473421,3.816032 3.599929,5.187043 h 0.02812 c 0.970502,1.16001 2.249389,1.668014 3.458436,1.593014 1.208139,-0.074 2.355509,-0.671006 3.230776,-1.562013 0.875267,-0.890008 1.492035,-2.110018 1.587271,-3.500029 0.09523,-1.390012 -0.382758,-2.895024 -1.531036,-4.188035 v -0.03 C 21.48362,27.363203 21.065488,26.934199 20.643726,26.500194 a 347.58782,383.22618 0 0 0 7.680578,-3.625029 c 1.240791,-0.610005 2.300181,-1.14801 3.09019,-1.563013 0.732864,-0.382004 1.119252,-0.582005 1.473893,-0.843007 l 0.113377,-0.063 c 2.490655,-1.476012 4.481545,-2.836023 5.7822,-3.468029 0.38276,-0.165001 0.634003,-0.153001 0.93513,0 0.301128,0.152002 0.626745,0.488004 0.93513,1.000009 0.613139,1.027009 1.049412,2.746022 1.049412,4.468037 0,2.047017 -0.975038,3.746031 -2.15506,4.969041 a 8.5621923,9.4400782 0 0 1 -1.756883,1.406012 c -0.52788,0.313003 -1.01676,0.407003 -0.964153,0.407003 -0.0381,0 -0.08798,0.01097 -0.226753,-0.125001 -0.137867,-0.137001 -0.314732,-0.426004 -0.50974,-0.844007 -0.393645,-0.836006 -0.818126,-2.160018 -1.219024,-3.782032 a 0.90882591,1.0020083 0 0 0 -1.643507,-0.280002 c -0.741027,1.273011 -2.476141,4.655039 -5.045707,7.905066 l -0.253963,-1.905016 a 0.90701189,1.0000083 0 0 0 -0.964153,-0.875007 0.91426797,1.0080084 0 0 0 -0.65849,0.367003 c -0.163264,0.223001 -0.230382,0.508004 -0.19138,0.790006 l 0.481623,3.468029 c -2.639404,2.827023 -5.856576,5.093042 -9.466483,5.093042 -2.122408,0 -3.401294,-0.531004 -3.401294,-0.531004 a 0.90156982,0.99400824 0 0 0 -0.928782,0.140001 0.90247683,0.99500824 0 0 0 -0.321989,0.970008 0.90701189,1.0000083 0 0 0 0.626745,0.765007 c 0,0 1.612669,0.656005 4.02532,0.656005 3.825776,0 7.124578,-2.070017 9.806613,-4.688039 l 0.283894,1.938016 a 0.90429086,0.99700826 0 0 0 0.197726,0.500008 l 3.798565,5.000041 a 0.90701189,1.0000083 0 0 0 1.105648,0.250002 c 0,0 0.357362,-0.180002 0.76461,-0.250002 0.408155,-0.07 0.666655,-0.055 0.850778,0.188002 0.202263,0.300002 0.535137,0.449004 0.868011,0.394003 a 0.90882591,1.0020083 0 0 0 0.520624,-1.676014 c -0.722889,-0.957008 -1.795883,-1.035009 -2.5224,-0.906008 -0.332874,0.059 -0.371875,0.129002 -0.594999,0.219003 l -3.231685,-4.282037 -0.424481,-3.093025 c 0.180496,-0.207002 0.364619,-0.414004 0.537858,-0.625005 a 34.597969,38.145316 0 0 0 2.154153,-2.907024 l 0.7374,0.657005 2.834413,6.812056 a 0.90429086,0.99700826 0 0 0 1.218118,0.469004 c 0,0 0.358269,-0.180001 0.765517,-0.250001 0.408156,-0.07 0.666654,-0.055 0.850778,0.188001 a 0.9164152,1.0103758 0 0 0 1.416752,-1.28201 C 38.344972,36.69928 37.24386,36.62128 36.517344,36.75028 c -0.226753,0.04 -0.216777,0.094 -0.397273,0.156002 L 33.569556,30.68823 a 0.92696616,1.0220085 0 0 0 -0.255779,-0.375003 l -0.991363,-0.875008 a 58.955773,65.000538 0 0 0 1.44487,-2.47002 c 0.226753,0.743006 0.4399,1.618013 0.709283,2.188018 0.258498,0.547005 0.535137,0.996009 0.907012,1.375012 0.371875,0.380003 0.896129,0.657005 1.444869,0.657005 0.644886,0 1.141021,-0.258002 1.814024,-0.657005 0.67391,-0.398003 1.44215,-0.949008 2.155061,-1.687014 1.427636,-1.477013 2.721035,-3.684031 2.721035,-6.438054 0,-1.860015 -0.369153,-3.676031 -1.077529,-5.093042 1.396797,-0.989008 4.74095,-3.836032 5.44207,-9.1570759 A 0.90973293,1.0030083 0 0 0 47.631868,7.2770358 0.90973293,1.0030083 0 0 0 46.833697,7.0000335 0.90156982,0.99400824 0 0 0 46.069086,7.8440406 c -0.652143,4.9450414 -3.882918,7.3320604 -4.761813,7.9060664 -0.07801,-0.074 -0.145121,-0.152003 -0.226752,-0.219003 C 42.50453,13.84409 45.162074,9.9020576 45.162074,4.0000086 A 0.90701189,1.0000083 0 0 0 44.169803,2.9690001 Z M 6.9260805,17.063116 a 1.142835,1.2600104 0 0 1 0.3963643,0 c 0.3011279,0.054 0.6621188,0.226003 1.0494129,0.593006 2.3056243,2.227018 6.3345703,5.684047 9.6370003,8.907074 0.0027,0.0031 -0.0036,0.027 0,0.03 0.102495,0.310003 0.335596,0.544005 0.623117,0.626005 0.0036,0.004 0.02449,-0.004 0.02812,0 0.676632,0.676006 1.325144,1.336012 1.899284,1.968016 l 0.02812,0.032 c 0.822661,0.941009 1.045785,1.828016 0.992272,2.625022 -0.05714,0.808006 -0.435365,1.590013 -1.020387,2.187018 -0.585024,0.598005 -1.364147,0.985009 -2.09792,1.032009 -0.732871,0.046 -1.395897,-0.200007 -2.011758,-0.938014 -1.633529,-1.988017 -3.018537,-4.594038 -5.782202,-8.250067 A 0.90882591,1.0020083 0 0 0 9.5654919,25.652189 0.90973293,1.0030083 0 0 0 9.1083581,26.782198 c 0,0 1.0974839,4.750039 0.3682468,9.437078 L 8.5695861,31.312235 8.5414691,31.125233 a 0.79726345,0.87900729 0 0 0 -0.028117,-0.094 l -2.1831783,-12.0311 a 1.0602969,1.1690096 0 0 0 -0.02721,-0.125001 c -0.308384,-1.023008 -0.043537,-1.460012 0.3111052,-1.688014 0.088886,-0.058 0.1950074,-0.101001 0.3120119,-0.125002 z m 32.3404155,3.937033 a 1.360518,1.5000125 0 1 0 0,3.000025 1.360518,1.5000125 0 0 0 0,-3.000025 z M 6.9823154,32.656246 7.4358212,35.281268 C 6.5251813,34.633263 5.7533142,33.867257 5.1682915,33.219251 5.8948081,32.989249 6.422689,32.832247 6.9823154,32.656246 Z"
         id="surface1"
         inkscape:connector-curvature="0"
         style="stroke-width:0.952375" />
      <path
         style="fill:none;stroke:#000000;stroke-width:1px;stroke-linecap:butt;stroke-linejoin:miter;stroke-opacity:1"
         d="m 10.636564,38.239855 2.771499,0.97377"
         id="path3714"
         inkscape:connector-curvature="0" />
      <path
         style="fill:#ffffff;stroke-width:0.0749054"
         d="M 9.4282062,35.706757 C 9.4004237,35.603762 9.1574452,34.32288 8.8882538,32.860352 6.7879337,21.449228 6.2770446,18.603697 6.2512103,18.172642 c -0.026664,-0.44489 -0.010439,-0.515858 0.1658173,-0.725327 0.2605208,-0.309611 0.6164186,-0.424266 0.9980092,-0.321514 0.3775669,0.101668 0.7138949,0.350816 1.5894328,1.177431 0.3913807,0.369511 1.8745074,1.727979 3.2958364,3.018817 3.728874,3.386527 5.539455,5.093803 5.741576,5.413985 0.09741,0.1543 0.305546,0.36163 0.462534,0.460732 0.379865,0.239798 2.04541,1.993217 2.410207,2.53737 0.487476,0.727144 0.61762,1.174458 0.585108,2.011038 -0.02529,0.650682 -0.05482,0.774298 -0.30668,1.283914 -0.683466,1.382899 -2.178458,2.227572 -3.4168,1.930498 -0.876762,-0.210331 -1.320944,-0.726436 -3.805365,-4.421532 -2.18879,-3.255404 -3.317486,-4.809981 -3.578672,-4.928985 -0.388669,-0.17709 -0.7061209,-0.114544 -1.0220299,0.201365 -0.3585676,0.358567 -0.3664532,0.505509 -0.1092972,2.036644 0.099832,0.594408 0.2262343,1.485231 0.2808951,1.979606 0.1807463,1.634745 0.084559,6.614595 -0.1135758,5.880073 z"
         id="path3716"
         inkscape:connector-curvature="0" />
      <path
         style="fill:#ffffff;stroke-width:0.0749054"
         d="m 15.671048,38.879161 c -0.667128,-0.100195 -1.16413,-0.208373 -1.711624,-0.372553 -0.493101,-0.147868 -0.67108,-0.17168 -0.840854,-0.112497 -0.179441,0.06255 -0.36016,0.02379 -1.0836,-0.232448 -0.81355,-0.288151 -0.86549,-0.318488 -0.824552,-0.481598 0.362115,-1.442783 0.554121,-3.999545 0.436268,-5.809371 -0.04633,-0.711515 -0.07576,-1.302145 -0.0654,-1.31251 0.01037,-0.01037 0.511891,0.717969 1.114501,1.618521 1.993471,2.97908 2.732385,3.862339 3.663667,4.379353 0.69248,0.38444 1.254949,0.528026 2.045636,0.522207 1.254162,-0.0092 2.353661,-0.521945 3.408195,-1.589297 1.085018,-1.098208 1.599675,-2.3299 1.599136,-3.827102 -2.99e-4,-0.931872 -0.132265,-1.504916 -0.546568,-2.37404 -0.368483,-0.773003 -0.762745,-1.312881 -1.550596,-2.123288 l -0.621896,-0.639701 2.563681,-1.193574 c 3.987032,-1.856243 8.617871,-4.193209 10.129124,-5.11169 0.741563,-0.450693 2.039299,-1.248109 2.883857,-1.772035 0.844558,-0.523925 1.846751,-1.107586 2.227095,-1.297022 0.668332,-0.332874 0.701904,-0.341324 1.000562,-0.251844 1.5001,0.449441 2.622469,4.564733 1.948328,7.143762 -0.429694,1.643857 -1.775686,3.45073 -3.340803,4.484727 -0.561222,0.370771 -1.217499,0.640479 -1.391528,0.57187 -0.38309,-0.15103 -1.184919,-2.215032 -1.795252,-4.621192 -0.167242,-0.659326 -0.775349,-0.985666 -1.314926,-0.705651 -0.235254,0.122086 -0.413875,0.388578 -1.311049,1.956014 -1.195838,2.089225 -2.38583,3.962137 -3.325428,5.233843 -0.360481,0.487896 -0.679822,0.913952 -0.709646,0.94679 -0.02982,0.03284 -0.113445,-0.388505 -0.185825,-0.936317 -0.07238,-0.547813 -0.177984,-1.085742 -0.234675,-1.195399 -0.359453,-0.695292 -1.280162,-0.686883 -1.643123,0.01501 -0.15238,0.294669 -0.14691,0.396887 0.127738,2.387372 l 0.241959,1.75357 -0.820796,0.788309 c -2.387666,2.293161 -4.725162,3.657875 -7.006474,4.090632 -0.559692,0.106172 -2.519459,0.149107 -3.065137,0.06715 z M 39.813027,23.900127 c 0.337717,-0.171013 0.497882,-0.325783 0.649545,-0.627663 0.329652,-0.656158 0.223347,-1.40176 -0.270227,-1.895335 -0.553074,-0.553074 -1.29913,-0.553074 -1.852204,0 -0.936798,0.936799 -0.352893,2.629619 0.911095,2.641389 0.177137,0.0017 0.429943,-0.05163 0.561791,-0.118391 z"
         id="path3718"
         inkscape:connector-curvature="0" />
      <path
         style="fill:#ffffff;stroke-width:0.0749054"
         d="M 6.7573083,34.696456 C 5.9128598,33.987332 5.21022,33.248014 5.3391454,33.204263 c 0.4076888,-0.138347 1.5972833,-0.48884 1.6095288,-0.474218 0.036207,0.04323 0.423361,2.386866 0.398307,2.411149 -0.015335,0.01486 -0.2806882,-0.185269 -0.5896729,-0.444738 z"
         id="path3720"
         inkscape:connector-curvature="0" />
      <g
         id="g4350"
         transform="matrix(2.8511238,0,0,2.8511238,-2025.5703,-1924.812)">
        <path
           inkscape:connector-curvature="0"
           style="fill:none;stroke:#000000;stroke-width:2.14639;stroke-linecap:round;stroke-linejoin:miter;stroke-miterlimit:4;stroke-dasharray:none;stroke-opacity:1"
           d="m 713.18437,674.45897 6.8991,-2.52967 6.8991,2.52967"
           id="path3940-9-9" />
        <path
           inkscape:connector-curvature="0"
           id="path3942-8-2"
           d="m 713.18437,674.45897 6.8991,-2.52967 6.8991,2.52967"
           style="fill:none;stroke:#ffffff;stroke-width:0.600988;stroke-linecap:butt;stroke-linejoin:miter;stroke-miterlimit:4;stroke-dasharray:none;stroke-opacity:1" />
      </g>
    </g>
  </g>
</svg>
