<?xml version="1.0" encoding="UTF-8" standalone="no"?>
<svg
   clip-rule="evenodd"
   fill-rule="evenodd"
   height="50mm"
   image-rendering="optimizeQuality"
   shape-rendering="geometricPrecision"
   text-rendering="geometricPrecision"
   viewBox="0 0 50 50"
   width="50mm"
   version="1.1"
   id="svg11"
   sodipodi:docname="wN.svg"
   inkscape:version="1.1 (ce6663b3b7, 2021-05-25)"
   xmlns:inkscape="http://www.inkscape.org/namespaces/inkscape"
   xmlns:sodipodi="http://sodipodi.sourceforge.net/DTD/sodipodi-0.dtd"
   xmlns="http://www.w3.org/2000/svg"
   xmlns:svg="http://www.w3.org/2000/svg">
  <defs
     id="defs15" />
  <sodipodi:namedview
     id="namedview13"
     pagecolor="#ffffff"
     bordercolor="#666666"
     borderopacity="1.0"
     inkscape:pageshadow="2"
     inkscape:pageopacity="0.0"
     inkscape:pagecheckerboard="0"
     inkscape:document-units="mm"
     showgrid="false"
     inkscape:zoom="1.4075833"
     inkscape:cx="20.247469"
     inkscape:cy="99.106033"
     inkscape:window-width="1294"
     inkscape:window-height="704"
     inkscape:window-x="72"
     inkscape:window-y="27"
     inkscape:window-maximized="1"
     inkscape:current-layer="svg11" />
  <linearGradient
     id="a"
     gradientUnits="userSpaceOnUse"
     x1="21.405"
     x2="77.641"
     y1="37.346"
     y2="37.346">
    <stop
       offset="0"
       stop-color="#fff"
       id="stop2" />
    <stop
       offset="1"
       stop-color="#fff"
       stop-opacity="0"
       id="stop4" />
  </linearGradient>
  <g
     id="g41"
     transform="matrix(0.77050866,0,0,0.77050866,4.3362395,9.3528746)">
    <g
       id="g19">
      <path
         d="m 26.178,9.395 c 2.6,0.17 5.004,0.838 7.222,2.015 2.21,1.169 4.098,2.676 5.656,4.513 1.092,1.287 2.117,2.845 3.082,4.665 a 28.684,28.684 0 0 1 2.32,5.774 36.511,36.511 0 0 1 1.253,7.46 c 0.177,2.599 0.262,5.012 0.262,7.23 v 5.402 H 15.468 c -0.153,0 -0.22,-0.407 -0.212,-1.21 0.009,-0.814 0.06,-1.466 0.16,-1.965 0.06,-0.398 0.221,-0.957 0.467,-1.685 0.254,-0.728 0.66,-1.609 1.244,-2.65 0.263,-0.534 0.89,-1.304 1.88,-2.32 0.999,-1.016 2.133,-2.201 3.429,-3.539 0.745,-0.762 1.32,-1.719 1.744,-2.879 0.423,-1.151 0.601,-2.201 0.533,-3.15 a 8.37,8.37 0 0 1 -2.006,1.22 c -3.505,1.253 -6.045,3.073 -7.612,5.452 -0.118,0.153 -0.49,0.822 -1.117,2.015 -0.33,0.627 -0.618,1.059 -0.847,1.287 -0.313,0.314 -0.77,0.491 -1.363,0.525 -0.923,0.043 -1.643,-0.398 -2.16,-1.346 C 8.915,36.412 8.296,36.497 7.746,36.463 6.823,36.116 6.154,35.743 5.74,35.346 4.893,34.499 4.351,33.661 4.089,32.814 A 9.43,9.43 0 0 1 3.708,30.088 c 0,-1.389 0.855,-3.226 2.582,-5.512 2.015,-2.625 3.09,-4.631 3.217,-6.003 0,-0.593 0.06,-1.261 0.178,-2.007 a 4.198,4.198 0 0 1 0.618,-1.49 c 0.22,-0.33 0.364,-0.558 0.432,-0.677 0.076,-0.127 0.212,-0.313 0.415,-0.559 0.144,-0.203 0.27,-0.355 0.372,-0.457 0.093,-0.11 0.22,-0.254 0.373,-0.44 0.178,-0.212 0.406,-0.457 0.694,-0.745 a 18.06,18.06 0 0 1 -1.067,-7.46 c 3.285,1.169 6.054,3.015 8.28,5.53 0.551,-1.872 1.626,-3.387 3.226,-4.539 1.321,0.923 2.371,2.15 3.15,3.666 z"
         fill="#1f1a17"
         id="path7" />
      <path
         d="m 42.976,44.693 c -0.017,0 0,-0.449 0.042,-1.346 0.051,-0.906 0.076,-1.88 0.076,-2.921 0.017,-2.066 0.017,-4.2 0,-6.41 a 26.837,26.837 0 0 0 -0.889,-6.612 c -0.567,-2.117 -1.185,-3.92 -1.862,-5.419 -0.678,-1.498 -1.414,-2.785 -2.21,-3.878 -1.185,-1.786 -2.811,-3.302 -4.86,-4.538 -2.049,-1.244 -4.19,-2.057 -6.426,-2.438 0.152,0.813 0.22,1.609 0.203,2.387 -0.034,0.593 -0.313,0.89 -0.847,0.89 -0.61,0 -0.88,-0.297 -0.82,-0.89 0.05,-2.184 -0.729,-4.055 -2.33,-5.604 -1.252,1.32 -1.938,2.853 -2.031,4.605 -0.034,0.585 -0.33,0.839 -0.898,0.77 -0.525,-0.016 -0.787,-0.32 -0.787,-0.914 0,0 0.017,-0.067 0.042,-0.203 -0.677,0.22 -1.388,0.525 -2.133,0.923 -0.474,0.33 -0.864,0.246 -1.16,-0.245 -0.297,-0.5 -0.17,-0.89 0.398,-1.169 0.71,-0.364 1.244,-0.635 1.608,-0.821 a 17.634,17.634 0 0 0 -4.86,-3.522 17.31,17.31 0 0 0 1.889,6.528 c 0.279,0.423 0.211,0.804 -0.204,1.134 -0.465,0.364 -0.855,0.313 -1.168,-0.17 a 8.87,8.87 0 0 1 -0.491,-0.897 c -0.347,0.347 -0.584,0.61 -0.694,0.77 -0.119,0.153 -0.322,0.483 -0.61,0.991 -0.288,0.517 -0.5,0.94 -0.635,1.27 -0.144,0.415 -0.212,0.745 -0.186,1.008 0.025,0.254 0.05,0.533 0.067,0.855 a 7.61,7.61 0 0 1 -1.007,2.752 133.71,133.71 0 0 1 -1.998,3.15 127.607,127.607 0 0 1 -1.787,2.675 c -0.415,0.601 -0.728,1.354 -0.94,2.286 -0.152,0.559 -0.152,1.244 0,2.04 0.144,0.805 0.475,1.431 0.966,1.88 0.762,0.77 1.498,1.126 2.21,1.067 0.228,0 0.541,-0.093 0.93,-0.28 0.39,-0.178 0.687,-0.525 0.907,-1.041 0.423,-0.94 0.779,-1.414 1.067,-1.414 0.406,0 0.635,0.237 0.668,0.694 0,0.102 -0.135,0.517 -0.397,1.245 -0.153,0.33 -0.348,0.677 -0.593,1.041 -0.322,0.432 -0.457,0.61 -0.423,0.542 0.262,0.948 0.702,1.11 1.312,0.5 0.178,-0.178 0.39,-0.525 0.618,-1.016 0.237,-0.5 0.601,-1.169 1.092,-2.007 0.584,-0.982 1.202,-1.77 1.863,-2.388 0.66,-0.61 1.244,-1.109 1.76,-1.481 0.297,-0.22 0.661,-0.466 1.093,-0.745 0.432,-0.288 1.008,-0.576 1.736,-0.872 0.576,-0.229 1.219,-0.517 1.922,-0.856 0.703,-0.339 1.329,-0.77 1.87,-1.303 0.763,-0.745 1.347,-1.66 1.762,-2.752 0.22,-0.61 0.296,-1.363 0.245,-2.26 -0.144,-0.56 0.136,-0.839 0.847,-0.839 0.533,0 0.83,0.271 0.898,0.821 0,1.863 -0.534,3.565 -1.592,5.106 0.347,1.058 0.44,2.218 0.27,3.471 -0.143,1.008 -0.499,2.091 -1.05,3.243 -0.558,1.143 -1.676,2.421 -3.36,3.827 -3.43,2.845 -5.046,5.774 -4.86,8.78 H 29.404 Z M 9.338,29.613 c -0.483,0.297 -0.77,0.695 -0.872,1.194 0.017,0.542 -0.237,0.839 -0.762,0.89 -0.584,0.067 -0.88,-0.178 -0.898,-0.746 0.068,-1.092 0.55,-1.955 1.465,-2.599 0.432,-0.347 0.83,-0.322 1.194,0.093 0.364,0.449 0.322,0.838 -0.127,1.169 z m 7.366,-11.827 c 0.212,0.33 0.296,0.677 0.245,1.041 -0.16,1.058 -0.753,1.499 -1.76,1.338 a 1.596,1.596 0 0 1 -0.72,-0.296 c -0.06,0.076 -0.161,0.262 -0.297,0.541 -0.178,0.534 -0.525,0.712 -1.041,0.55 -0.508,-0.202 -0.711,-0.575 -0.593,-1.117 0.745,-1.905 2.091,-3.209 4.039,-3.92 0.567,-0.17 0.94,0 1.117,0.491 0.204,0.534 0.051,0.898 -0.448,1.092 a 2.745,2.745 0 0 1 -0.271,0.136 c -0.085,0.042 -0.17,0.093 -0.271,0.144 z"
         fill="url(#a)"
         id="path9"
         style="fill:url(#a)" />
    </g>
    <g
       id="g4350"
       transform="matrix(2.6507424,0,0,2.6507424,-1883.4789,-1784.6238)">
      <path
         inkscape:connector-curvature="0"
         style="fill:none;stroke:#000000;stroke-width:2.14639;stroke-linecap:round;stroke-linejoin:miter;stroke-miterlimit:4;stroke-dasharray:none;stroke-opacity:1"
         d="m 713.18437,674.45897 6.8991,-2.52967 6.8991,2.52967"
         id="path3940-9-9" />
      <path
         inkscape:connector-curvature="0"
         id="path3942-8-2"
         d="m 713.18437,674.45897 6.8991,-2.52967 6.8991,2.52967"
         style="fill:none;stroke:#ffffff;stroke-width:0.600988;stroke-linecap:butt;stroke-linejoin:miter;stroke-miterlimit:4;stroke-dasharray:none;stroke-opacity:1" />
    </g>
  </g>
</svg>
