<?xml version="1.0" encoding="UTF-8" standalone="no"?>
<svg
   xmlns:dc="http://purl.org/dc/elements/1.1/"
   xmlns:cc="http://creativecommons.org/ns#"
   xmlns:rdf="http://www.w3.org/1999/02/22-rdf-syntax-ns#"
   xmlns:svg="http://www.w3.org/2000/svg"
   xmlns="http://www.w3.org/2000/svg"
   xmlns:sodipodi="http://sodipodi.sourceforge.net/DTD/sodipodi-0.dtd"
   xmlns:inkscape="http://www.inkscape.org/namespaces/inkscape"
   version="1.1"
   id="Layer_1"
   x="0px"
   y="0px"
   viewBox="0 0 64 64"
   xml:space="preserve"
   sodipodi:docname="ww.svg"
   inkscape:version="0.92.2 2405546, 2018-03-11"><defs
     id="defs18" /><sodipodi:namedview
     pagecolor="#ffffff"
     bordercolor="#666666"
     borderopacity="1"
     objecttolerance="10"
     gridtolerance="10"
     guidetolerance="10"
     inkscape:pageopacity="0"
     inkscape:pageshadow="2"
     inkscape:window-width="960"
     inkscape:window-height="1200"
     id="namedview16"
     showgrid="false"
     inkscape:zoom="3.6875"
     inkscape:cx="33.084746"
     inkscape:cy="32"
     inkscape:window-x="0"
     inkscape:window-y="0"
     inkscape:window-maximized="0"
     inkscape:current-layer="Layer_1" /><g
     id="wildebeest__x5F_line"
     transform="matrix(0.86016949,0,0,0.89830508,4.0677966,3.2542373)"><path
       d="m 63.2,42 c -0.5,-0.1 -0.9,0.2 -1.1,0.6 -0.4,1.2 -1.2,2.3 -1.6,2.3 -0.8,0 -1.5,-0.7 -1.5,-1.5 V 28.1 c 1,-0.4 1.9,-1 2.7,-1.8 C 63.1,24.9 63.9,22.9 64,21 64,20.7 63.9,20.5 63.7,20.3 63.5,20.1 63.3,20 63,20 H 59 V 13.5 C 59,6.1 52.9,0 45.5,0 37.9,0 34.2,3.7 32.4,7 H 31.6 C 29.8,3.7 26.1,0 18.5,0 11.1,0 5,6.1 5,13.5 V 20 H 1 C 0.7,20 0.5,20.1 0.3,20.3 0.1,20.5 0,20.8 0,21.1 0.1,23 1,24.9 2.3,26.4 3.1,27.2 4,27.8 5,28.1 V 43.4 C 5,44.3 4.3,45 3.5,45 3.2,45 2.4,43.9 1.9,42.7 1.7,42.2 1.3,42 0.8,42.1 0.3,42.1 0,42.5 0,43 v 2.5 c 0,2 0.8,3.9 2.3,5.2 C 3.4,51.8 5.5,53 9,53 h 1.1 C 18,52.4 18,47.6 18,45.5 v -0.6 c 0.1,0 0.2,0.1 0.3,0.1 L 24,59.2 c 0.1,2.9 2.4,4.8 6,4.8 h 4 c 3.6,0 5.9,-1.9 6,-4.8 l 5.7,-14.3 c 0.1,0 0.2,-0.1 0.3,-0.1 v 0.6 c 0,2.1 0,6.9 7.9,7.5 H 55 c 3.4,0 5.5,-1.2 6.7,-2.3 1.5,-1.4 2.3,-3.2 2.3,-5.2 V 43 c 0,-0.5 -0.3,-0.9 -0.8,-1 z m -9.1,9 C 48,50.5 48,47.5 48,45.5 V 44 43.8 c 1.9,-1.6 3,-4.6 3,-6.8 V 25.7 c 0.1,0.2 0.2,0.3 0.4,0.5 1.3,1.4 3.1,2.3 5,2.4 H 57 v 14.9 c 0,1.9 1.6,3.5 3.5,3.5 0.5,0 1,-0.2 1.4,-0.5 -0.2,1.1 -0.7,2 -1.5,2.8 -1.5,1.3 -3.6,1.9 -6.3,1.7 z M 35.2,61.9 C 34.8,62 34.5,62 34.3,62 H 29.7 C 29.4,62 29.1,62 28.8,61.9 28,61.8 27.1,61.4 26.5,60.7 26.2,60.3 26,59.7 26,59 h 12 c 0,0.7 -0.2,1.3 -0.5,1.7 -0.6,0.7 -1.5,1.1 -2.3,1.2 z M 16,44 v 1.5 c 0,2 0,5.1 -6.1,5.5 C 7.2,51.2 5,50.6 3.6,49.3 2.8,48.5 2.3,47.6 2.1,46.5 2.5,46.8 3,47 3.5,47 5.4,47 7,45.4 7,43.5 V 28.6 h 0.6 c 1.9,-0.1 3.7,-1 5,-2.4 0.1,-0.2 0.3,-0.3 0.4,-0.5 V 37 c 0,2.2 1.2,5.1 3,6.8 z M 5,22 h 7.4 c -0.1,1 -0.6,2 -1.3,2.8 -0.9,1 -2.2,1.7 -3.6,1.7 H 7 C 6.7,26.5 6.3,26.4 6,26.3 5.7,26.2 5.3,26 5,25.8 4.6,25.5 4.2,25.2 3.8,24.8 3,24 2.4,22.9 2.2,21.8 H 5 Z M 7,13.5 C 7,7.2 12.2,2 18.5,2 23.4,2 27,3.7 29.3,7 H 19 c -3.3,0 -6,2.7 -6,6 v 7 H 7 Z M 45.5,2 C 51.8,2 57,7.2 57,13.5 V 20 H 51 V 13 C 51,9.7 48.3,7 45,7 H 34.7 C 37,3.7 40.6,2 45.5,2 Z M 59,25.9 c -0.3,0.2 -0.7,0.3 -1,0.5 -0.3,0.1 -0.7,0.2 -1,0.2 H 56.5 C 55.1,26.5 53.8,25.9 52.9,24.9 52.2,24 51.7,23 51.6,22 h 10.2 c -0.3,1.1 -0.8,2.1 -1.6,3 -0.4,0.3 -0.8,0.7 -1.2,0.9 z M 33.4,9 H 45 c 2.2,0 4,1.8 4,4 v 7 h -5 c -2.2,0 -4.1,1.2 -5.2,3 -0.5,0.9 -0.8,1.9 -0.8,3 v 20 h -1 c -2.1,0 -3.9,1.1 -5,2.7 C 30.9,47.1 29.1,46 27,46 H 26 V 26 c 0,-1.1 -0.3,-2.1 -0.8,-3 -1,-1.8 -3,-3 -5.2,-3 h -5 v -7 c 0,-2.2 1.8,-4 4,-4 z M 29,50 H 26.1 C 26,49.7 26,49.3 26,49 v -1 h 1 c 2.2,0 4,1.8 4,4 v 1 h -1 c -1,0 -1.9,-0.4 -2.6,-1 H 29 c 0.6,0 1,-0.4 1,-1 0,-0.6 -0.4,-1 -1,-1 z m 4,2 c 0,-2.2 1.8,-4 4,-4 h 1 v 1 c 0,0.3 -0.1,0.7 -0.1,1 H 35 c -0.6,0 -1,0.4 -1,1 0,0.6 0.4,1 1,1 h 1.6 C 35.9,52.6 35,53 34,53 H 33 Z M 17.6,42.4 C 16.2,41.4 15,38.9 15,37 V 22 h 5 c 2.2,0 4,1.8 4,4 v 23 c 0,1.2 0.4,2.4 1,3.3 1.1,1.6 2.9,2.7 5,2.7 h 1 v 2 H 25.3 L 25,56.3 19.9,43.6 C 19.8,43.2 19.4,43 19,43 18.5,43 18.1,42.8 17.6,42.4 Z M 44.1,43.6 39,56.3 38.7,57 H 33 v -2 h 1 c 2.1,0 3.9,-1.1 5,-2.7 0.6,-1 1,-2.1 1,-3.3 V 26 c 0,-2.2 1.8,-4 4,-4 h 5 v 15 c 0,1.9 -1.2,4.4 -2.6,5.4 -0.5,0.4 -0.9,0.6 -1.4,0.6 -0.4,0 -0.8,0.2 -0.9,0.6 z"
       id="path2"
       inkscape:connector-curvature="0" /><circle
       cx="19"
       cy="28"
       r="2"
       id="circle4" /><circle
       cx="45"
       cy="28"
       r="2"
       id="circle6" /><path
       d="m 28,13 c -0.6,0 -1,0.4 -1,1 0,0.6 0.4,1 1,1 h 9 c 0.6,0 1,-0.4 1,-1 0,-0.6 -0.4,-1 -1,-1 z"
       id="path8"
       inkscape:connector-curvature="0" /><path
       d="m 37,17 h -9 c -0.2,0 -0.4,0.1 -0.6,0.2 C 27.2,17.4 27,17.7 27,18 v 0.2 c 0.1,0.5 0.5,0.8 1,0.8 h 9 c 0.1,0 0.2,0 0.3,-0.1 0.4,-0.1 0.7,-0.5 0.7,-0.9 0,-0.6 -0.4,-1 -1,-1 z"
       id="path10"
       inkscape:connector-curvature="0" /></g><metadata
     id="metadata13"><rdf:RDF><rdf:Description
         about="https://iconscout.com/legal#licenses"
         dc:title="wildebeest"
         dc:description="wildebeest"
         dc:publisher="Iconscout"
         dc:date="2017-09-06"
         dc:format="image/svg+xml"
         dc:language="en"><dc:creator><rdf:Bag><rdf:li>Madeby Grids</rdf:li></rdf:Bag></dc:creator></rdf:Description><cc:Work
         rdf:about=""><dc:format>image/svg+xml</dc:format><dc:type
           rdf:resource="http://purl.org/dc/dcmitype/StillImage" /></cc:Work></rdf:RDF></metadata><path
     style="fill:#ffffff;stroke-width:0.27118644"
     d="m 10.093588,18.454237 c 0.0077,-3.714673 0.376945,-5.860183 1.348243,-7.833169 1.424016,-2.8925858 4.235339,-4.8812246 7.606113,-5.3803177 1.656005,-0.245196 4.701309,0.2872518 6.351287,1.1104732 C 26.686798,6.9936277 28.8,8.766749 28.8,9.2047016 c 0,0.1098421 -2.288136,0.2376181 -5.084746,0.2839463 -5.681624,0.094121 -5.960615,0.1792924 -7.593841,2.3182781 -0.726819,0.951891 -0.747278,1.078129 -0.832028,5.133633 l -0.08689,4.157746 h -2.557182 -2.557181 z"
     id="path20"
     inkscape:connector-curvature="0" /><path
     style="fill:#ffffff;stroke-width:0.27118644"
     d="M 9.4355826,26.775344 C 8.4616968,26.492285 6.9801261,25.089083 6.5443628,24.037057 6.3651498,23.604399 6.2654554,23.2044 6.3228198,23.148171 c 0.057364,-0.05623 1.9042988,-0.03439 4.1042992,0.04853 2.856587,0.107666 4,0.244191 4,0.477606 0,0.591465 -1.206694,2.131732 -2.03482,2.597316 -1.104972,0.621232 -2.017524,0.776699 -2.9567164,0.503724 z"
     id="path22"
     inkscape:connector-curvature="0" /><path
     style="fill:#ffffff;stroke-width:0.27118644"
     d="m 23.803073,48.827119 c -2.588428,-6.785887 -2.746436,-7.118644 -3.380245,-7.118644 -0.80888,0 -1.830981,-0.987584 -2.582115,-2.494915 l -0.70173,-1.408188 v -7.268787 -7.268788 h 2.74764 2.74764 l 0.913377,0.968461 0.913377,0.968462 v 10.791134 c 0,6.094542 0.118597,11.416495 0.272495,12.227996 0.472313,2.490496 2.221382,4.174016 4.676657,4.501389 1.197747,0.159702 1.288136,0.226389 1.288136,0.950376 v 0.778622 H 28.323901 25.949497 Z M 21.72947,29.604106 c 0.30913,-0.392996 0.562055,-0.925691 0.562055,-1.183767 0,-0.837595 -1.060709,-1.898305 -1.898305,-1.898305 -0.837595,0 -1.898305,1.06071 -1.898305,1.898305 0,0.258076 0.252925,0.790771 0.562056,1.183767 0.755229,0.960119 1.917269,0.960119 2.672499,0 z"
     id="path24"
     inkscape:connector-curvature="0" /><path
     style="fill:#ffffff;stroke-width:0.27118644"
     d="m 30.606223,45.782668 c -0.765195,-0.743937 -2.301372,-1.362329 -3.384233,-1.362329 -0.561728,0 -0.56653,-0.072 -0.646503,-9.694915 l -0.08057,-9.694916 -0.743363,-1.264534 C 24.562004,21.742431 23.5116,21.258072 20.054239,21.138841 l -2.915254,-0.100535 v -3.508891 c 0,-3.849925 0.222059,-4.646423 1.545461,-5.543381 0.718027,-0.486655 1.423074,-0.514848 12.875229,-0.514848 11.826939,0 12.133851,0.01338 12.881358,0.561651 1.406088,1.031315 1.714012,2.062852 1.714481,5.743434 l 4.2e-4,3.322034 h -2.654403 c -3.221159,0 -4.612633,0.566538 -5.884343,2.395808 L 36.8,24.669581 l -0.07745,9.875379 -0.07745,9.875379 -0.600513,0.0016 c -1.161882,0.0029 -2.658754,0.578804 -3.558981,1.369212 -0.500359,0.439322 -0.95465,0.785603 -1.009536,0.769514 -0.05489,-0.01608 -0.446315,-0.366148 -0.869841,-0.77791 z m 5.90322,-25.652886 c 0.509563,-0.509563 0.542694,-0.97595 0.100726,-1.417918 -0.455568,-0.455568 -8.656296,-0.455568 -9.111864,0 -0.472022,0.472022 -0.398954,1.231917 0.149153,1.55116 0.261846,0.152511 2.258902,0.280112 4.455205,0.284662 3.264903,0.0068 4.057253,-0.06838 4.40678,-0.417904 z m 0.294687,-3.925847 c 0.378539,-1.19267 -0.171196,-1.342918 -4.913525,-1.342918 h -4.436204 l -0.16629,0.662553 c -0.09146,0.364404 -0.08658,0.791523 0.01084,0.949153 0.113111,0.18302 1.830892,0.286599 4.753017,0.286599 4.373459,0 4.583689,-0.02457 4.752163,-0.555387 z"
     id="path26"
     inkscape:connector-curvature="0" /><path
     style="fill:#ffffff;stroke-width:0.27118644"
     d="M 48.011313,17.05317 C 47.919797,13.05838 47.908472,12.993571 47.101331,11.845839 45.629876,9.7534731 45.103972,9.5916979 39.271528,9.4372881 L 34.149835,9.3016949 35.339324,8.1069361 c 1.507181,-1.5138575 3.361928,-2.3691566 5.982963,-2.7589871 4.601839,-0.6844383 8.618738,1.4739868 10.638513,5.716458 0.805713,1.692372 0.842876,1.927739 0.931335,5.898305 l 0.09214,4.135593 H 50.54413 48.103986 Z"
     id="path28"
     inkscape:connector-curvature="0" /><path
     style="fill:#ffffff;stroke-width:0.27118644"
     d="m 51.028069,26.454237 c -1.062276,-0.536169 -2.409652,-2.192245 -2.426998,-2.983051 -0.0025,-0.111864 1.887065,-0.203389 4.198929,-0.203389 2.311864,0 4.20339,0.06904 4.20339,0.153421 0,0.724978 -1.661574,2.683539 -2.766194,3.26062 -1.023364,0.53463 -1.809424,0.47888 -3.209127,-0.227601 z"
     id="path30"
     inkscape:connector-curvature="0" /><path
     style="fill:#ffffff;stroke-width:0.27118644"
     d="m 49.681356,48.858546 c -1.611294,-0.307665 -2.465437,-0.733788 -3.240682,-1.616743 -0.747978,-0.8519 -0.826643,-1.116269 -0.82218,-2.763104 0.0043,-1.570257 0.116704,-1.986024 0.816451,-3.018728 1.399229,-2.065018 1.619292,-3.334736 1.619292,-9.342979 V 26.691747 L 48.8,27.406064 c 0.871301,0.834562 2.471159,1.556648 3.448917,1.556648 h 0.686676 v 6.942067 c 0,5.863432 0.06889,7.087232 0.443348,7.876352 0.502746,1.059459 1.581008,1.723954 2.797422,1.723954 0.978677,0 0.994576,0.07166 0.274428,1.236885 -0.971252,1.571518 -4.251927,2.597275 -6.769435,2.116576 z"
     id="path32"
     inkscape:connector-curvature="0" /><path
     style="fill:#ffffff;stroke-width:0.27118644"
     d="m 28.257627,58.601701 c -0.716904,-0.262068 -1.627119,-1.243293 -1.627119,-1.754057 0,-0.461606 0.341385,-0.495102 5.045964,-0.495102 4.489843,0 5.027821,0.04728 4.881356,0.42896 -0.09053,0.235927 -0.164608,0.542806 -0.164608,0.681952 0,0.139146 -0.39661,0.494811 -0.881356,0.790366 -0.744456,0.453904 -1.344708,0.534205 -3.864406,0.516977 -1.640678,-0.01122 -3.166102,-0.08731 -3.389831,-0.169096 z"
     id="path34"
     inkscape:connector-curvature="0" /><path
     style="fill:#ffffff;stroke-width:0.27118644"
     d="m 28.549335,50.404863 c -0.288636,-0.182676 -0.185827,-0.2673 0.40678,-0.334831 0.646935,-0.07372 0.809528,-0.234833 0.88255,-0.874505 0.112283,-0.983609 -0.283444,-1.240336 -1.920021,-1.245612 -1.192113,-0.0038 -1.288136,-0.05469 -1.288136,-0.682118 0,-0.591134 0.118902,-0.677966 0.928346,-0.677966 1.587164,0 3.129479,1.832733 3.137939,3.728813 0.0018,0.394373 -1.561395,0.457133 -2.147458,0.08622 z"
     id="path36"
     inkscape:connector-curvature="0" /><path
     style="fill:#ffffff;stroke-width:0.27118644"
     d="m 32.679763,49.505248 c 0.205834,-1.534611 1.641624,-2.915417 3.031509,-2.915417 0.835886,0 0.953135,0.0834 0.953135,0.677966 0,0.62417 -0.09825,0.677966 -1.238167,0.677966 -1.460703,0 -2.287257,0.375846 -2.287257,1.04005 0,0.676849 0.535125,1.128746 1.342373,1.133594 0.546053,0.0033 0.605953,0.05945 0.284746,0.267034 -0.223729,0.144584 -0.819458,0.26475 -1.323843,0.267033 l -0.917063,0.0042 z"
     id="path38"
     inkscape:connector-curvature="0" /><path
     style="fill:#ffffff;stroke-width:0.27118644"
     d="M 9.9525425,48.793515 C 8.6071711,48.438561 7.4519295,47.728962 6.8552783,46.891042 6.0647597,45.780861 6.1468422,45.505085 7.2677967,45.505085 c 0.7486873,0 1.1912116,-0.214941 1.8983051,-0.922034 l 0.9220342,-0.922034 v -7.349153 -7.349152 h 0.822269 c 1.069545,0 2.348849,-0.546949 3.448917,-1.474537 l 0.881356,-0.743168 v 5.684927 c 0,6.222343 0.132493,6.970583 1.61614,9.12699 0.665318,0.967007 0.824457,1.477007 0.824117,2.64109 -5.97e-4,2.008069 -0.658172,3.196688 -2.189083,3.95688 -1.350714,0.670712 -4.180936,0.997006 -5.5393095,0.638621 z"
     id="path23"
     inkscape:connector-curvature="0" /><path
     style="fill:#ffffff;stroke-width:0.27118644"
     d="m 32.59661,53.686172 c 0,-0.739533 0.08316,-0.800211 1.321907,-0.964537 1.645288,-0.218253 3.284148,-1.359924 3.988171,-2.778255 0.48172,-0.970477 0.530516,-1.915837 0.656024,-12.709482 0.14434,-12.413236 0.132124,-12.305973 1.526383,-13.402697 0.615878,-0.48445 1.093395,-0.563404 3.407485,-0.563404 h 2.691232 l -0.08374,7.38983 c -0.08,7.059811 -0.110979,7.440805 -0.693741,8.531245 -0.725945,1.358359 -1.911046,2.519603 -2.571368,2.519603 -0.67206,0 -0.80848,0.279561 -3.308333,6.779661 l -2.242337,5.830508 -2.345843,0.07835 -2.345844,0.07836 z M 43.986441,29.776271 c 1.119952,-1.119952 0.319595,-3.254237 -1.220339,-3.254237 -0.372882,0 -0.922034,0.244068 -1.220339,0.542373 -1.119952,1.119952 -0.319596,3.254237 1.220339,3.254237 0.372881,0 0.922034,-0.244068 1.220339,-0.542373 z"
     id="path25"
     inkscape:connector-curvature="0" /></svg>