<?xml version="1.0" encoding="UTF-8" standalone="no"?>
<svg
   xmlns:dc="http://purl.org/dc/elements/1.1/"
   xmlns:cc="http://creativecommons.org/ns#"
   xmlns:rdf="http://www.w3.org/1999/02/22-rdf-syntax-ns#"
   xmlns:svg="http://www.w3.org/2000/svg"
   xmlns="http://www.w3.org/2000/svg"
   xmlns:sodipodi="http://sodipodi.sourceforge.net/DTD/sodipodi-0.dtd"
   xmlns:inkscape="http://www.inkscape.org/namespaces/inkscape"
   height="100%"
   width="100%"
   version="1.1"
   viewBox="0 0 2048 2048"
   id="svg18"
   sodipodi:docname="wa.svg"
   inkscape:version="0.92.2 2405546, 2018-03-11">
  <metadata
     id="metadata24">
    <rdf:RDF>
      <cc:Work
         rdf:about="">
        <dc:format>image/svg+xml</dc:format>
        <dc:type
           rdf:resource="http://purl.org/dc/dcmitype/StillImage" />
        <dc:title></dc:title>
      </cc:Work>
    </rdf:RDF>
  </metadata>
  <defs
     id="defs22" />
  <sodipodi:namedview
     pagecolor="#ffffff"
     bordercolor="#666666"
     borderopacity="1"
     objecttolerance="10"
     gridtolerance="10"
     guidetolerance="10"
     inkscape:pageopacity="0"
     inkscape:pageshadow="2"
     inkscape:window-width="960"
     inkscape:window-height="1180"
     id="namedview20"
     showgrid="false"
     inkscape:zoom="0.11523438"
     inkscape:cx="1041.3559"
     inkscape:cy="1024"
     inkscape:window-x="0"
     inkscape:window-y="20"
     inkscape:window-maximized="0"
     inkscape:current-layer="svg18" />
  <path
     style="color:#000000;display:block;fill:#000000;fill-rule:nonzero"
     d="m 524,583 q 190,48 504,48 308,0 497,-46 l 25,147 q -201,53 -526,53 -327,0 -525,-54 z m -61,-61 -33,187 q -1,0 -3,4 -5,7 -28,18 -23,11 -55,40 -44,37 -68,60 -24,23 -45,50 -61,84 -68,203 -10,115 93,229 104,114 281,107 66,-4 155,-32 29,-12 59,-23 30,-11 61,-24 16,-8 28,-16 -5,21 -5,42 0,78 55,133 55,55 134,56 78,0 133,-55 55,-55 55,-133 0,-16 -4,-42 14,9 27,15 46,20 121,47 86,29 155,33 177,8 280,-107 101,-114 94,-229 -8,-119 -69,-203 -20,-27 -45,-50 -25,-23 -67,-60 -33,-28 -56,-39 -23,-11 -27,-19 -1,-2 -2,-3 -1,-1 -1,-2 l -32,-188 66,-247 q -50,-45 -224,-74 -174,-29 -402,-29 -232,0 -408,30 -176,30 -221,77 z m 1081,-117 -30,115 q -198,44 -490,44 -291,0 -489,-44 L 503,404 q 191,56 522,56 329,0 519,-55 z m 26,-94 q -193,78 -542,78 -362,0 -548,-80 176,-70 545,-70 176,0 321,19 145,19 224,53 z M 989,853 q -1,39 -3,77 -2,38 -15,86 -41,134 -124,216 -43,42 -132,78 -102,40 -193,40 -158,0 -234,-113 -43,-60 -43,-150 0,-98 48,-161 29,-37 74,-74 45,-37 84,-67 175,63 538,68 z m 35,186 q 7,28 12,39 10,39 23,66 6,17 17,39 11,22 25,52 8,17 17,41 9,24 18,49 8,20 8,43 0,49 -35,83 -35,34 -85,35 -119,0 -119,-119 0,-23 8,-43 22,-65 34,-90 13,-29 24,-51 11,-22 19,-40 13,-33 22,-66 2,-6 12,-38 z m 34,-186 q 172,-2 315,-20 143,-18 224,-47 38,30 83,66 45,36 75,75 48,61 48,161 0,90 -43,150 -77,112 -234,112 -94,0 -193,-39 -87,-35 -132,-78 -84,-84 -124,-216 -14,-47 -16,-85 -2,-38 -3,-79 z m 1,706 h -71 v 131 h -83 q -34,0 -34,33 v 1 q 0,33 34,33 h 83 v 85 q 0,35 36,35 35,0 35,-35 v -85 h 86 q 33,0 33,-33 v -1 q 0,-33 -33,-33 l -85,-1 z"
     display="block"
     id="path2"
     inkscape:connector-curvature="0" />
  <g
     id="g16"
     transform="matrix(1,0,0,-1,0,2048)"
     style="fill:#ffffff;fill-rule:nonzero">
    <path
       style="color:#000000;display:block"
       d="m 524,1465 q 190,-48 504,-48 308,0 497,46 l 25,-147 q -201,-53 -526,-53 -327,0 -525,54 z"
       display="block"
       id="path4"
       inkscape:connector-curvature="0" />
    <path
       style="color:#000000;display:block"
       d="m 1544,1643 -30,-115 q -198,-44 -490,-44 -291,0 -489,44 l -32,116 q 191,-56 522,-56 329,0 519,55 z"
       display="block"
       id="path6"
       inkscape:connector-curvature="0" />
    <path
       style="color:#000000;display:block"
       d="m 1570,1737 q -193,-78 -542,-78 -362,0 -548,80 176,70 545,70 176,0 321,-19 145,-19 224,-53 z"
       display="block"
       id="path8"
       inkscape:connector-curvature="0" />
    <path
       style="color:#000000;display:block"
       d="m 989,1195 q -1,-39 -3,-77 -2,-38 -15,-86 Q 930,898 847,816 804,774 715,738 613,698 522,698 q -158,0 -234,113 -43,60 -43,150 0,98 48,161 29,37 74,74 45,37 84,67 175,-63 538,-68 z"
       display="block"
       id="path10"
       inkscape:connector-curvature="0" />
    <path
       style="color:#000000;display:block"
       d="m 1024,1009 q 7,-28 12,-39 10,-39 23,-66 6,-17 17,-39 11,-22 25,-52 8,-17 17,-41 9,-24 18,-49 8,-20 8,-43 0,-49 -35,-83 -35,-34 -85,-35 -119,0 -119,119 0,23 8,43 22,65 34,90 13,29 24,51 11,22 19,40 13,33 22,66 2,6 12,38 z"
       display="block"
       id="path12"
       inkscape:connector-curvature="0" />
    <path
       style="color:#000000;display:block"
       d="m 1058,1195 q 172,2 315,20 143,18 224,47 38,-30 83,-66 45,-36 75,-75 48,-61 48,-161 0,-90 -43,-150 -77,-112 -234,-112 -94,0 -193,39 -87,35 -132,78 -84,84 -124,216 -14,47 -16,85 -2,38 -3,79 z"
       display="block"
       id="path14"
       inkscape:connector-curvature="0" />
  </g>
</svg>
