<?xml version="1.0" encoding="UTF-8" standalone="no"?>
<svg
   viewBox="0 0 50 50"
   version="1.1"
   id="svg5"
   sodipodi:docname="bG.svg"
   inkscape:version="1.1 (ce6663b3b7, 2021-05-25)"
   xmlns:inkscape="http://www.inkscape.org/namespaces/inkscape"
   xmlns:sodipodi="http://sodipodi.sourceforge.net/DTD/sodipodi-0.dtd"
   xmlns="http://www.w3.org/2000/svg"
   xmlns:svg="http://www.w3.org/2000/svg"
   xmlns:rdf="http://www.w3.org/1999/02/22-rdf-syntax-ns#"
   xmlns:cc="http://creativecommons.org/ns#"
   xmlns:dc="http://purl.org/dc/elements/1.1/">
  <defs
     id="defs9" />
  <sodipodi:namedview
     pagecolor="#ffffff"
     bordercolor="#666666"
     borderopacity="1"
     objecttolerance="10"
     gridtolerance="10"
     guidetolerance="10"
     inkscape:pageopacity="0"
     inkscape:pageshadow="2"
     inkscape:window-width="1294"
     inkscape:window-height="704"
     id="namedview7"
     showgrid="false"
     inkscape:zoom="4.72"
     inkscape:cx="25.529661"
     inkscape:cy="24.894068"
     inkscape:window-x="72"
     inkscape:window-y="27"
     inkscape:window-maximized="1"
     inkscape:current-layer="svg5"
     inkscape:pagecheckerboard="0" />
  <metadata
     id="metadata3">
    <rdf:RDF>
      <rdf:Description
         about="https://iconscout.com/legal#licenses"
         dc:title="grasshopper,filled"
         dc:description="grasshopper,filled"
         dc:publisher="Iconscout"
         dc:date="2017-12-07"
         dc:format="image/svg+xml"
         dc:language="en">
        <dc:creator>
          <rdf:Bag>
            <rdf:li>Icons8</rdf:li>
          </rdf:Bag>
        </dc:creator>
      </rdf:Description>
      <cc:Work
         rdf:about="">
        <dc:format>image/svg+xml</dc:format>
        <dc:type
           rdf:resource="http://purl.org/dc/dcmitype/StillImage" />
      </cc:Work>
    </rdf:RDF>
  </metadata>
  <g
     id="g418">
    <path
       d="m 44.50138,3.2700507 c -0.03991,0.008 -0.07981,0.02 -0.116006,0.031 a 0.92990442,1.002 0 0 0 -0.724805,1 c 0,7.1520003 -4.379461,10.9060003 -4.379461,10.9060003 l -0.02877,0.031 c -0.300688,0.04 -0.593951,0.102 -0.870509,0.25 -0.928048,0.399 -2.153073,1.102 -3.450484,2 -0.834315,0.5 -1.762363,1.118 -2.784145,1.72 0,0 -0.08724,-0.009 -0.08724,0.093 -0.558686,0.398 -5.3734,2.805 -11.311053,5.406 0.743366,0.7 1.4691,1.489 2.117806,2.188 1.856097,2.101 2.504802,4.718 1.856097,7.218 -0.743368,2.602 -2.773937,4.68 -5.27874,5.282 -0.464024,0.101 -1.014356,0.218 -1.47838,0.218 -1.762364,0 -3.433779,-0.82 -4.640242,-2.218 l -0.580953,-0.594 c 0,1 -0.347091,2.293 -0.811115,3.594 0.464024,0.101 0.742439,0.21 0.928049,0.312 0.369363,0.102 1.833823,0.594 4.059283,0.594 3.806854,0 7.164533,-1.988 9.948679,-4.688 l -0.841741,-5.812 c -0.09466,-0.5 0.290479,-1.094 0.754503,-1.094 0.464025,-0.101 1.014358,0.282 1.014358,0.782 l 0.638496,4.5 a 39.68613,42.763 0 0 0 2.870455,-3.626 l 0.725733,0.657 2.900151,6.812 a 0.92526418,0.997 0 0 0 1.246369,0.469 c 0,0 0.366579,-0.18 0.783273,-0.25 0.417621,-0.07 0.682115,-0.055 0.870509,0.188 a 0.93766965,1.0103673 0 0 0 1.449611,-1.282 c -0.739654,-0.957 -1.866305,-1.035 -2.609672,-0.906 -0.232012,0.04 -0.221803,0.094 -0.406484,0.156 l -2.609673,-6.218 a 0.94846539,1.022 0 0 0 -0.26171,-0.375 l -0.985587,-0.844 a 66.564266,71.725 0 0 0 1.50808,-2.375 c 0.833387,2.601 1.768859,4.218 3.160932,4.218 1.762363,0 6.874054,-3.511 6.874054,-8.812 0,-1.86 -0.410198,-3.777 -1.160061,-5.219 1.478381,-1.047 4.80729,-3.914 5.509824,-9.1250003 a 0.93083247,1.003 0 0 0 -0.25707,-0.879 0.93083247,1.003 0 0 0 -0.816683,-0.277 0.92248004,0.994 0 0 0 -0.782344,0.844 c -0.652419,4.8360003 -3.8282,7.2300003 -4.814716,7.8750003 -0.09002,-0.082 -0.194889,-0.149 -0.28955,-0.219 1.457036,-1.695 4.176217,-5.617 4.176217,-11.5000003 a 0.92804833,1 0 0 0 -1.015285,-1.031 z M 6.4513988,15.364051 a 2.7238218,2.935 0 0 0 -1.4783811,0.53 c -1.1136579,0.802 -1.5090065,2.305 -1.0449823,3.907 l 4.4666966,23.906 c -1.2974116,-0.398 -3.3456142,-0.511 -5.9450776,0.688 -0.4640242,0.199 -0.6496338,0.812 -0.4640242,1.312 0.093733,0.399 0.4714485,0.594 0.8408118,0.594 0.094661,0 0.2784145,-0.008 0.4640241,0.094 3.7121934,-1.7 5.8513448,-0.196 5.9450776,-0.094 0.2793426,0.2 0.735942,0.2 1.0152853,0 0.278415,-0.2 0.471448,-0.602 0.376788,-1 l -0.8408126,-4.313 c 0,-0.101 0.087236,-0.085 0.087236,-0.187 1.3920726,-3.398 1.4969426,-7.2 1.2176006,-10 0.370291,0.5 0.645922,1 1.015284,1.5 0.928049,1.3 1.682552,2.492 2.6106,3.594 1.112731,1.3 2.678347,1.804 4.349763,1.406 1.761436,-0.398 3.422642,-2.008 3.886666,-3.906 0.464024,-1.801 0,-3.688 -1.392072,-5.188 -2.414782,-2.699 -5.847633,-5.71 -8.816459,-8.312 -1.392073,-1.301 -2.690413,-2.508 -3.7121938,-3.407 -0.8120423,-0.75 -1.7113211,-1.152 -2.5818304,-1.125 z m 33.0329522,5.937 c 0.742439,0 1.392072,0.7 1.392072,1.5 0,0.8 -0.649633,1.5 -1.392072,1.5 -0.742438,0 -1.392073,-0.7 -1.392073,-1.5 0,-0.8 0.649635,-1.5 1.392073,-1.5 z m -35.2658365,10.313 c -0.5586851,0.199 -1.1229385,0.398 -1.6825516,0.5 -0.2784145,0 -0.4528876,0.292 -0.6375693,0.593 -0.094661,0.301 -0.011137,0.7 0.1744731,1 0.093733,0.102 1.304836,1.696 3.1609327,3.094 z m 24.3037305,3.375 c -0.558686,0.601 -1.095098,1.117 -1.653783,1.718 l 0.26171,1.907 c 0,0.199 0.108581,0.398 0.202315,0.5 l 3.886666,5 c 0.278414,0.398 0.761,0.48 1.130363,0.28 0.279342,-0.1 1.283491,-0.491 1.653782,-0.093 0.184682,0.2 0.474232,0.406 0.753575,0.406 0.18561,0 0.4566,-0.117 0.55126,-0.218 0.369364,-0.399 0.4566,-0.977 0.08724,-1.376 -0.834316,-1.101 -2.226387,-1.113 -3.248169,-0.812 l -3.335406,-4.188 z"
       id="surface1"
       inkscape:connector-curvature="0"
       style="stroke-width:0.963353" />
    <path
       inkscape:connector-curvature="0"
       style="fill:none;stroke:#000000;stroke-width:3.64337;stroke-linecap:round;stroke-linejoin:miter;stroke-miterlimit:4;stroke-dasharray:none;stroke-opacity:1"
       d="M 12.835054,10.002621 24.545894,5.7086423 36.256738,10.002621"
       id="path3926-0-7-3" />
  </g>
</svg>
