<?xml version="1.0" encoding="UTF-8" standalone="no"?>
<svg
   clip-rule="evenodd"
   fill-rule="evenodd"
   height="50mm"
   image-rendering="optimizeQuality"
   shape-rendering="geometricPrecision"
   text-rendering="geometricPrecision"
   viewBox="0 0 50 50"
   width="50mm"
   version="1.1"
   id="svg4"
   sodipodi:docname="bP.svg"
   inkscape:version="1.1 (ce6663b3b7, 2021-05-25)"
   xmlns:inkscape="http://www.inkscape.org/namespaces/inkscape"
   xmlns:sodipodi="http://sodipodi.sourceforge.net/DTD/sodipodi-0.dtd"
   xmlns="http://www.w3.org/2000/svg"
   xmlns:svg="http://www.w3.org/2000/svg">
  <defs
     id="defs8" />
  <sodipodi:namedview
     id="namedview6"
     pagecolor="#ffffff"
     bordercolor="#666666"
     borderopacity="1.0"
     inkscape:pageshadow="2"
     inkscape:pageopacity="0.0"
     inkscape:pagecheckerboard="0"
     inkscape:document-units="mm"
     showgrid="false"
     inkscape:zoom="1.4075833"
     inkscape:cx="32.324907"
     inkscape:cy="91.29122"
     inkscape:window-width="1294"
     inkscape:window-height="704"
     inkscape:window-x="72"
     inkscape:window-y="27"
     inkscape:window-maximized="1"
     inkscape:current-layer="svg4" />
  <g
     id="g37"
     transform="translate(-2.1826264,1.2015149)">
    <path
       d="M 25,46.448 H 11.606 a 13.139,13.139 0 0 1 -0.99,-5.043 c 0,-2.975 0.863,-5.644 2.598,-8.018 1.736,-2.365 3.971,-4.054 6.697,-5.067 A 6.824,6.824 0 0 1 17.05,25.922 c -0.737,-1.071 -1.1,-2.283 -1.1,-3.634 0,-1.69 0.575,-3.156 1.735,-4.392 1.151,-1.244 2.574,-1.961 4.267,-2.15 -1.346,-0.981 -2.015,-2.283 -2.015,-3.89 0,-1.351 0.491,-2.513 1.482,-3.477 0.982,-0.964 2.176,-1.442 3.581,-1.442 1.389,0 2.582,0.478 3.573,1.442 0.991,0.964 1.49,2.126 1.49,3.477 0,1.607 -0.669,2.909 -2.015,3.89 1.693,0.189 3.116,0.906 4.267,2.15 1.16,1.236 1.736,2.703 1.736,4.392 0,1.351 -0.373,2.563 -1.126,3.634 a 7.036,7.036 0 0 1 -2.862,2.398 c 2.726,1.013 4.962,2.702 6.697,5.067 1.736,2.374 2.6,5.043 2.6,8.018 0,1.739 -0.322,3.42 -0.966,5.043 z"
       fill="#1f1a17"
       id="path2" />
    <g
       id="b~-0-3"
       inkscape:label="#b~"
       transform="matrix(0.40300979,0,0,0.40300979,-101.95304,-218.4716)">
      <path
         inkscape:connector-curvature="0"
         style="fill:none;stroke:#000000;stroke-width:9.60122;stroke-linecap:round;stroke-linejoin:miter;stroke-miterlimit:4;stroke-dasharray:none;stroke-opacity:1"
         d="m 284.74837,556.2746 30.86105,-11.31573 30.86106,11.31573"
         id="path3926-0-7-8-6" />
    </g>
  </g>
</svg>
