<?xml version="1.0" encoding="UTF-8" standalone="no"?>
<svg
   clip-rule="evenodd"
   fill-rule="evenodd"
   height="50mm"
   image-rendering="optimizeQuality"
   shape-rendering="geometricPrecision"
   text-rendering="geometricPrecision"
   viewBox="0 0 50 50"
   width="50mm"
   version="1.1"
   id="svg11"
   sodipodi:docname="bQ.svg"
   inkscape:version="1.1 (ce6663b3b7, 2021-05-25)"
   xmlns:inkscape="http://www.inkscape.org/namespaces/inkscape"
   xmlns:sodipodi="http://sodipodi.sourceforge.net/DTD/sodipodi-0.dtd"
   xmlns:xlink="http://www.w3.org/1999/xlink"
   xmlns="http://www.w3.org/2000/svg"
   xmlns:svg="http://www.w3.org/2000/svg">
  <defs
     id="defs15">
    <linearGradient
       inkscape:collect="always"
       xlink:href="#linearGradient2192"
       id="linearGradient2400"
       gradientUnits="userSpaceOnUse"
       x1="21.253071"
       y1="37.223587"
       x2="77.76413"
       y2="37.3596" />
    <linearGradient
       inkscape:collect="always"
       id="linearGradient2192">
      <stop
         style="stop-color:#ffffff;stop-opacity:1;"
         offset="0"
         id="stop2194" />
      <stop
         style="stop-color:#ffffff;stop-opacity:0;"
         offset="1"
         id="stop2196" />
    </linearGradient>
    <linearGradient
       inkscape:collect="always"
       xlink:href="#linearGradient2192"
       id="linearGradient287"
       gradientUnits="userSpaceOnUse"
       x1="21.253071"
       y1="37.223587"
       x2="77.76413"
       y2="37.3596" />
  </defs>
  <sodipodi:namedview
     id="namedview13"
     pagecolor="#ffffff"
     bordercolor="#666666"
     borderopacity="1.0"
     inkscape:pageshadow="2"
     inkscape:pageopacity="0.0"
     inkscape:pagecheckerboard="0"
     inkscape:document-units="mm"
     showgrid="false"
     inkscape:zoom="0.70379167"
     inkscape:cx="-145.63969"
     inkscape:cy="12.077438"
     inkscape:window-width="1294"
     inkscape:window-height="704"
     inkscape:window-x="72"
     inkscape:window-y="27"
     inkscape:window-maximized="1"
     inkscape:current-layer="svg11" />
  <linearGradient
     id="a"
     gradientUnits="userSpaceOnUse"
     x1="21.253"
     x2="77.764"
     y1="37.224"
     y2="37.36">
    <stop
       offset="0"
       stop-color="#fff"
       id="stop2" />
    <stop
       offset="1"
       stop-color="#fff"
       stop-opacity="0"
       id="stop4" />
  </linearGradient>
  <g
     id="q~"
     inkscape:label="#q~"
     transform="matrix(0.28888239,0,0,0.28888239,-65.882177,-50.6821)">
    <g
       inkscape:label="#q~"
       id="q-q">
      <g
         transform="matrix(3.0135828,0,0,3.0135828,229.15995,196.50627)"
         id="q-32"
         style="fill-rule:evenodd"
         inkscape:transform-center-y="26.263966">
        <g
           id="Layer_x0020_1-28-6">
          <metadata
             id="CorelCorpID_0Corel-Layer-9-1" />
          <path
             style="fill:#1f1a17"
             inkscape:connector-curvature="0"
             id="path8-3-7"
             d="" />
          <path
             inkscape:connector-curvature="0"
             d="m 37.2005,35.7291 c -3.0396,-0.8382 -7.0951,-1.2616 -12.1497,-1.2616 -5.0969,0 -9.1948,0.4318 -12.3021,1.287 l 0.3726,2.5061 c 3.1242,-0.8128 7.095,-1.2192 11.9295,-1.2192 4.8091,0 8.7291,0.3979 11.7517,1.1938 z m 1.7356,-4.4366 c -1.3716,-0.4995 -3.302,-0.9059 -5.7912,-1.2276 -2.4892,-0.3218 -5.2324,-0.4826 -8.2465,-0.4826 -2.9464,0 -5.6388,0.1524 -8.0857,0.4572 -2.4468,0.3048 -4.3772,0.7027 -5.7827,1.2022 l 1.2446,2.2522 c 1.3885,-0.4064 3.1919,-0.7028 5.4102,-0.889 2.2098,-0.1778 4.6313,-0.271 7.2644,-0.271 2.6331,0 5.0631,0.0932 7.2898,0.271 2.2352,0.1862 4.0471,0.491 5.4356,0.9144 z m -1.0922,11.8534 -0.7366,-2.9295 c -3.2258,-0.7366 -7.2813,-1.1091 -12.1581,-1.1091 -4.826,0 -8.8646,0.3725 -12.1073,1.1091 l -0.7874,2.9549 c 3.1411,-0.9568 7.4422,-1.4394 12.9201,-1.4394 2.6247,0 5.0715,0.1355 7.3152,0.398 2.2521,0.2624 4.1063,0.6011 5.5541,1.016 z"
             id="path18-3"
             style="fill:url(#linearGradient287);fill-opacity:1" />
        </g>
      </g>
      <g
         transform="matrix(4.5,0,0,4.5,-2517.0085,342.62798)"
         id="layer1-1-9"
         inkscape:label="Layer 1">
        <g
           inkscape:label=""
           transform="matrix(0.853442,0,0,0.853442,275.68797,9.3878976)"
           id="g208">
          <path
             id="path3926"
             d="m 404.32747,-47.614687 8.03571,-2.946429 8.03571,2.946429"
             style="fill:none;stroke:#000000;stroke-width:2.5;stroke-linecap:round;stroke-linejoin:miter;stroke-miterlimit:4;stroke-dasharray:none;stroke-opacity:1"
             inkscape:connector-curvature="0" />
        </g>
        <g
           inkscape:label=""
           transform="matrix(0.8712483,0,0,0.8712483,103.9538,95.400096)"
           id="g211" />
      </g>
    </g>
    <g
       style="fill-rule:evenodd"
       id="q-3"
       transform="matrix(3.0014392,0,0,3.0014392,232.71882,198.63604)">
      <g
         id="Layer_x0020_1-28-5">
        <metadata
           id="CorelCorpID_0Corel-Layer-9-6" />
        <path
           id="path6-7-2"
           d="m 24.9492,10.7524 c -0.9398,0 -1.7441,-0.3302 -2.3961,-0.9906 -0.6519,-0.6604 -0.9736,-1.4647 -0.9736,-2.4045 0,-0.9314 0.3217,-1.7272 0.9736,-2.3876 0.652,-0.6604 1.4563,-0.9906 2.3961,-0.9906 0.9229,0 1.7272,0.3302 2.3961,0.9906 0.6688,0.6604 0.999,1.4562 0.999,2.3876 0,0.9398 -0.3302,1.7441 -0.999,2.4045 -0.6689,0.6604 -1.4732,0.9906 -2.3961,0.9906 z"
           inkscape:connector-curvature="0"
           style="fill:#1f1a17" />
        <path
           id="path8-3-9"
           d="m 40.2315,43.9417 c -0.8128,0.7112 -2.6331,1.3039 -5.461,1.7865 -2.8278,0.4741 -6.0875,0.7197 -9.7705,0.7197 -3.7507,0 -7.0527,-0.254 -9.8975,-0.7451 -2.8448,-0.4995 -4.6398,-1.1176 -5.3848,-1.8627 l 1.5663,-5.952 -0.6943,-3.8947 -2.1844,-3.7931 -2.1082,-15.4262 1.2108,-0.4742 6.7987,11.4554 0.1524,-13.6398 1.6849,-0.2963 5.1816,13.716 2.777,-14.7574 h 1.7188 l 2.777,14.7066 5.1308,-13.6652 1.7103,0.2963 0.1524,13.6398 6.8241,-11.4808 1.16,0.5419 -2.0574,15.3585 -2.2098,3.7931 -0.6943,3.9455 z"
           inkscape:connector-curvature="0"
           style="fill:#1f1a17" />
        <path
           id="path10-6-1"
           d="m 14.5352,11.9885 c -0.9483,0 -1.7526,-0.3217 -2.413,-0.9736 -0.6604,-0.652 -0.9906,-1.4563 -0.9906,-2.3961 0,-0.9229 0.3302,-1.7187 0.9906,-2.3791 0.6604,-0.6604 1.4647,-0.9906 2.413,-0.9906 0.9229,0 1.7187,0.3302 2.3791,0.9906 0.6604,0.6604 0.9906,1.4562 0.9906,2.3791 0,0.9398 -0.3302,1.7441 -0.9906,2.3961 -0.6604,0.6519 -1.4562,0.9736 -2.3791,0.9736 z"
           inkscape:connector-curvature="0"
           style="fill:#1f1a17" />
        <path
           id="path12-27"
           d="m 35.3632,11.9885 c -0.9398,0 -1.7357,-0.3217 -2.3876,-0.9736 -0.6519,-0.652 -0.9821,-1.4563 -0.9821,-2.3961 0,-0.9229 0.3302,-1.7187 0.9821,-2.3791 0.6519,-0.6604 1.4478,-0.9906 2.3876,-0.9906 0.9483,0 1.7526,0.3302 2.413,0.9906 0.6604,0.6604 0.9906,1.4562 0.9906,2.3791 0,0.9398 -0.3302,1.7441 -0.9906,2.3961 -0.6604,0.6519 -1.4647,0.9736 -2.413,0.9736 z"
           inkscape:connector-curvature="0"
           style="fill:#1f1a17" />
        <path
           id="path14-09"
           d="m 5.3997,14.7233 c -0.9398,0 -1.7357,-0.3302 -2.3876,-0.9822 -0.652,-0.6519 -0.9822,-1.4478 -0.9822,-2.396 0,-0.9229 0.3302,-1.7188 0.9822,-2.3876 0.6519,-0.6774 1.4478,-1.0076 2.3876,-1.0076 0.9482,0 1.7441,0.3302 2.413,1.0076 0.6604,0.6688 0.9906,1.4647 0.9906,2.3876 0,0.9482 -0.3302,1.7441 -0.9906,2.396 -0.6689,0.652 -1.4648,0.9822 -2.413,0.9822 z"
           inkscape:connector-curvature="0"
           style="fill:#1f1a17" />
        <path
           id="path16-3"
           d="m 44.5411,14.7233 c -0.9398,0 -1.7442,-0.3302 -2.4046,-0.9822 -0.6604,-0.6519 -0.9906,-1.4478 -0.9906,-2.396 0,-0.9229 0.3302,-1.7188 0.9906,-2.3876 0.6604,-0.6774 1.4648,-1.0076 2.4046,-1.0076 0.9313,0 1.7272,0.3302 2.3876,1.0076 0.6604,0.6688 0.9906,1.4647 0.9906,2.3876 0,0.9482 -0.3302,1.7441 -0.9906,2.396 -0.6604,0.652 -1.4563,0.9822 -2.3876,0.9822 z"
           inkscape:connector-curvature="0"
           style="fill:#1f1a17" />
        <path
           style="fill:url(#linearGradient2400);fill-opacity:1"
           id="path18-6"
           d="m 37.2005,35.7291 c -3.0396,-0.8382 -7.0951,-1.2616 -12.1497,-1.2616 -5.0969,0 -9.1948,0.4318 -12.3021,1.287 l 0.3726,2.5061 c 3.1242,-0.8128 7.095,-1.2192 11.9295,-1.2192 4.8091,0 8.7291,0.3979 11.7517,1.1938 z m 1.7356,-4.4366 c -1.3716,-0.4995 -3.302,-0.9059 -5.7912,-1.2276 -2.4892,-0.3218 -5.2324,-0.4826 -8.2465,-0.4826 -2.9464,0 -5.6388,0.1524 -8.0857,0.4572 -2.4468,0.3048 -4.3772,0.7027 -5.7827,1.2022 l 1.2446,2.2522 c 1.3885,-0.4064 3.1919,-0.7028 5.4102,-0.889 2.2098,-0.1778 4.6313,-0.271 7.2644,-0.271 2.6331,0 5.0631,0.0932 7.2898,0.271 2.2352,0.1862 4.0471,0.491 5.4356,0.9144 z m -1.0922,11.8534 -0.7366,-2.9295 c -3.2258,-0.7366 -7.2813,-1.1091 -12.1581,-1.1091 -4.826,0 -8.8646,0.3725 -12.1073,1.1091 l -0.7874,2.9549 c 3.1411,-0.9568 7.4422,-1.4394 12.9201,-1.4394 2.6247,0 5.0715,0.1355 7.3152,0.398 2.2521,0.2624 4.1063,0.6011 5.5541,1.016 z"
           inkscape:connector-curvature="0" />
      </g>
    </g>
  </g>
</svg>
