<?xml version="1.0" encoding="UTF-8" standalone="no"?>
<!-- Created with Inkscape (http://www.inkscape.org/) -->

<svg
   height="26"
   width="26"
   version="1.0"
   id="svg25"
   sodipodi:docname="bS.svg"
   inkscape:version="1.1 (ce6663b3b7, 2021-05-25)"
   xmlns:inkscape="http://www.inkscape.org/namespaces/inkscape"
   xmlns:sodipodi="http://sodipodi.sourceforge.net/DTD/sodipodi-0.dtd"
   xmlns:xlink="http://www.w3.org/1999/xlink"
   xmlns="http://www.w3.org/2000/svg"
   xmlns:svg="http://www.w3.org/2000/svg"
   xmlns:rdf="http://www.w3.org/1999/02/22-rdf-syntax-ns#"
   xmlns:cc="http://creativecommons.org/ns#"
   xmlns:dc="http://purl.org/dc/elements/1.1/">
  <defs
     id="defs29">
    <filter
       style="color-interpolation-filters:sRGB;"
       inkscape:label="Colorize"
       id="filter283"
       x="-0.036630004"
       y="-0.034559186"
       width="1.0732792"
       height="1.0701953">
      <feComposite
         in2="SourceGraphic"
         operator="arithmetic"
         k1="0"
         k2="1"
         result="composite1"
         id="feComposite269" />
      <feColorMatrix
         in="composite1"
         values="1"
         type="saturate"
         result="colormatrix1"
         id="feColorMatrix271" />
      <feFlood
         flood-opacity="1"
         flood-color="rgb(26,23,21)"
         result="flood1"
         id="feFlood273" />
      <feBlend
         in="flood1"
         in2="colormatrix1"
         mode="multiply"
         result="blend1"
         id="feBlend275" />
      <feBlend
         in2="blend1"
         mode="screen"
         result="blend2"
         id="feBlend277" />
      <feColorMatrix
         in="blend2"
         values="1"
         type="saturate"
         result="colormatrix2"
         id="feColorMatrix279" />
      <feComposite
         in="colormatrix2"
         in2="SourceGraphic"
         operator="in"
         k2="1"
         result="composite2"
         id="feComposite281" />
    </filter>
    <filter
       style="color-interpolation-filters:sRGB;"
       inkscape:label="Colorize"
       id="filter299"
       x="-0.017857143"
       y="-0.032608639"
       width="1.0357143"
       height="1.0673878">
      <feComposite
         in2="SourceGraphic"
         operator="arithmetic"
         k1="0"
         k2="1"
         result="composite1"
         id="feComposite285" />
      <feColorMatrix
         in="composite1"
         values="1"
         type="saturate"
         result="colormatrix1"
         id="feColorMatrix287" />
      <feFlood
         flood-opacity="1"
         flood-color="rgb(26,23,21)"
         result="flood1"
         id="feFlood289" />
      <feBlend
         in="flood1"
         in2="colormatrix1"
         mode="multiply"
         result="blend1"
         id="feBlend291" />
      <feBlend
         in2="blend1"
         mode="screen"
         result="blend2"
         id="feBlend293" />
      <feColorMatrix
         in="blend2"
         values="1"
         type="saturate"
         result="colormatrix2"
         id="feColorMatrix295" />
      <feComposite
         in="colormatrix2"
         in2="SourceGraphic"
         operator="in"
         k2="1"
         result="composite2"
         id="feComposite297" />
    </filter>
  </defs>
  <sodipodi:namedview
     pagecolor="#ffffff"
     bordercolor="#666666"
     borderopacity="1"
     objecttolerance="10"
     gridtolerance="10"
     guidetolerance="10"
     inkscape:pageopacity="0"
     inkscape:pageshadow="2"
     inkscape:window-width="1294"
     inkscape:window-height="704"
     id="namedview27"
     showgrid="false"
     inkscape:zoom="12.836708"
     inkscape:cx="4.7909481"
     inkscape:cy="11.256781"
     inkscape:window-x="72"
     inkscape:window-y="27"
     inkscape:window-maximized="1"
     inkscape:current-layer="svg25"
     inkscape:pagecheckerboard="0" />
  <metadata
     id="metadata2">
    <rdf:RDF>
      <cc:Work
         rdf:about="">
        <dc:format>image/svg+xml</dc:format>
        <dc:type
           rdf:resource="http://purl.org/dc/dcmitype/StillImage" />
        <dc:title />
      </cc:Work>
    </rdf:RDF>
  </metadata>
  <g
     id="g71"
     transform="matrix(0.85287362,0,0,0.85287362,2.2092658,2.0240354)">
    <g
       id="g44"
       transform="translate(-0.44626526,1.5688014)">
      <g
         transform="matrix(0.75757574,0,0,0.75757574,2.8791515,-7.9393932)"
         id="g10"
         style="filter:url(#filter283)">
        <path
           stroke-linejoin="miter"
           d="m 14.44,29.5 c 0.222,1.68 -3.09,4.06 -4.5,5 -1.73,1.16 -1.74,2.7 -3,2.5 -0.602,-0.545 0.817,-2.02 0,-2 -0.58,0 0.19,1.1 -0.5,1.5 -0.58,0 -2.5,0.4 -2.5,-2.5 0,-1.2 3.5,-6.5 3.5,-6.5 0,0 0.934,-1.08 1,-2 -0.419,-0.575 -0.258,-1.48 0,-2 0.365,-0.731 1.5,1.5 1.5,1.5 h 1 c 0,0 0.5,-1.5 1.5,-2 0.517,-0.258 0.5,2 0.5,2 6.07,0.578 9.29,4.37 9,16.5 H 9.44 c 0,-4.9 4.8,-3.7 4.5,-10.5"
           fill-rule="evenodd"
           stroke="#000000"
           stroke-linecap="round"
           stroke-miterlimit="4"
           stroke-dasharray="none"
           stroke-width="1.32"
           fill="#ffffff"
           id="path4" />
        <path
           fill="#000000"
           d="m 9,23.5 a 0.5,0.5 0 1 1 -1,0 0.5,0.5 0 1 1 1,0 z"
           transform="translate(-3.4999999,10)"
           id="path6" />
        <path
           fill="#000000"
           d="M 9.6058,30.28 A 1.0281,1.4729 30 0 1 7.8251,29.252 1.0281,1.4729 30 0 1 9.6058,30.28 Z"
           id="path8" />
      </g>
      <g
         transform="translate(0,-4)"
         id="g23"
         style="filter:url(#filter299)">
        <path
           stroke-linejoin="round"
           d="m 18,18 4,-8 -4,4 V 8 l -3,5.125 -2,-5 -2,5 L 8,8 v 6 l -4,-4 3,8 c 0,0 2.0349,-2.5 6,-2.5 3.9651,0 5,2.5 5,2.5 z"
           fill-rule="evenodd"
           stroke="#000000"
           stroke-linecap="butt"
           stroke-miterlimit="4"
           stroke-dasharray="none"
           stroke-width="0.8"
           fill="#ffffff"
           id="path12" />
        <path
           id="path3804"
           stroke-linejoin="miter"
           d="m 5.5,10 a 1.5,1.5 0 0 1 -3,0 1.5,1.5 0 1 1 3,0 z"
           stroke-dashoffset="0"
           stroke="#000000"
           stroke-linecap="butt"
           stroke-miterlimit="4"
           stroke-dasharray="none"
           stroke-width="0.75"
           fill="#ffffff" />
        <use
           xlink:href="#path3804"
           transform="translate(4,-2)"
           height="26"
           width="26"
           y="0"
           x="0"
           id="use15" />
        <use
           xlink:href="#path3804"
           transform="translate(9,-2)"
           height="26"
           width="26"
           y="0"
           x="0"
           id="use17" />
        <use
           xlink:href="#path3804"
           transform="matrix(-1,0,0,1,26,0)"
           height="26"
           width="26"
           y="0"
           x="0"
           id="use19" />
        <use
           xlink:href="#path3804"
           transform="matrix(-1,0,0,1,22,-2)"
           height="26"
           width="26"
           y="0"
           x="0"
           id="use21" />
      </g>
    </g>
    <g
       id="b~-0"
       inkscape:label="#b~"
       transform="matrix(0.22355367,0,0,0.22355367,-57.350709,-121.634)">
      <path
         inkscape:connector-curvature="0"
         style="fill:none;stroke:#000000;stroke-width:9.60122;stroke-linecap:round;stroke-linejoin:miter;stroke-miterlimit:4;stroke-dasharray:none;stroke-opacity:1"
         d="m 284.74837,556.2746 30.86105,-11.31573 30.86106,11.31573"
         id="path3926-0-7-8" />
    </g>
  </g>
</svg>
