<?xml version="1.0" encoding="UTF-8" standalone="no"?>
<svg
   width="92"
   height="92"
   id="svg2"
   version="1.1"
   inkscape:version="1.2.2 (732a01da63, 2022-12-09)"
   sodipodi:docname="black_cannon.svg"
   xmlns:inkscape="http://www.inkscape.org/namespaces/inkscape"
   xmlns:sodipodi="http://sodipodi.sourceforge.net/DTD/sodipodi-0.dtd"
   xmlns="http://www.w3.org/2000/svg"
   xmlns:svg="http://www.w3.org/2000/svg"
   xmlns:rdf="http://www.w3.org/1999/02/22-rdf-syntax-ns#"
   xmlns:cc="http://creativecommons.org/ns#"
   xmlns:dc="http://purl.org/dc/elements/1.1/">
  <metadata
     id="metadata12">
    <rdf:RDF>
      <cc:Work
         rdf:about="">
        <dc:format>image/svg+xml</dc:format>
        <dc:type
           rdf:resource="http://purl.org/dc/dcmitype/StillImage" />
        <dc:title />
      </cc:Work>
    </rdf:RDF>
  </metadata>
  <defs
     id="defs10">
    <filter
       height="1.5"
       width="1.5"
       y="0"
       x="0"
       id="f1"
       color-interpolation-filters="sRGB">
      <feOffset
         id="feOffset3039"
         dy="0"
         dx="1"
         in="SourceAlpha"
         result="offOut" />
      <feGaussianBlur
         id="feGaussianBlur3041"
         stdDeviation="1"
         in="offOut"
         result="blurOut" />
      <!--
      <feBlend in="SourceGraphic" in2="blurOut" mode="normal" />
-->
    </filter>
    <linearGradient
       y2="1"
       x2="0"
       y1="0"
       x1="0"
       id="grad1">
      <stop
         id="stop3034"
         style="stop-color:rgb(255,255,255);stop-opacity:0.6"
         offset="20%" />
      <stop
         id="stop3036"
         style="stop-color:rgb(220,0,0);stop-opacity:0.5"
         offset="50%" />
    </linearGradient>
    <linearGradient
       y2="1"
       x2="0"
       y1="0"
       x1="0"
       id="grad0">
      <stop
         id="stop3029"
         style="stop-color:rgb(0,0,0);stop-opacity:0.3"
         offset="20%" />
      <stop
         id="stop3031"
         style="stop-color:rgb(0,0,0);stop-opacity:0.6"
         offset="100%" />
    </linearGradient>
    <inkscape:path-effect
       effect="mirror_symmetry"
       start_point="274.21267,350.55066"
       end_point="273.50284,477.30227"
       center_point="273.85776,413.92646"
       id="path-effect4557-0-4"
       is_visible="true"
       mode="free"
       discard_orig_path="false"
       fuse_paths="true"
       oposite_fuse="false" />
    <filter
       style="color-interpolation-filters:sRGB;"
       inkscape:label="Drop Shadow"
       id="filter19100"
       x="-0.0019960781"
       y="-0.0019960781"
       width="1.0039922"
       height="1.0530211">
      <feFlood
         flood-opacity="1"
         flood-color="rgb(91,93,90)"
         result="flood"
         id="feFlood19090" />
      <feComposite
         in="flood"
         in2="SourceGraphic"
         operator="in"
         result="composite1"
         id="feComposite19092" />
      <feGaussianBlur
         in="composite1"
         stdDeviation="0"
         result="blur"
         id="feGaussianBlur19094" />
      <feOffset
         dx="0"
         dy="4"
         result="offset"
         id="feOffset19096" />
      <feComposite
         in="SourceGraphic"
         in2="offset"
         operator="over"
         result="composite2"
         id="feComposite19098" />
    </filter>
  </defs>
  <sodipodi:namedview
     pagecolor="#ffffff"
     bordercolor="#666666"
     borderopacity="1"
     objecttolerance="10"
     gridtolerance="10"
     guidetolerance="10"
     inkscape:pageopacity="0"
     inkscape:pageshadow="2"
     inkscape:window-width="1920"
     inkscape:window-height="1001"
     id="namedview8"
     showgrid="false"
     inkscape:zoom="7.4167644"
     inkscape:cx="9.7751521"
     inkscape:cy="56.156563"
     inkscape:window-x="-9"
     inkscape:window-y="-9"
     inkscape:window-maximized="1"
     inkscape:current-layer="layer2"
     fit-margin-top="0"
     fit-margin-left="0"
     fit-margin-right="0"
     fit-margin-bottom="0"
     inkscape:pagecheckerboard="false"
     inkscape:showpageshadow="2"
     inkscape:deskcolor="#d1d1d1" />
  <g
     inkscape:groupmode="layer"
     id="layer1"
     inkscape:label="Background"
     style="display:inline">
    <g
       id="g24262"
       transform="translate(0.42796319,-4.0508454)"
       style="filter:url(#filter19100)">
      <g
         id="g25621">
        <circle
           style="color:#000000;display:inline;overflow:visible;visibility:visible;opacity:1;fill:#ffffff;fill-opacity:1;fill-rule:nonzero;stroke:#ffffff;stroke-width:0.325698;stroke-linecap:round;stroke-linejoin:miter;stroke-miterlimit:10;stroke-dasharray:none;stroke-dashoffset:0;stroke-opacity:0.487437;marker:none;enable-background:accumulate"
           id="circle4376-8-9"
           cx="45.381359"
           cy="48.334743"
           r="40.79224" />
        <circle
           r="32.643799"
           cy="48.334743"
           cx="45.381359"
           id="circle24066-6"
           style="color:#000000;display:inline;overflow:visible;visibility:visible;opacity:1;fill:none;fill-opacity:1;fill-rule:nonzero;stroke:#000000;stroke-width:3;stroke-linecap:round;stroke-linejoin:miter;stroke-miterlimit:10;stroke-dasharray:none;stroke-dashoffset:0;stroke-opacity:1;marker:none;enable-background:accumulate" />
      </g>
    </g>
  </g>
  <g
     inkscape:groupmode="layer"
     id="layer2"
     inkscape:label="Symbol"
     style="display:inline">
    <text
       xml:space="preserve"
       style="font-style:normal;font-variant:normal;font-weight:normal;font-stretch:normal;font-size:26.6667px;line-height:1.25;font-family:'cwTeX Q Kai';-inkscape-font-specification:'cwTeX Q Kai';letter-spacing:0px;word-spacing:0px;display:inline;fill:#000000;fill-opacity:1;stroke:#000000;stroke-width:1;stroke-miterlimit:4;stroke-dasharray:none;stroke-opacity:1"
       x="22.041668"
       y="63.395832"
       id="text32186" />
    <path
       style="color:#000000;font-style:normal;font-variant:normal;font-weight:500;font-stretch:normal;font-size:53.3333px;line-height:1.25;font-family:'cwTeX Q Kai';-inkscape-font-specification:'cwTeX Q Kai, Medium';font-variant-ligatures:normal;font-variant-caps:normal;font-variant-numeric:normal;font-feature-settings:normal;text-align:start;letter-spacing:0px;word-spacing:0px;writing-mode:lr-tb;text-anchor:start;display:inline;fill:#000000;fill-opacity:1;stroke:#000000;stroke-width:1;stroke-miterlimit:4;stroke-dasharray:none;stroke-opacity:1;-inkscape-stroke:none"
       d="m 57.78725,33.082184 q 1.14583,0 2.65625,0.625 1.5625,0.625 1.5625,1.197917 0,0.15625 -0.20834,0.520833 -0.20833,0.364583 -0.46875,0.78125 -0.26041,0.416667 -0.3125,0.572917 -0.46875,1.770833 -0.57291,4.479166 -0.10417,2.708333 -0.15625,4.6875 0,1.927083 -0.98959,4.114583 -0.98958,2.135417 -3.125,3.541667 -0.88541,-0.05208 -1.71875,-1.302083 -0.78125,-1.302084 -0.83333,-1.354167 L 52.3185,49.43635 q -0.15625,-0.416666 -0.15625,-0.729166 l 2.1875,0.572916 h 0.0521 0.0521 q 3.38541,0 3.38541,-11.145833 0,-1.40625 -0.26041,-1.71875 -0.20834,-0.364583 -1.25,-0.364583 -1.51042,0 -4.58334,0.9375 l -3.125,0.9375 H 48.3602 48.20395 q -1.14584,0 -2.39584,-0.885417 l -2.23958,2.604167 q -0.88542,0.78125 -1.92708,1.041667 v -0.625 q 1.82291,-2.708334 3.90625,-7.03125 2.08333,-4.375 2.08333,-6.145833 l -0.41666,-2.135417 v -0.05208 q 0.3125,-0.15625 1.5625,-0.15625 2.1875,0.989583 3.07292,2.1875 0,1.458333 -4.58334,8.124999 l -0.83333,1.145834 q 5,-0.572917 9.375,-2.135417 0.67708,-0.78125 1.97917,-0.78125 z M 41.43308,46.571767 q 0,-0.729167 -0.625,-3.541666 0.3125,-0.3125 0.67708,-0.260417 0.36459,0.05208 0.98959,0.3125 0.625,0.208333 0.83333,0.208333 0.78125,0 3.28125,-0.78125 2.5,-0.833333 3.17708,-0.833333 0.36459,0 1.51042,0.885417 1.19792,0.885416 1.30208,1.197916 0.10417,0.260417 -0.3125,0.729167 -0.36458,0.416666 -1.04166,1.510416 -0.67709,1.041667 -1.09375,2.5 1.04166,0.625 1.14583,1.197917 l -0.26042,0.208333 -7.29166,1.09375 -0.67709,-0.104166 q -0.20833,2.03125 -0.20833,3.854166 0,3.489583 1.875,5.3125 1.92708,1.770833 6.97917,1.770833 3.22916,0 5.52083,-0.416666 2.29167,-0.46875 3.4375,-1.302084 1.19792,-0.833333 1.66667,-1.458333 0.52083,-0.677083 0.88541,-1.5625 l 1.51042,-4.375 q 0.10417,-0.260416 0.52083,-0.9375 0.41667,0.104167 0.46875,0.572917 l 0.57292,4.895833 q 0,0.208334 0.0521,0.260417 l 0.625,2.083333 q 0.0521,0.05208 0.0521,0.208333 V 59.9051 q 0,1.979167 -4.63542,3.385417 -4.58333,1.40625 -9.0625,1.40625 -9.53125,0 -11.5625,-4.583334 -0.625,-1.666666 -0.625,-6.145833 z m 7.1875,-2.447917 q -0.20833,-0.208333 -0.78125,-0.208333 -0.9375,0 -3.33333,0.572917 l -0.625,0.15625 q -0.46875,2.5 -0.67709,4.895833 l 3.80209,-0.9375 0.83333,-0.3125 z M 33.09975,36.103017 q 0,-5.3125 -1.71875,-8.229166 0,-0.416667 0.36458,-0.729167 2.86458,0 4.58333,1.770834 -1.35416,5.520833 -1.35416,9.270833 l 2.5,-2.708334 q 1.09375,-1.354166 1.09375,-2.65625 0.3125,-0.104166 0.46875,-0.104166 0.83333,0 1.77083,0.833333 0.9375,0.833333 0.9375,1.5625 -0.9375,0.3125 -3.54167,2.03125 -2.55208,1.71875 -3.22916,2.03125 l -0.67709,9.0625 q 0,0.416666 -0.0521,0.572916 l 3.125,1.354167 q 1.19792,0.677083 1.71875,1.614583 0.57292,0.885417 0.46875,1.614584 -0.0521,0.677083 -0.52083,1.09375 -0.52083,0 -1.35417,-0.677084 -0.83333,-0.729166 -2.08333,-2.135416 -1.25,-1.40625 -1.51042,-1.666667 -0.625,3.28125 -1.66666,5.885417 -0.98959,2.604166 -3.02084,4.635416 -2.03125,2.03125 -4.6875,2.03125 l 0.10417,-0.364583 q 2.34375,-2.03125 3.90625,-4.53125 1.61458,-2.5 2.44792,-5.677083 0.83333,-3.177084 1.19791,-5.885417 0.36459,-2.760416 0.625,-6.927083 0.10417,-1.09375 0.10417,-3.072917 z m -5.41667,0.208334 q 0.67708,0 1.14583,1.71875 0.46875,1.71875 0.46875,3.333333 0,2.135417 -0.98958,3.59375 L 27.631,45.790517 h -0.0521 q -0.52084,0 -1.09375,-0.677083 -0.57292,-0.677084 -0.57292,-1.614583 0,-0.625 0.3125,-1.614584 0.3125,-1.041666 0.36458,-1.354166 l 0.46875,-3.177084 q 0.26042,-1.041666 0.625,-1.041666 z"
       id="path191" />
  </g>
</svg>
