<?xml version="1.0" encoding="UTF-8" standalone="no"?>
<svg
   width="92"
   height="92"
   id="svg2"
   version="1.1"
   inkscape:version="1.2.2 (732a01da63, 2022-12-09)"
   sodipodi:docname="red_horse.svg"
   xmlns:inkscape="http://www.inkscape.org/namespaces/inkscape"
   xmlns:sodipodi="http://sodipodi.sourceforge.net/DTD/sodipodi-0.dtd"
   xmlns="http://www.w3.org/2000/svg"
   xmlns:svg="http://www.w3.org/2000/svg"
   xmlns:rdf="http://www.w3.org/1999/02/22-rdf-syntax-ns#"
   xmlns:cc="http://creativecommons.org/ns#"
   xmlns:dc="http://purl.org/dc/elements/1.1/">
  <metadata
     id="metadata12">
    <rdf:RDF>
      <cc:Work
         rdf:about="">
        <dc:format>image/svg+xml</dc:format>
        <dc:type
           rdf:resource="http://purl.org/dc/dcmitype/StillImage" />
        <dc:title />
      </cc:Work>
    </rdf:RDF>
  </metadata>
  <defs
     id="defs10">
    <filter
       height="1.5"
       width="1.5"
       y="0"
       x="0"
       id="f1"
       color-interpolation-filters="sRGB">
      <feOffset
         id="feOffset3039"
         dy="0"
         dx="1"
         in="SourceAlpha"
         result="offOut" />
      <feGaussianBlur
         id="feGaussianBlur3041"
         stdDeviation="1"
         in="offOut"
         result="blurOut" />
      <!--
      <feBlend in="SourceGraphic" in2="blurOut" mode="normal" />
-->
    </filter>
    <linearGradient
       y2="1"
       x2="0"
       y1="0"
       x1="0"
       id="grad1">
      <stop
         id="stop3034"
         style="stop-color:rgb(255,255,255);stop-opacity:0.6"
         offset="20%" />
      <stop
         id="stop3036"
         style="stop-color:rgb(220,0,0);stop-opacity:0.5"
         offset="50%" />
    </linearGradient>
    <linearGradient
       y2="1"
       x2="0"
       y1="0"
       x1="0"
       id="grad0">
      <stop
         id="stop3029"
         style="stop-color:rgb(0,0,0);stop-opacity:0.3"
         offset="20%" />
      <stop
         id="stop3031"
         style="stop-color:rgb(0,0,0);stop-opacity:0.6"
         offset="100%" />
    </linearGradient>
    <inkscape:path-effect
       effect="mirror_symmetry"
       start_point="274.21267,350.55066"
       end_point="273.50284,477.30227"
       center_point="273.85776,413.92646"
       id="path-effect4557-0-4"
       is_visible="true"
       mode="free"
       discard_orig_path="false"
       fuse_paths="true"
       oposite_fuse="false" />
    <filter
       style="color-interpolation-filters:sRGB;"
       inkscape:label="Drop Shadow"
       id="filter23676"
       x="-0.0019960797"
       y="-0.0019960797"
       width="1.0039922"
       height="1.0530211">
      <feFlood
         flood-opacity="1"
         flood-color="rgb(91,93,90)"
         result="flood"
         id="feFlood23666" />
      <feComposite
         in="flood"
         in2="SourceGraphic"
         operator="in"
         result="composite1"
         id="feComposite23668" />
      <feGaussianBlur
         in="composite1"
         stdDeviation="0"
         result="blur"
         id="feGaussianBlur23670" />
      <feOffset
         dx="0"
         dy="4"
         result="offset"
         id="feOffset23672" />
      <feComposite
         in="SourceGraphic"
         in2="offset"
         operator="over"
         result="composite2"
         id="feComposite23674" />
    </filter>
  </defs>
  <sodipodi:namedview
     pagecolor="#ffffff"
     bordercolor="#666666"
     borderopacity="1"
     objecttolerance="10"
     gridtolerance="10"
     guidetolerance="10"
     inkscape:pageopacity="0"
     inkscape:pageshadow="2"
     inkscape:window-width="1920"
     inkscape:window-height="1001"
     id="namedview8"
     showgrid="false"
     inkscape:zoom="3.7083822"
     inkscape:cx="7.8201217"
     inkscape:cy="41.932032"
     inkscape:window-x="-9"
     inkscape:window-y="-9"
     inkscape:window-maximized="1"
     inkscape:current-layer="layer1"
     fit-margin-top="0"
     fit-margin-left="0"
     fit-margin-right="0"
     fit-margin-bottom="0"
     inkscape:pagecheckerboard="false"
     inkscape:showpageshadow="2"
     inkscape:deskcolor="#d1d1d1" />
  <g
     inkscape:groupmode="layer"
     id="layer1"
     inkscape:label="Background"
     style="display:inline">
    <g
       id="g24262"
       transform="translate(0.88830049,-5.8403149)"
       style="filter:url(#filter23676)">
      <g
         id="g25621">
        <circle
           style="color:#000000;display:inline;overflow:visible;visibility:visible;opacity:1;fill:#ffffff;fill-opacity:1;fill-rule:nonzero;stroke:#ffffff;stroke-width:0.325698;stroke-linecap:round;stroke-linejoin:miter;stroke-miterlimit:10;stroke-dasharray:none;stroke-dashoffset:0;stroke-opacity:0.487437;marker:none;enable-background:accumulate"
           id="circle4376-8-9"
           cx="45.381359"
           cy="48.334743"
           r="40.79224" />
        <circle
           r="32.643799"
           cy="48.334743"
           cx="45.381359"
           id="circle24066-6"
           style="color:#000000;display:inline;overflow:visible;visibility:visible;opacity:1;fill:none;fill-opacity:1;fill-rule:nonzero;stroke:#d40000;stroke-width:3;stroke-linecap:round;stroke-linejoin:miter;stroke-miterlimit:10;stroke-dasharray:none;stroke-dashoffset:0;stroke-opacity:1;marker:none;enable-background:accumulate" />
      </g>
    </g>
    <g
       id="path35406"
       transform="translate(1.0410545,-3.143614)"
       style="font-weight:500;font-size:53.3333px;font-family:'cwTeX Q Kai';-inkscape-font-specification:'cwTeX Q Kai, Medium';letter-spacing:0px;word-spacing:0px;fill:#d40000;fill-opacity:1;stroke:#000000">
      <path
         style="color:#000000;-inkscape-font-specification:'cwTeX Q Kai, Medium';fill:#d40000;fill-opacity:1;stroke:none;-inkscape-stroke:none"
         d="m 60.166667,42.822916 q 1.354167,0 2.552083,0.78125 1.25,0.729167 1.875,1.875 0,0.3125 -0.78125,1.197916 -1.354166,2.03125 -3.958333,16.09375 -0.416667,1.770833 -1.927083,3.125 -1.510417,1.40625 -2.65625,1.770833 -0.46875,-0.05208 -0.885417,-0.833333 -0.416666,-0.729167 -1.40625,-2.291667 -0.989583,-1.5625 -2.447916,-3.020833 v -0.260417 q 0.416666,0 1.354166,0.260417 0.989584,0.208333 1.770834,0.46875 0.781249,0.208333 0.885416,0.260417 1.510417,-0.208334 2.552083,-3.020834 l 0.3125,-0.885416 q 0.625,-1.875 1.40625,-5.885417 0.78125,-4.0625 0.78125,-5.625 0,-1.145833 -0.677083,-1.510416 -0.625,-0.416667 -2.239583,-0.416667 -1.197917,0 -4.0625,0.260417 h -0.46875 q -8.125,0.729166 -16.71875,3.385416 -1.09375,-0.572916 -1.666666,-1.458333 1.354166,-7.65625 1.354166,-12.760416 0,-3.75 -0.520833,-5.625 0,-0.15625 -0.520833,-0.989583 -0.520834,-0.885417 -0.520834,-1.354167 0,-0.520833 0.416667,-0.78125 0.989583,0 2.96875,1.197917 l 0.625,0.364583 q 5.260416,-0.260417 11.041666,-1.510417 l 4.166667,-1.041666 0.9375,-0.104167 q 0.104167,0 0.208333,0 0.15625,-0.05208 0.208334,-0.05208 1.562499,0 2.291666,0.989583 0.05208,0.572917 -0.46875,0.78125 -0.520833,0.208333 -2.1875,0.46875 -0.520833,0.05208 -0.833333,0.104167 l -6.09375,1.25 q 1.041667,0.572916 1.041667,2.1875 0,0.104166 -0.05208,0.3125 0,0.208333 0,0.3125 l -0.15625,1.354166 2.708334,-0.625 q 0.208333,-0.05208 0.572916,-0.05208 0.677084,0 1.354167,0.364583 0.677083,0.3125 0.729167,0.677083 l -0.364584,0.364584 -5,1.25 q -0.260416,1.822916 -0.260416,4.010416 l 3.489583,-0.885416 q 0.104167,0 0.260417,0 0.15625,-0.05208 0.208333,-0.05208 1.041667,0 1.822917,0.677084 0.104166,0.677083 -0.78125,1.041666 -0.885417,0.364584 -2.604167,0.625 -1.71875,0.260417 -2.395833,0.46875 l -0.15625,4.114584 7.187499,-0.9375 Q 55.010417,43.187499 56,43.187499 l 4.114584,-0.364583 z m -22.760416,2.03125 q 0.260417,0.46875 1.614583,0.46875 1.354167,0 3.489583,-0.416667 2.1875,-0.416666 2.552084,-0.416666 v -3.854167 l -3.28125,0.15625 -1.40625,-0.416667 q -0.260417,-0.15625 -0.364583,-0.572916 0.468749,-0.208334 2.239583,-0.46875 1.822916,-0.260417 2.8125,-0.520834 v -4.010416 q -1.197917,0.260416 -1.927084,0.260416 -2.1875,0 -2.552083,-1.09375 0.364583,-0.15625 4.479167,-0.989583 -0.260417,-3.645833 -0.729167,-4.53125 -4.21875,0.364584 -5.78125,0.364584 -1.041666,1.927083 -1.302083,10.729166 v 0.885417 q 0,3.958333 0.15625,4.427083 z m 10.729166,3.385416 q 1.614584,1.09375 2.1875,1.5625 0.572917,0.416667 1.145834,1.197917 0.572916,0.78125 0.677083,1.71875 -0.416667,1.666667 -1.145833,1.666667 -0.416667,0 -1.041667,-0.520834 -0.572917,-0.572916 -1.40625,-2.03125 -0.78125,-1.510416 -1.302083,-3.59375 z m -3.802083,5.208334 q 0,1.458333 -0.833333,1.770833 -1.145834,0 -2.135417,-2.03125 -0.9375,-2.03125 -0.9375,-3.177083 0.05208,-0.05208 0.260417,-0.05208 0.78125,0 2.1875,1.09375 1.458333,1.041667 1.458333,2.395834 z m -7.395833,3.385416 q -0.833333,-0.15625 -1.510417,-1.666666 -0.625,-1.510417 -0.625,-2.916667 0,-0.677083 0.260417,-1.09375 1.197917,0 2.03125,1.666667 0.833333,1.666666 0.833333,3.125 -0.416666,0.625 -0.989583,0.885416 z m -7.291667,-6.979166 q 0.520834,0 0.885417,1.5625 0.416667,1.510416 0.416667,2.916666 0,2.03125 -0.572917,3.645834 -0.572917,1.614583 -1.927083,1.614583 -1.09375,-1.197917 -1.09375,-2.708333 0,-0.9375 0.416666,-2.083334 l 1.145834,-3.333333 q 0,-0.05208 0.104166,-0.572917 0.104167,-0.572916 0.208334,-0.78125 0.15625,-0.260416 0.416666,-0.260416 z"
         id="path11148" />
      <path
         style="color:#000000;-inkscape-font-specification:'cwTeX Q Kai, Medium';fill:#d40000;fill-opacity:1;stroke:none;-inkscape-stroke:none"
         d="m 54.125,23.9375 c -0.136032,0 -0.18339,0.02923 -0.248047,0.05273 h -0.197266 l -0.998046,0.109375 -4.183594,1.046875 c -3.784839,0.818344 -7.390876,1.304652 -10.830078,1.482422 l -0.470703,-0.27539 -0.0039,-0.002 C 35.84487,25.535778 34.829145,25.083984 33.96875,25.083984 h -0.142578 l -0.123047,0.07617 c -0.404818,0.253012 -0.650391,0.724523 -0.650391,1.205078 0,0.497685 0.223071,0.983908 0.589844,1.607422 l 0.002,0.0059 0.0039,0.0059 c 0.169889,0.271822 0.296345,0.485125 0.373047,0.630859 0.03644,0.06924 0.06,0.120578 0.07227,0.150391 v 0.01172 l 0.01758,0.06445 c 0.324215,1.167175 0.503906,3.015338 0.503906,5.492187 0,3.358557 -0.448198,7.586479 -1.347656,12.671875 l -0.0332,0.195313 0.105469,0.164062 c 0.43406,0.670822 1.064305,1.214488 1.855468,1.628907 l 0.181641,0.0957 0.197266,-0.06055 c 5.694264,-1.760045 11.229279,-2.879938 16.603515,-3.363281 h 0.458985 l 0.02344,-0.002 c 1.903462,-0.173042 3.2552,-0.257812 4.017578,-0.257812 1.033377,0 1.709615,0.164482 1.960938,0.332031 l 0.01953,0.01367 0.02148,0.01172 c 0.25887,0.139391 0.414063,0.404909 0.414063,1.070312 0,0.958333 -0.252897,2.83264 -0.771484,5.529297 -0.518845,2.663401 -0.988014,4.614431 -1.390625,5.822266 L 56.625,59.054687 c -0.334251,0.90248 -0.702368,1.575834 -1.072266,2.013672 -0.351879,0.416511 -0.685509,0.591008 -1.027343,0.652344 -0.03656,-0.01035 -0.06493,-0.02622 -0.115235,-0.04102 -0.154698,-0.0455 -0.362245,-0.10376 -0.625,-0.173828 l 0.0293,0.0098 c -0.533712,-0.177904 -1.1338,-0.336287 -1.794922,-0.476563 l -0.0059,-0.002 C 51.374321,60.859742 50.91165,60.759766 50.53125,60.759766 h -0.5 v 0.96875 L 50.177734,61.875 c 0.949072,0.949072 1.740966,1.926319 2.378907,2.933594 0.654001,1.032632 1.116482,1.787505 1.386718,2.259765 0.312244,0.58546 0.702431,1.032479 1.271485,1.095703 l 0.105468,0.01172 0.101563,-0.0332 c 0.879698,-0.279904 1.807424,-0.914413 2.84375,-1.878906 1.06818,-0.959029 1.774456,-2.096613 2.076172,-3.378906 l 0.002,-0.01172 0.002,-0.01172 c 0.867035,-4.681985 1.629421,-8.359309 2.285156,-11.025391 0.655499,-2.665118 1.252884,-4.361166 1.597657,-4.878906 1.24e-4,-1.87e-4 -1.25e-4,-0.0018 0,-0.002 0.244705,-0.280478 0.445931,-0.528423 0.58789,-0.746094 0.151943,-0.232979 0.277344,-0.417969 0.277344,-0.730468 v -0.126954 l -0.06055,-0.111328 C 64.572973,44.39648 63.874781,43.70602 62.980469,43.181641 62.112586,42.618365 61.160772,42.322266 60.166016,42.322266 h -0.07422 l -4.128906,0.367187 h -0.0078 c -0.64237,9.3e-4 -1.166103,0.01669 -1.5625,0.05273 h -0.0098 l -6.611328,0.863282 0.119141,-3.13086 c 0.4349,-0.112492 1.015594,-0.239637 1.986328,-0.386718 1.167429,-0.176883 2.061903,-0.385784 2.71875,-0.65625 0.348713,-0.143588 0.642248,-0.331592 0.847656,-0.605469 0.205408,-0.273877 0.290216,-0.637033 0.238282,-0.97461 l -0.02734,-0.18164 -0.138672,-0.121094 C 52.911679,37.025408 52.168012,36.75 51.365234,36.75 c -0.136033,0 -0.183391,0.02923 -0.248047,0.05273 h -0.283203 l -2.884765,0.732422 c 0.0213,-1.050062 0.07435,-2.052685 0.191406,-2.960937 L 52.921875,33.378902 53.5625,32.74023 53.52539,32.492183 C 53.45116,31.972585 53.028456,31.675894 52.51953,31.439449 52.012626,31.16995 51.481701,31.02148 50.947265,31.02148 c -0.266863,0 -0.487896,0.01504 -0.69336,0.06641 l -2.009765,0.46289 0.07813,-0.677734 V 30.5625 c 0.02684,-0.115948 0.05273,-0.222629 0.05273,-0.34375 0,-0.757658 -0.242557,-1.363383 -0.597656,-1.871094 l 5.232422,-1.072265 c 0.190555,-0.03176 0.460129,-0.0675 0.800781,-0.101563 h 0.01367 l 0.01367,-0.002 c 1.123354,-0.175524 1.843647,-0.31949 2.294921,-0.5 0.24965,-0.09986 0.479078,-0.269166 0.621094,-0.505859 0.142016,-0.236694 0.184566,-0.516636 0.160156,-0.785157 l -0.01172,-0.138672 -0.08398,-0.111328 C 56.231075,24.333831 55.27222,23.9375 54.125,23.9375 Z m 0,1 c 0.863136,0 1.391143,0.250833 1.773437,0.695312 -0.0016,0.0031 -4.09e-4,0.01696 -0.002,0.01953 -0.01423,0.02372 -0.0372,0.05277 -0.134765,0.0918 -0.242466,0.09699 -0.978661,0.266308 -2.072266,0.4375 -0.0032,4.96e-4 -0.0027,0.0015 -0.0059,0.002 -0.338428,0.03426 -0.618942,0.06702 -0.837891,0.103515 l -0.0098,0.002 -7.433593,1.525391 1.189453,0.654297 c 0.520658,0.286362 0.783203,0.781139 0.783203,1.75 0,-0.01388 -0.0071,0.07154 -0.03711,0.191406 l -0.01563,0.05859 v 0.345703 l -0.234375,2.029297 3.404296,-0.785156 h 0.0039 c 0.07231,-0.01808 0.231925,-0.03711 0.451172,-0.03711 0.361645,0 0.727055,0.09462 1.117187,0.304688 l 0.01367,0.0059 0.01367,0.0078 c 0.207752,0.09589 0.178018,0.100797 0.238281,0.15625 l -5.111328,1.277343 -0.04687,0.332032 c -0.17757,1.242994 -0.265625,2.603858 -0.265625,4.082031 v 0.642578 l 4.052734,-1.027344 h 0.279297 l 0.07617,-0.02539 c 0.08836,-0.02945 0.182716,-0.02734 0.05078,-0.02734 0.501793,0 0.89477,0.199525 1.279297,0.474609 -4.54e-4,6.09e-4 4.61e-4,0.0013 0,0.002 -0.05501,0.07334 -0.18617,0.17983 -0.427734,0.279297 -0.523708,0.215645 -1.365999,0.423412 -2.490235,0.59375 -1.155742,0.175113 -1.957717,0.327736 -2.466796,0.484375 L 46.919922,39.689453 46.728516,44.75 54.488281,43.738281 C 54.844178,43.706141 55.351563,43.6875 56,43.6875 h 0.02148 l 4.115235,-0.365234 h 0.0293 c 0.806623,0 1.552894,0.227431 2.279296,0.701171 l 0.0098,0.0059 0.01172,0.0059 c 0.707603,0.412769 1.190433,0.944173 1.558594,1.554688 -0.01675,0.04036 -0.0021,0.0067 -0.04492,0.07227 -0.108474,0.166326 -0.292207,0.399397 -0.542969,0.683594 l -0.02148,0.02539 -0.01953,0.0293 c -0.558061,0.837092 -1.07262,2.498769 -1.736328,5.197265 -0.662315,2.692835 -1.426152,6.379627 -2.292969,11.058594 -0.253434,1.077096 -0.830136,2.021469 -1.773437,2.867187 l -0.0039,0.0039 -0.0039,0.002 c -0.920698,0.857202 -1.694897,1.333594 -2.326171,1.564453 -0.08022,-0.03289 -0.222638,-0.10055 -0.433594,-0.496094 l -0.0039,-0.0059 -0.002,-0.0059 c -0.286046,-0.500581 -0.756408,-1.267931 -1.417968,-2.3125 -0.50845,-0.802815 -1.195338,-1.558582 -1.878907,-2.316406 0.101201,0.02503 0.115001,0.01339 0.228516,0.04492 l 0.01563,0.0059 0.01563,0.002 c 0.644581,0.135701 1.216147,0.288845 1.714844,0.455078 l 0.01367,0.0039 0.01563,0.0039 c 0.258077,0.06882 0.459169,0.12471 0.599609,0.166016 0.14044,0.04131 0.261035,0.09341 0.191406,0.05859 l 0.138672,0.06836 0.152344,-0.01953 c 0.646613,-0.08919 1.226235,-0.464098 1.707031,-1.033203 0.480796,-0.569106 0.885902,-1.338029 1.246094,-2.310547 l 0.002,-0.0039 0.314453,-0.892578 0.002,-0.0039 c 0.430721,-1.292162 0.899054,-3.263449 1.421875,-5.947266 v -0.002 c 0.523078,-2.720004 0.791016,-4.593751 0.791016,-5.71875 0,-0.851646 -0.294513,-1.579576 -0.921875,-1.93164 -0.581002,-0.380067 -1.384271,-0.496094 -2.494141,-0.496094 -0.828494,0 -2.18515,0.08821 -4.078125,0.259766 h -0.476562 l -0.02148,0.002 c -5.371194,0.48203 -10.894169,1.606458 -16.560546,3.339843 -0.539801,-0.306159 -0.95154,-0.668969 -1.25,-1.089843 0.872617,-4.996097 1.324218,-9.201458 1.324218,-12.583985 0,-2.481188 -0.171802,-4.334747 -0.529297,-5.664062 -0.0075,-0.122802 -0.03265,-0.197836 -0.06055,-0.267578 -0.03195,-0.07987 -0.07069,-0.15989 -0.119141,-0.251953 -0.09522,-0.180926 -0.229544,-0.408636 -0.402344,-0.685547 -0.327671,-0.557041 -0.451172,-0.972295 -0.451172,-1.09961 0,-0.121623 0.06717,-0.14946 0.103516,-0.203125 0.490673,0.04501 1.322804,0.321358 2.521484,1.046875 l 0.0039,0.002 0.757812,0.441407 0.148438,-0.0078 C 41.125255,27.469414 44.831214,26.963437 48.708984,26.125 l 0.0078,-0.002 4.142578,-1.035156 0.876953,-0.09766 h 0.261719 l 0.07617,-0.02539 c 0.08835,-0.02945 0.182712,-0.02734 0.05078,-0.02734 z m -9.503906,2.984375 -0.330078,0.02734 c -2.807222,0.2426 -4.735505,0.363281 -5.738282,0.363281 h -0.298828 l -0.142578,0.261719 c -0.418791,0.774763 -0.68235,2.011474 -0.902344,3.824218 -0.219993,1.812745 -0.371903,4.185572 -0.458984,7.128907 v 0.0078 0.892578 c 0,1.322733 0.01265,2.35517 0.03906,3.103516 0.01321,0.374173 0.03001,0.676374 0.05078,0.914062 0.02077,0.237689 0.03238,0.388143 0.0918,0.566407 l 0.01563,0.04492 0.02148,0.04102 c 0.176145,0.317062 0.491047,0.488895 0.832031,0.587891 0.340985,0.099 0.740469,0.136719 1.220703,0.136719 0.953547,0 2.139973,-0.144498 3.582032,-0.425782 0.726658,-0.13841 1.300876,-0.240369 1.71875,-0.308593 0.417873,-0.06822 0.713944,-0.09766 0.740234,-0.09766 h 0.5 v -4.878906 l -3.720703,0.177734 -0.72461,-0.214843 c 0.369647,-0.0834 0.537432,-0.148127 1.203125,-0.246094 1.225836,-0.17512 2.176014,-0.348848 2.869141,-0.53125 l 0.373047,-0.09961 v -5.015625 l -0.605469,0.132812 c -0.778032,0.169137 -1.395678,0.248047 -1.822265,0.248047 -0.6875,0 -1.202941,-0.09088 -1.533204,-0.232422 -0.05464,-0.02342 -0.04512,-0.06154 -0.08984,-0.08594 0.156156,-0.0364 0.277518,-0.06801 0.482422,-0.113282 0.741282,-0.163771 1.798013,-0.38465 3.167968,-0.662109 L 45.5918,33.38279 45.56055,32.943337 c -0.08746,-1.224474 -0.191162,-2.221694 -0.316406,-3 -0.125245,-0.778306 -0.255068,-1.324894 -0.46875,-1.728515 z m -0.65625,1.048828 c 0.09212,0.248117 0.197155,0.549535 0.291015,1.132813 0.100266,0.623078 0.184068,1.51113 0.261719,2.478515 -1.106029,0.225656 -2.093584,0.429401 -2.740234,0.572266 -0.375886,0.08304 -0.673815,0.152829 -0.898438,0.208984 -0.224622,0.05616 -0.348885,0.08507 -0.492187,0.146485 l -0.423828,0.179687 0.146484,0.4375 c 0.168962,0.506885 0.577226,0.898052 1.097656,1.121094 0.520431,0.223042 1.156902,0.314453 1.927735,0.314453 0.383176,0 0.913743,-0.1022 1.427734,-0.191406 v 3.02539 c -0.611145,0.144181 -1.341122,0.292593 -2.382813,0.441407 h -0.002 c -1.19326,0.175479 -1.915712,0.305419 -2.371093,0.507812 l -0.382813,0.169922 0.101563,0.408203 c 0.08966,0.358623 0.27527,0.690944 0.591796,0.880859 l 0.05469,0.03125 1.548828,0.458985 2.841797,-0.134766 v 2.890625 c -0.133608,0.01848 -0.207911,0.0174 -0.400391,0.04883 -0.43282,0.07066 -1.01442,0.17704 -1.746093,0.316407 h -0.002 c -1.40411,0.273973 -2.541083,0.40625 -3.392578,0.40625 -0.422542,0 -0.744197,-0.0404 -0.941406,-0.09766 -0.174208,-0.05058 -0.200806,-0.09087 -0.208984,-0.09961 -0.0058,-0.03557 -0.02067,-0.101819 -0.03516,-0.267578 -0.01829,-0.209359 -0.03404,-0.497655 -0.04687,-0.861328 C 37.763391,42.768747 37.75,41.743888 37.75,40.427734 v -0.871093 -0.01563 c 0.08663,-2.91571 0.237611,-5.261744 0.451172,-7.021485 0.199326,-1.642451 0.476967,-2.668423 0.736328,-3.230469 1.02931,-0.01401 2.703787,-0.1229 5.027344,-0.318359 z m 2.644531,18.769531 0.15625,0.621094 c 0.354593,1.418373 0.798697,2.651179 1.341797,3.701172 l 0.0059,0.0098 0.0039,0.0098 c 0.566051,0.990589 1.042055,1.690493 1.488282,2.136719 l 0.01563,0.01563 0.01758,0.01367 c 0.458645,0.382205 0.875217,0.636719 1.361328,0.636719 0.433531,0 0.815426,-0.273433 1.0625,-0.632813 0.247074,-0.35938 0.421148,-0.823265 0.568359,-1.412109 l 0.02148,-0.08789 -0.0098,-0.08789 C 52.563706,51.95422 52.300893,51.291169 51.871094,50.705078 51.469377,50.157283 51.058482,49.724387 50.623047,49.40625 50.208983,49.068509 49.489853,48.55361 48.416016,47.826172 l -0.126954,-0.08594 h -0.154296 z m 1.349609,1 h 0.01758 c 0.974916,0.663451 1.697748,1.177951 2.029297,1.449219 l 0.01172,0.0078 0.01172,0.0098 c 0.325843,0.236977 0.677099,0.596968 1.037109,1.087891 0.317693,0.433218 0.483566,0.897907 0.552735,1.40625 -0.122163,0.445897 -0.258859,0.80692 -0.38086,0.984375 -0.13487,0.196175 -0.185702,0.199219 -0.238281,0.199219 -0.06761,0 -0.341448,-0.101731 -0.701172,-0.394532 -0.315614,-0.319712 -0.769331,-0.959292 -1.304687,-1.894531 -0.408363,-0.790722 -0.732587,-1.798971 -1.035157,-2.855469 z m -18.3125,0.613282 c -0.340277,0 -0.678485,0.225211 -0.845703,0.503906 l -0.0098,0.01563 -0.0098,0.01758 c -0.120347,0.240695 -0.178261,0.512774 -0.25,0.90625 -0.03504,0.175183 -0.06176,0.313329 -0.08008,0.414062 -0.0092,0.05037 -0.01597,0.09112 -0.02148,0.126954 -4.96e-4,0.0032 -0.0014,0.0089 -0.002,0.01172 l -1.126953,3.28125 c -7.8e-4,0.0021 -0.0012,0.0037 -0.002,0.0059 v 0.002 c -0.290751,0.801846 -0.445312,1.549467 -0.445312,2.246094 0,1.127632 0.424888,2.17099 1.224609,3.046875 l 0.148437,0.162109 h 0.220704 c 0.550747,0 1.070903,-0.176382 1.480468,-0.519531 0.409566,-0.34315 0.706238,-0.831038 0.917969,-1.427735 0.404043,-1.138665 0.601563,-2.411326 0.601563,-3.8125 0,-0.982458 -0.145845,-1.996753 -0.431641,-3.037109 -0.127047,-0.542961 -0.264936,-0.96673 -0.453125,-1.298828 -0.189034,-0.333589 -0.492405,-0.644531 -0.916016,-0.644531 z M 40.6875,49.458984 c -0.09028,0 -0.173891,0.0027 -0.267578,0.02148 -0.09369,0.01874 -0.210483,0.04056 -0.345703,0.175781 l -0.146485,0.146484 v 0.207032 c 0,0.900251 0.342432,2.000073 0.982422,3.386718 l 0.002,0.0059 0.0039,0.0039 c 0.346499,0.711237 0.712193,1.265914 1.132812,1.666016 0.420619,0.400101 0.921501,0.646484 1.451172,0.646484 h 0.08984 l 0.08594,-0.03125 c 0.397491,-0.149059 0.718423,-0.464637 0.902344,-0.855469 0.183921,-0.390832 0.255859,-0.851036 0.255859,-1.384765 0,-1.077209 -0.609698,-2.038558 -1.65625,-2.791016 -0.970736,-0.75453 -1.737258,-1.197266 -2.490234,-1.197266 z m -11.027344,0.9375 c -0.01332,-0.0025 -0.04022,-0.03387 0.0332,0.0957 0.106105,0.187244 0.236021,0.543885 0.351563,1.039063 l 0.002,0.0078 0.002,0.0098 c 0.267199,0.968596 0.398438,1.89704 0.398438,2.785156 0,1.307157 -0.183123,2.464405 -0.542969,3.478516 -0.170213,0.479691 -0.386346,0.799096 -0.619141,0.994141 -0.172567,0.144583 -0.394236,0.177094 -0.621094,0.21289 -0.523344,-0.654319 -0.810546,-1.341588 -0.810546,-2.134765 0,-0.550926 0.123908,-1.18938 0.386718,-1.91211 l 0.002,-0.0039 1.173829,-3.416016 v -0.08398 c 0,0.07466 -0.0012,0.04208 0.002,0.02148 0.0032,-0.02059 0.0094,-0.05644 0.01758,-0.101562 0.01641,-0.09024 0.04176,-0.222491 0.07617,-0.394531 v -0.0039 l 0.002,-0.0059 c 0.06009,-0.330502 0.120951,-0.521778 0.146484,-0.587891 z m 5.125,0.259766 -0.146484,0.234375 c -0.238124,0.380998 -0.335938,0.843884 -0.335938,1.359375 0,1.011573 0.224482,2.049822 0.66211,3.107422 l 0.0039,0.0078 0.002,0.0059 c 0.480077,1.070939 1.056728,1.799699 1.875,1.953125 L 37,57.353516 l 0.144531,-0.06445 c 0.477554,-0.217069 0.880551,-0.586449 1.199219,-1.064453 l 0.08398,-0.125 V 55.94727 c 0,-1.06746 -0.305076,-2.184372 -0.886718,-3.347657 C 36.942603,51.402783 36.092994,50.65625 35.0625,50.65625 Z m 6.347656,0.03711 c 0.357021,0.109161 0.747121,0.218464 1.435547,0.753907 l 0.0078,0.0059 0.0078,0.0059 c 0.888832,0.634881 1.25,1.264991 1.25,1.988282 0,0.438491 -0.06825,0.759539 -0.162109,0.958984 -0.07265,0.154374 -0.166467,0.207247 -0.269531,0.265625 -0.205553,-0.02208 -0.410141,-0.08073 -0.664063,-0.322266 -0.29071,-0.276529 -0.609144,-0.737621 -0.921875,-1.378906 -5.11e-4,-10e-4 -0.0014,-9.05e-4 -0.002,-0.002 -0.465783,-1.01131 -0.580389,-1.660107 -0.681641,-2.275391 z m -5.726562,1.09375 c 0.428665,0.132093 0.835937,0.451171 1.240234,1.259766 0.499907,0.999812 0.71173,1.900917 0.738282,2.738281 -0.145663,0.187129 -0.303715,0.318266 -0.466797,0.423828 -0.286147,-0.108199 -0.650995,-0.396033 -1.03125,-1.240234 -0.393935,-0.953958 -0.583985,-1.857227 -0.583985,-2.71875 0,-0.216566 0.06368,-0.316707 0.103516,-0.462891 z"
         id="path11145" />
    </g>
  </g>
  <g
     inkscape:groupmode="layer"
     id="layer2"
     inkscape:label="Symbol"
     style="display:inline" />
</svg>
