<?xml version="1.0" encoding="UTF-8" standalone="no"?>
<svg
   width="92"
   height="92"
   id="svg2"
   version="1.1"
   inkscape:version="1.2.2 (732a01da63, 2022-12-09)"
   sodipodi:docname="red_elephant.svg"
   xmlns:inkscape="http://www.inkscape.org/namespaces/inkscape"
   xmlns:sodipodi="http://sodipodi.sourceforge.net/DTD/sodipodi-0.dtd"
   xmlns="http://www.w3.org/2000/svg"
   xmlns:svg="http://www.w3.org/2000/svg"
   xmlns:rdf="http://www.w3.org/1999/02/22-rdf-syntax-ns#"
   xmlns:cc="http://creativecommons.org/ns#"
   xmlns:dc="http://purl.org/dc/elements/1.1/">
  <metadata
     id="metadata12">
    <rdf:RDF>
      <cc:Work
         rdf:about="">
        <dc:format>image/svg+xml</dc:format>
        <dc:type
           rdf:resource="http://purl.org/dc/dcmitype/StillImage" />
        <dc:title />
      </cc:Work>
    </rdf:RDF>
  </metadata>
  <defs
     id="defs10">
    <filter
       height="1.5"
       width="1.5"
       y="0"
       x="0"
       id="f1"
       color-interpolation-filters="sRGB">
      <feOffset
         id="feOffset3039"
         dy="0"
         dx="1"
         in="SourceAlpha"
         result="offOut" />
      <feGaussianBlur
         id="feGaussianBlur3041"
         stdDeviation="1"
         in="offOut"
         result="blurOut" />
      <!--
      <feBlend in="SourceGraphic" in2="blurOut" mode="normal" />
-->
    </filter>
    <linearGradient
       y2="1"
       x2="0"
       y1="0"
       x1="0"
       id="grad1">
      <stop
         id="stop3034"
         style="stop-color:rgb(255,255,255);stop-opacity:0.6"
         offset="20%" />
      <stop
         id="stop3036"
         style="stop-color:rgb(220,0,0);stop-opacity:0.5"
         offset="50%" />
    </linearGradient>
    <linearGradient
       y2="1"
       x2="0"
       y1="0"
       x1="0"
       id="grad0">
      <stop
         id="stop3029"
         style="stop-color:rgb(0,0,0);stop-opacity:0.3"
         offset="20%" />
      <stop
         id="stop3031"
         style="stop-color:rgb(0,0,0);stop-opacity:0.6"
         offset="100%" />
    </linearGradient>
    <inkscape:path-effect
       effect="mirror_symmetry"
       start_point="274.21267,350.55066"
       end_point="273.50284,477.30227"
       center_point="273.85776,413.92646"
       id="path-effect4557-0-4"
       is_visible="true"
       mode="free"
       discard_orig_path="false"
       fuse_paths="true"
       oposite_fuse="false" />
    <filter
       style="color-interpolation-filters:sRGB;"
       inkscape:label="Drop Shadow"
       id="filter23676"
       x="-0.0019960797"
       y="-0.0019960797"
       width="1.0039922"
       height="1.0530211">
      <feFlood
         flood-opacity="1"
         flood-color="rgb(91,93,90)"
         result="flood"
         id="feFlood23666" />
      <feComposite
         in="flood"
         in2="SourceGraphic"
         operator="in"
         result="composite1"
         id="feComposite23668" />
      <feGaussianBlur
         in="composite1"
         stdDeviation="0"
         result="blur"
         id="feGaussianBlur23670" />
      <feOffset
         dx="0"
         dy="4"
         result="offset"
         id="feOffset23672" />
      <feComposite
         in="SourceGraphic"
         in2="offset"
         operator="over"
         result="composite2"
         id="feComposite23674" />
    </filter>
  </defs>
  <sodipodi:namedview
     pagecolor="#ffffff"
     bordercolor="#666666"
     borderopacity="1"
     objecttolerance="10"
     gridtolerance="10"
     guidetolerance="10"
     inkscape:pageopacity="0"
     inkscape:pageshadow="2"
     inkscape:window-width="1920"
     inkscape:window-height="1017"
     id="namedview8"
     showgrid="false"
     inkscape:zoom="3.7083822"
     inkscape:cx="-79.279854"
     inkscape:cy="-5.6628467"
     inkscape:window-x="-8"
     inkscape:window-y="-8"
     inkscape:window-maximized="1"
     inkscape:current-layer="layer1"
     fit-margin-top="0"
     fit-margin-left="0"
     fit-margin-right="0"
     fit-margin-bottom="0"
     inkscape:pagecheckerboard="false"
     inkscape:showpageshadow="2"
     inkscape:deskcolor="#d1d1d1" />
  <g
     inkscape:groupmode="layer"
     id="layer1"
     inkscape:label="Background"
     style="display:inline">
    <g
       id="g24262"
       transform="translate(0.6186409,-2.3347435)"
       style="filter:url(#filter23676)">
      <g
         id="g25621">
        <circle
           style="color:#000000;display:inline;overflow:visible;visibility:visible;opacity:1;fill:#ffffff;fill-opacity:1;fill-rule:nonzero;stroke:#ffffff;stroke-width:0.32569826;stroke-linecap:round;stroke-linejoin:miter;stroke-miterlimit:10;stroke-dasharray:none;stroke-dashoffset:0;stroke-opacity:0.48743723;marker:none;enable-background:accumulate"
           id="circle4376-8-9"
           cx="45.381359"
           cy="48.334743"
           r="40.79224" />
        <circle
           r="32.643799"
           cy="48.334743"
           cx="45.381359"
           id="circle24066-6"
           style="color:#000000;display:inline;overflow:visible;visibility:visible;opacity:1;fill:none;fill-opacity:1;fill-rule:nonzero;stroke:#d40000;stroke-width:3;stroke-linecap:round;stroke-linejoin:miter;stroke-miterlimit:10;stroke-dasharray:none;stroke-dashoffset:0;stroke-opacity:1;marker:none;enable-background:accumulate" />
      </g>
    </g>
    <path
       style="fill:#d40000;fill-opacity:1;stroke-width:0.269659"
       d="m 45.030871,68.861307 c -0.7762,-1.276355 -0.94758,-2.765454 -0.94758,-8.23348 0,-2.706755 -7.5e-4,-4.921332 -0.002,-4.921284 -1.91374,0.101177 -7.92702,1.035967 -10.60827,1.649102 -4.88946,1.118097 -6.20488,0.938412 -7.70682,-1.05275 -0.41154,-0.545586 -0.4304,-0.701575 -0.11954,-0.988695 0.23075,-0.213131 3.45179,-0.663179 8.59371,-1.200726 11.11861,-1.162369 9.97739,-0.859461 9.97739,-2.648257 V 49.98042 l -2.08986,0.183587 c -1.57906,0.138716 -2.19928,0.311231 -2.53757,0.705829 -0.57406,0.669621 -1.05789,0.659468 -1.94824,-0.04089 -1.06146,-0.834941 -1.44329,-1.763707 -2.32899,-5.665065 -0.54514,-2.401201 -1.1184,-4.135571 -1.78831,-5.410417 -0.87951,-1.673713 -0.94199,-1.92031 -0.57862,-2.283679 0.36337,-0.36337 0.56443,-0.362556 1.862,0.0075 1.36793,0.390165 1.67658,0.376977 5.17783,-0.221238 2.04775,-0.349874 3.76458,-0.679779 3.81517,-0.733121 0.0506,-0.05334 0.13469,-0.689036 0.18688,-1.412653 l 0.0949,-1.315667 -2.69659,0.04195 c -2.27871,0.03545 -2.83241,-0.04212 -3.57299,-0.500569 -1.33521,-0.826547 -1.01747,-1.898744 0.56269,-1.898744 0.43555,0 1.86744,-0.143198 3.18198,-0.318217 l 2.39008,-0.318218 v -0.981136 c 0,-1.449789 -0.75642,-3.738223 -1.36028,-4.115345 -1.14397,-0.714418 -0.32748,-2.062481 1.25897,-2.07863 1.90519,-0.01939 4.95518,1.653876 4.95518,2.718488 0,0.298288 -0.19753,1.146254 -0.43895,1.88437 -0.24143,0.738115 -0.38516,1.395823 -0.31941,1.461573 0.0658,0.06575 0.96102,-0.124824 1.9895,-0.423499 2.34797,-0.681867 4.57499,-0.74463 5.70408,-0.160755 1.19915,0.620107 1.31297,0.947987 0.58107,1.673916 -0.69814,0.692449 -2.46685,1.226867 -5.78208,1.747059 -1.17628,0.184571 -2.29038,0.454487 -2.47577,0.599815 -0.18539,0.145327 -0.33707,0.795433 -0.33707,1.44468 0,1.376886 -0.21504,1.331246 3.6404,0.772652 4.2216,-0.611646 4.76053,-0.558224 6.8849,0.682473 1.79144,1.04626 2.688,1.913819 2.688,2.601057 0,0.180837 -0.59444,1.008101 -1.32098,1.838364 -0.99401,1.135901 -1.70207,2.409282 -2.86052,5.144307 -0.88622,2.092315 -1.78151,3.804228 -2.10976,4.034141 -0.73194,0.512673 -1.64033,0.510438 -2.06818,-0.0051 -0.23229,-0.279896 -0.84466,-0.403355 -1.98804,-0.400807 -2.72557,0.0061 -2.86582,0.09321 -2.86582,1.780554 0,1.327951 0.0517,1.451021 0.60673,1.443972 0.3337,-0.0042 3.33703,-0.470213 6.67407,-1.035503 5.5882,-0.946634 6.16316,-0.998953 7.280801,-0.66252 2.461254,0.740889 4.529798,2.762433 3.881448,3.79326 -0.263358,0.418716 -0.95782,0.493482 -5.932509,0.638694 -3.09883,0.09046 -7.1814,0.181467 -9.07239,0.202244 l -3.43815,0.03778 -0.009,3.707817 c -0.011,4.479082 -0.38046,8.881743 -0.8278,9.863543 -0.44281,0.971853 -1.2126,0.910872 -1.85594,-0.147023 z m -1.41948,-21.393096 c 0.53042,-0.114784 0.60673,-0.300226 0.60673,-1.474456 v -1.343159 h -1.71099 c -1.3577,0 -1.80989,-0.109285 -2.18998,-0.529275 -0.77771,-0.859363 -0.33599,-1.278822 1.86156,-1.767729 l 2.03941,-0.453727 v -1.355969 -1.355968 l -1.41571,0.183825 c -1.28059,0.16628 -4.5513,0.914282 -4.72037,1.079533 -0.0719,0.0703 1.19263,6.445404 1.42597,7.188909 0.11443,0.364618 0.38269,0.39322 1.81546,0.193574 0.92465,-0.128844 1.95422,-0.293345 2.28792,-0.365558 z m 7.14269,-1.025616 1.81743,-0.01664 0.40101,-1.224754 c 0.5685,-1.736317 1.48853,-5.695753 1.49077,-6.415695 0.002,-0.573802 -0.10422,-0.606606 -1.95314,-0.60439 -1.07527,0.0013 -2.5921,0.07887 -3.37074,0.172391 l -1.41571,0.170047 v 1.339059 1.33906 l 1.14605,-0.124885 c 1.98054,-0.215819 3.75921,1.053992 2.90987,2.077384 -0.16714,0.201395 -1.14511,0.449861 -2.17955,0.553746 l -1.87637,0.188436 v 1.47393 c 0,1.40562 0.0281,1.465009 0.60647,1.281442 0.33357,-0.105869 1.42432,-0.199978 2.42391,-0.209131 z"
       id="path13522" />
  </g>
  <g
     inkscape:groupmode="layer"
     id="layer2"
     inkscape:label="Symbol"
     style="display:inline" />
</svg>
