<?xml version="1.0" standalone="no"?>
<!DOCTYPE svg PUBLIC "-//W3C//DTD SVG 20010904//EN"
 "http://www.w3.org/TR/2001/REC-SVG-20010904/DTD/svg10.dtd">
<svg version="1.0" xmlns="http://www.w3.org/2000/svg"
 width="580.000000pt" height="386.000000pt" viewBox="0 0 580.000000 386.000000"
 preserveAspectRatio="xMidYMid meet">

<g transform="translate(0.000000,386.000000) scale(0.100000,-0.100000)"
fill="#000000" stroke="none">
<path d="M2827 3016 c-59 -22 -97 -57 -127 -121 -18 -37 -20 -65 -20 -392 l0
-352 -362 -3 c-331 -3 -366 -5 -397 -21 -151 -83 -160 -294 -17 -382 l49 -30
364 -3 363 -3 0 -353 0 -354 28 -53 c48 -91 151 -136 252 -109 57 15 130 88
148 146 8 29 12 141 12 383 l0 341 343 0 c219 0 356 4 382 11 80 22 155 124
155 210 0 46 -30 113 -67 151 -63 65 -84 68 -470 68 l-343 0 0 341 c0 240 -4
354 -12 383 -8 25 -31 59 -59 88 -65 65 -139 83 -222 54z"/>
</g>
</svg>
