<?xml version="1.0" encoding="iso-8859-1"?>
<!-- Generator: Adobe Illustrator 18.0.0, SVG Export Plug-In . SVG Version: 6.00 Build 0)  -->
<!DOCTYPE svg PUBLIC "-//W3C//DTD SVG 1.1//EN" "http://www.w3.org/Graphics/SVG/1.1/DTD/svg11.dtd">
<svg version="1.1" id="Capa_1" xmlns="http://www.w3.org/2000/svg" xmlns:xlink="http://www.w3.org/1999/xlink" x="0px" y="0px"
	 viewBox="0 0 56 56" style="enable-background:new 0 0 56 56;" xml:space="preserve">
<path d="M38,0h-0.586H36v1.414l-16,16v-2.828L34.586,0h-2.172L20,12.414V9.586L29.586,0h-2.172L20,7.414V4.586L24.586,0H20h-2H0v18
	v2v4.586L4.586,20h2.828L0,27.414v2.172L9.586,20h2.828L0,32.414v2.172L14.586,20h2.828l-16,16H0v1.414V38v18h18h1.586H20v-0.414
	l16-16v2.828L22.414,56h2.172L36,44.586v2.828L27.414,56h2.172L36,49.586v2.828L32.414,56H36h2h18V38v-2v-3.586L52.414,36h-2.828
	L56,29.586v-2.172L47.414,36h-2.828L56,24.586v-2.172L42.414,36h-2.828l16-16H56v-0.414V18V0H38z M38,22.586L40.586,20h2.828
	L38,25.414V22.586z M20,40.586L22.586,38h2.828L20,43.414V40.586z M36,16.414L34.414,18h-2.828L36,13.586V16.414z M36,11.414
	L29.414,18h-2.828L36,8.586V11.414z M18,29.414L11.414,36H8.586L18,26.586V29.414z M18,31.586v2.828L16.414,36h-2.828L18,31.586z
	 M20,45.586L27.586,38h2.828L20,48.414V45.586z M38,27.586L45.586,20h2.828L38,30.414V27.586z M36,6.414L24.414,18h-2.828L36,3.586
	V6.414z M18,21.586v2.828L6.414,36H3.586L18,21.586z M20,50.586L32.586,38h2.828L20,53.414V50.586z M38,35.414v-2.828L50.586,20
	h2.828L38,35.414z"/>
<g>
</g>
<g>
</g>
<g>
</g>
<g>
</g>
<g>
</g>
<g>
</g>
<g>
</g>
<g>
</g>
<g>
</g>
<g>
</g>
<g>
</g>
<g>
</g>
<g>
</g>
<g>
</g>
<g>
</g>
</svg>
